<svg xmlns="http://www.w3.org/2000/svg" xmlns:xlink="http://www.w3.org/1999/xlink" version="1.1" x="0px" y="0px" viewBox="0 0 100 125" enable-background="new 0 0 100 100" xml:space="preserve"><path fill="white" d="M42.282,94.506c-3.036,0-5.992-0.507-8.393-1.544c-4.794-2.07-6.654-5.93-5.105-10.592  c1.889-5.686,2.249-10.552,1.202-16.271c-0.343-1.875-1.142-3.956-2.027-6.158c-0.758,0.056-1.53,0.044-2.314-0.036  c-6.013-0.607-10.872-5.035-12.379-11.28c-3.132-12.973,1.95-26.45,13.264-35.172c11.59-8.936,26.254-10.467,38.267-3.993  c11.83,6.374,14.262,15.062,12.909,25.975c1.988,0.683,3.868,1.519,5.512,2.484c5.464,3.208,4.591,6.788,3.961,8.179  c-1.226,2.709-4.613,4.583-7.706,4.51c0.184,0.147,0.376,0.298,0.576,0.456c0.884,0.698,1.887,1.489,2.979,2.51  c2.438,2.28,2.206,4.06,1.581,5.151c-1.744,3.048-8.701,3.295-10.718,2.698c-0.249-0.074-0.618-0.203-1.071-0.363  c-1.518-0.536-6.141-2.167-7.439-1.232c-0.078,0.057-0.286,0.205-0.276,0.844c0.016,1.096,1.129,1.559,3.488,2.287  c1.647,0.508,3.351,1.034,4.376,2.267c1.27,1.528,1.598,2.861,0.974,3.963c-0.928,1.635-3.601,2.014-8.665,1.23l-0.138-0.021  c-0.937-0.141-1.41-0.009-1.568,0.083c0.032,0.086,0.125,0.252,0.354,0.442c0.272,0.225,1.33,0.938,3.456,0.615  c2.125-0.32,4.109,0.355,5.186,1.762c0.756,0.989,0.934,2.204,0.474,3.248c-0.334,0.759-1.302,2.067-4.034,2.309  c-6.38,0.567-7.635,2.895-10.664,8.518l-0.116,0.215C55.781,92.129,48.849,94.505,42.282,94.506z M30.667,59.45  c0.855,2.145,1.611,4.192,1.972,6.164c1.134,6.195,0.747,11.461-1.296,17.607c-1.1,3.309,0.117,5.753,3.615,7.263  c7.503,3.24,18.479,0.303,20.893-4.173l0.116-0.214c3.101-5.756,4.973-9.229,12.801-9.926c1.225-0.108,1.709-0.496,1.803-0.708  c0.083-0.188-0.076-0.427-0.147-0.521c-0.358-0.469-1.267-0.94-2.64-0.733c-3.385,0.509-5.531-0.767-6.413-2.132  c-0.647-1.002-0.687-2.137-0.106-3.036c0.43-0.666,1.557-1.718,4.277-1.31l0.148,0.023c4.006,0.622,5.404,0.282,5.808,0.116  c-0.067-0.163-0.226-0.46-0.606-0.918c-0.512-0.617-1.826-1.022-3.096-1.414c-2.255-0.696-5.344-1.649-5.391-4.826  c-0.025-1.692,0.748-2.606,1.4-3.075c2.255-1.622,6.298-0.396,9.912,0.879c0.398,0.141,0.721,0.255,0.94,0.321  c1.771,0.524,6.85-0.125,7.609-1.452c0.228-0.398-0.41-1.211-1.082-1.84c-1.01-0.944-1.965-1.698-2.808-2.363  c-2.786-2.199-4.887-3.858-4.743-8.98c-0.009-0.926,0.099-1.987,0.362-3.203c0.279-1.287,0.51-2.515,0.696-3.688  c-2.097-0.578-4.261-0.97-6.328-1.141c1.124,1.285,1.777,2.815,1.889,4.518c0.231,3.482-1.923,7.045-5.122,8.472  c-2.908,1.296-5.999,0.585-8.477-1.954c-1.89-1.935-2.498-4.54-1.668-7.147c0.709-2.23,2.354-4.186,4.359-5.346  c-13.447-3.236-28.504-1.596-33.95,1.239c-1.389,0.723-2.312,2.323-2.532,4.389c-0.256,2.398,0.531,4.804,1.958,5.987  c0.004,0.004,0.01,0.008,0.015,0.011c0.046-0.254,0.102-0.508,0.168-0.76c1.608-6.127,4.755-7.65,6.488-8.012  c2.407-0.505,4.899,0.526,6.664,2.758c1.927,2.436,3.172,6.774,0.888,11.643C37.265,55.763,34.25,58.389,30.667,59.45z   M49.054,8.198c-7.212,0-14.535,2.502-20.878,7.393c-10.458,8.062-15.168,20.478-12.289,32.402  c1.235,5.115,5.171,8.738,10.028,9.229c0.328,0.033,0.653,0.051,0.974,0.056c-1.066-2.713-2.007-5.453-2.188-8.092  c-0.646-0.187-1.198-0.444-1.602-0.779c-2.125-1.762-3.271-5.04-2.918-8.349c0.317-2.98,1.764-5.348,3.969-6.497  c5.421-2.822,13.446-3.346,19.23-3.28c6.87,0.073,14.293,1.051,19.375,2.554c0.587,0.174,1.144,0.373,1.668,0.596  c3.253-0.197,7.019,0.25,10.625,1.202c1.361-12.88-3.466-18.45-11.533-22.796C58.989,9.398,54.048,8.198,49.054,8.198z   M27.448,49.567c0.271,2.323,1.204,4.857,2.21,7.376c2.969-0.785,5.442-2.919,6.942-6.12c1.762-3.755,0.865-7.02-0.561-8.823  c-1.116-1.412-2.611-2.082-3.995-1.791c-1.911,0.399-3.525,2.607-4.431,6.057c-0.051,0.193-0.093,0.39-0.127,0.589  c1.858,0.083,4.106-0.146,4.946-0.914c0.115-0.105,0.223-0.204-0.1-0.719c-0.396-0.631-0.207-1.464,0.425-1.86  c0.631-0.397,1.464-0.206,1.86,0.424c0.971,1.546,0.813,3.115-0.422,4.198C33.006,49.025,30.089,49.645,27.448,49.567z   M76.339,43.879c-0.035,1.632,0.371,3.303,2.016,3.846c2.169,0.717,5.438-0.692,6.365-2.739c0.903-1.996-1.062-3.679-2.869-4.74  c-1.37-0.804-2.915-1.511-4.549-2.104c-0.192,1.121-0.417,2.264-0.67,3.429c-0.052,0.241-0.103,0.505-0.147,0.783  c0,0.001,0,0.002,0,0.003C76.416,42.91,76.368,43.415,76.339,43.879z M63.936,36.169c-0.499,0.048-0.98,0.114-1.443,0.199  c-2.119,0.388-4.241,2.327-4.936,4.51c-0.371,1.167-0.494,2.885,1.028,4.444c1.667,1.709,3.601,2.196,5.447,1.375  c2.167-0.967,3.685-3.474,3.529-5.831C67.43,38.888,66.161,37.263,63.936,36.169z"/></svg>
