<svg xmlns="http://www.w3.org/2000/svg" viewBox="0 0 100 100"><path d="M42.282 94.506c-3.036 0-5.992-.507-8.393-1.544-4.8-2.07-6.66-5.93-5.11-10.592 1.89-5.686 2.25-10.552 1.2-16.27-.346-1.876-1.14-3.957-2.03-6.16-.76.057-1.53.045-2.315-.035-6.013-.607-10.87-5.035-12.38-11.28-3.13-12.973 1.95-26.45 13.265-35.172C38.12 4.517 52.786 2.986 64.796 9.46c11.83 6.374 14.26 15.062 12.91 25.975 1.99.683 3.87 1.52 5.51 2.484 5.467 3.2 4.59 6.78 3.96 8.17-1.223 2.71-4.61 4.582-7.703 4.51.184.146.376.3.576.455.882.7 1.885 1.49 2.977 2.51 2.438 2.28 2.206 4.06 1.58 5.15-1.743 3.05-8.7 3.296-10.717 2.7a26.13 26.13 0 0 1-1.07-.364c-1.52-.536-6.14-2.167-7.44-1.232-.08.057-.29.205-.28.844.013 1.096 1.13 1.56 3.49 2.287 1.643.507 3.35 1.033 4.372 2.266 1.27 1.53 1.597 2.86.973 3.965-.928 1.635-3.6 2.014-8.665 1.23l-.137-.02c-.937-.14-1.41-.01-1.568.084.03.087.124.253.353.443.27.224 1.33.94 3.455.614 2.124-.32 4.11.357 5.185 1.764.757.99.935 2.204.475 3.248-.335.76-1.303 2.068-4.035 2.31-6.38.567-7.635 2.895-10.664 8.518l-.115.22c-2.448 4.54-9.38 6.914-15.947 6.915zM30.667 59.45c.855 2.145 1.61 4.192 1.972 6.164 1.13 6.195.74 11.46-1.3 17.607-1.1 3.31.11 5.76 3.61 7.27 7.502 3.24 18.48.306 20.892-4.17l.116-.213c3.1-5.756 4.973-9.23 12.8-9.926 1.226-.107 1.71-.495 1.804-.707.085-.19-.074-.427-.145-.52-.358-.47-1.267-.94-2.64-.734-3.385.507-5.53-.77-6.413-2.134-.647-1.004-.687-2.14-.106-3.038.43-.665 1.558-1.717 4.278-1.31l.15.024c4.002.62 5.4.28 5.804.117-.067-.164-.226-.46-.606-.92-.51-.617-1.826-1.022-3.096-1.414-2.255-.695-5.344-1.65-5.39-4.825-.026-1.692.747-2.606 1.4-3.075 2.254-1.622 6.297-.396 9.91.88.4.14.722.254.94.32 1.772.524 6.85-.125 7.61-1.452.228-.397-.41-1.21-1.082-1.84-1.01-.943-1.965-1.697-2.808-2.362-2.786-2.2-4.887-3.857-4.743-8.98-.01-.925.1-1.986.362-3.202.28-1.288.51-2.516.695-3.69a34.94 34.94 0 0 0-6.327-1.14c1.125 1.285 1.778 2.815 1.89 4.518.23 3.482-1.923 7.045-5.122 8.472-2.905 1.296-6 .585-8.474-1.954-1.89-1.934-2.5-4.54-1.67-7.146.71-2.23 2.355-4.184 4.36-5.344-13.447-3.238-28.504-1.598-33.95 1.24-1.39.72-2.312 2.32-2.532 4.386-.255 2.4.53 4.803 1.96 5.986a.05.05 0 0 0 .016.01c.044-.252.1-.506.166-.76 1.608-6.125 4.755-7.65 6.488-8.01 2.41-.505 4.9.526 6.666 2.758 1.923 2.436 3.17 6.774.884 11.643-1.778 3.796-4.793 6.42-8.376 7.483zM49.054 8.198c-7.212 0-14.535 2.502-20.878 7.393C17.718 23.66 13.008 36.07 15.886 48c1.236 5.115 5.172 8.738 10.03 9.23.327.032.652.05.973.055-1.07-2.713-2.01-5.453-2.19-8.092-.65-.186-1.2-.443-1.6-.78-2.13-1.76-3.28-5.04-2.92-8.347.31-2.98 1.76-5.35 3.97-6.5 5.42-2.82 13.44-3.344 19.23-3.28 6.87.075 14.29 1.053 19.37 2.556.583.173 1.14.372 1.67.595 3.25-.196 7.02.25 10.62 1.203 1.36-12.88-3.466-18.45-11.533-22.796a30.357 30.357 0 0 0-14.46-3.64zm-21.606 41.37c.27 2.322 1.204 4.856 2.21 7.375 2.97-.785 5.442-2.92 6.942-6.12 1.762-3.755.865-7.02-.56-8.823-1.117-1.412-2.612-2.082-3.996-1.79-1.91.398-3.525 2.606-4.43 6.056a6.77 6.77 0 0 0-.128.59c1.858.082 4.106-.147 4.946-.915.115-.1.223-.2-.1-.71a1.348 1.348 0 1 1 2.285-1.435c.97 1.546.813 3.115-.422 4.198-1.19 1.04-4.106 1.66-6.747 1.584zm48.89-5.69c-.034 1.633.372 3.304 2.017 3.847 2.17.717 5.438-.692 6.365-2.74.903-1.995-1.062-3.678-2.87-4.74-1.37-.803-2.914-1.51-4.548-2.103a79.115 79.115 0 0 1-.67 3.43c-.052.24-.103.504-.147.782v.003c-.07.553-.117 1.058-.146 1.522zm-12.402-7.71c-.5.05-.98.115-1.443.2-2.12.388-4.24 2.327-4.936 4.51-.37 1.167-.494 2.885 1.028 4.444 1.667 1.71 3.6 2.196 5.447 1.375 2.167-.967 3.685-3.474 3.53-5.83-.132-1.98-1.4-3.604-3.626-4.698z"/></svg>