<svg xmlns="http://www.w3.org/2000/svg" viewBox="0 0 100 125"><path fill="#9A9A9A" d="M88 92.65H12.096c-4.45 0-8.034-1.783-9.83-4.896-1.795-3.108-1.55-7.104.677-10.957l37.95-65.733C43.123 7.21 46.458 5 50.05 5c3.59 0 6.927 2.21 9.152 6.065L97.15 76.8c2.227 3.853 2.474 7.847.68 10.956-1.797 3.11-5.38 4.894-9.83 4.894zM50.05 12.978c-.522 0-1.418.642-2.246 2.077L9.854 80.787c-.83 1.434-.938 2.53-.678 2.982.26.446 1.264.9 2.92.9H88c1.656 0 2.66-.454 2.92-.904.26-.45.15-1.545-.678-2.98l-37.95-65.733c-.827-1.434-1.724-2.076-2.243-2.076z"/><path fill="#9A9A9A" d="M45.313 57.395c.21 2.18.563 3.78 1.08 4.9.65 1.408 1.857 2.152 3.49 2.152 1.6 0 2.814-.754 3.514-2.18.57-1.164.928-2.744 1.092-4.818l1.404-16.12a44.31 44.31 0 0 0 .234-4.506c0-2.643-.348-4.642-1.065-6.113-.576-1.18-1.875-2.586-4.787-2.586-1.872 0-3.413.633-4.58 1.88-1.15 1.23-1.732 2.917-1.732 5.02 0 1.357.1 3.594.297 6.656l1.05 15.715zm4.703 10.5c-1.683 0-3.126.595-4.292 1.758-1.167 1.166-1.758 2.6-1.758 4.26 0 1.888.633 3.395 1.882 4.478 1.2 1.047 2.625 1.573 4.233 1.573a6.14 6.14 0 0 0 4.196-1.596c1.23-1.095 1.854-2.59 1.854-4.455 0-1.663-.605-3.1-1.8-4.268-1.187-1.158-2.64-1.747-4.314-1.747z"/></svg>