<svg xmlns="http://www.w3.org/2000/svg" version="1" fill="#fff" viewBox="0 0 100 100"><path d="M53.86 65.085l-4.627 14.043H45.94l2.137-14.06 5.782.017zm-29.24.69l5.075 13.353H26.4L20.343 68.26l4.278-2.484zm36.02-42.84a3.06 3.06 0 0 1 3.058-3.06s11.596-.005 11.7 0a6.457 6.457 0 0 1 3.816 1.515l9.222 7.737v1.427a3.82 3.82 0 0 1-3.82 3.82H71.54v1.107l4.76 2.087s-3.603 8.09-6.244 14.674c-3.183 7.934-8.022 9.73-8.89 9.99l1.713 16.9h-3.296l-4.7-16.865-29.676-.09-9.3 5.396-2.053 11.558H10.56V64.382l4.86-4.857v-8.6c-.87.696-1.844 1.27-2.894 1.695V42.605c0-2.936 1.093-5.617 2.894-7.658a11.622 11.622 0 0 1 4.347-3.082 11.56 11.56 0 0 1 4.342-.84H59.41l7.478-6.276a8.558 8.558 0 0 1-6.252-1.67v-.15z"/></svg>