<svg xmlns="http://www.w3.org/2000/svg" viewBox="0 0 100 100"><path d="M42.282 94.506c-3.036 0-5.992-.507-8.393-1.544-4.8-2.07-6.66-5.93-5.11-10.592 1.89-5.686 2.25-10.552 1.2-16.27-.35-1.876-1.14-3.957-2.03-6.16-.76.057-1.53.045-2.32-.035-6.02-.607-10.87-5.035-12.38-11.28-3.13-12.973 1.95-26.45 13.26-35.172C38.12 4.517 52.78 2.986 64.79 9.46c11.83 6.374 14.26 15.062 12.91 25.975 1.99.683 3.87 1.52 5.51 2.484 5.47 3.2 4.59 6.78 3.96 8.17-1.22 2.71-4.61 4.58-7.7 4.51.184.14.376.3.576.45.88.7 1.883 1.49 2.975 2.51 2.438 2.28 2.206 4.06 1.58 5.15-1.743 3.05-8.7 3.29-10.717 2.7a26.13 26.13 0 0 1-1.07-.37c-1.52-.537-6.14-2.168-7.44-1.233-.08.057-.29.205-.28.844.012 1.097 1.13 1.56 3.49 2.288 1.642.506 3.35 1.032 4.37 2.265 1.27 1.53 1.598 2.86.974 3.964-.92 1.636-3.6 2.015-8.66 1.23l-.14-.02c-.933-.14-1.41-.01-1.57.085.03.087.13.253.36.443.27.222 1.33.94 3.454.612 2.123-.32 4.11.357 5.184 1.764.757.99.935 2.205.475 3.25-.336.76-1.304 2.067-4.036 2.31-6.38.566-7.636 2.894-10.665 8.517l-.117.22c-2.448 4.54-9.38 6.915-15.947 6.916zM30.667 59.45c.855 2.145 1.61 4.192 1.972 6.164 1.13 6.195.74 11.46-1.3 17.607-1.1 3.31.11 5.76 3.61 7.27 7.5 3.24 18.48.31 20.89-4.17l.11-.21c3.1-5.75 4.97-9.23 12.8-9.92 1.223-.105 1.71-.493 1.8-.705.086-.19-.073-.427-.144-.52-.358-.47-1.267-.94-2.64-.734-3.385.508-5.53-.77-6.413-2.133-.648-1.004-.688-2.14-.107-3.04.43-.664 1.56-1.716 4.28-1.31l.15.025c4.003.62 5.4.28 5.805.12-.07-.163-.227-.46-.607-.92-.51-.616-1.826-1.02-3.096-1.413-2.253-.696-5.34-1.65-5.39-4.826-.024-1.69.75-2.604 1.4-3.073 2.256-1.622 6.3-.396 9.91.88.4.14.724.254.94.32 1.774.524 6.85-.125 7.61-1.452.23-.395-.41-1.21-1.08-1.84-1.01-.94-1.965-1.695-2.81-2.36-2.784-2.2-4.885-3.857-4.74-8.98-.01-.925.1-1.986.36-3.202.28-1.288.51-2.516.696-3.69a34.94 34.94 0 0 0-6.326-1.14c1.125 1.285 1.78 2.815 1.89 4.518.23 3.484-1.923 7.047-5.12 8.474-2.907 1.296-6 .585-8.476-1.954-1.89-1.935-2.5-4.54-1.67-7.147.71-2.23 2.356-4.185 4.36-5.345-13.446-3.24-28.503-1.6-33.95 1.24-1.39.72-2.31 2.32-2.53 4.386-.254 2.4.53 4.802 1.96 5.985a.05.05 0 0 0 .017.01c.043-.25.1-.503.165-.76 1.608-6.122 4.755-7.65 6.488-8.01 2.41-.502 4.9.53 6.67 2.76 1.923 2.437 3.17 6.775.884 11.644-1.777 3.798-4.792 6.42-8.375 7.485zM49.054 8.198c-7.212 0-14.535 2.502-20.878 7.393C17.718 23.66 13.008 36.07 15.886 48c1.236 5.115 5.172 8.738 10.03 9.23.327.032.652.05.973.055-1.07-2.713-2.01-5.453-2.19-8.092-.65-.186-1.2-.443-1.6-.78-2.13-1.76-3.28-5.04-2.92-8.347.31-2.98 1.76-5.35 3.97-6.5 5.42-2.82 13.44-3.344 19.23-3.28 6.87.075 14.29 1.053 19.37 2.556.58.173 1.14.372 1.67.595 3.25-.196 7.02.25 10.62 1.203 1.36-12.88-3.47-18.45-11.54-22.796a30.357 30.357 0 0 0-14.46-3.64zm-21.606 41.37c.27 2.322 1.204 4.856 2.21 7.375 2.97-.785 5.442-2.92 6.942-6.12 1.762-3.755.865-7.02-.56-8.823-1.117-1.412-2.612-2.082-3.996-1.79-1.91.398-3.525 2.606-4.43 6.056a6.77 6.77 0 0 0-.128.59c1.858.082 4.106-.147 4.946-.915.115-.1.223-.2-.1-.71a1.348 1.348 0 1 1 2.285-1.43c.97 1.55.813 3.12-.422 4.2-1.19 1.04-4.106 1.66-6.747 1.588zm48.89-5.69c-.034 1.633.372 3.304 2.017 3.847 2.17.717 5.438-.692 6.365-2.74.903-1.995-1.062-3.678-2.87-4.74-1.37-.803-2.914-1.51-4.548-2.103a79.115 79.115 0 0 1-.67 3.43c-.052.24-.103.504-.147.782v.003c-.07.553-.117 1.058-.146 1.522zm-12.402-7.71c-.5.05-.98.115-1.443.2-2.12.388-4.24 2.327-4.936 4.51-.37 1.167-.494 2.885 1.028 4.444 1.667 1.71 3.6 2.196 5.447 1.375 2.167-.967 3.685-3.474 3.53-5.83-.132-1.98-1.4-3.604-3.626-4.698z"/></svg>