<svg xmlns="http://www.w3.org/2000/svg" fill="#27B8E8" viewBox="0 0 100 100"><path d="M84.748 75.24l-6.38-7.506c-3.785-4.454-5.626-9.46-5.626-15.307v-9.033c0-9.722-6.583-17.915-15.52-20.41.056-.36.096-.728.096-1.106 0-4.034-3.282-7.316-7.317-7.316-4.03 0-7.31 3.282-7.31 7.316 0 .378.04.745.097 1.107-8.938 2.494-15.52 10.688-15.52 20.41v9.032c0 5.846-1.842 10.853-5.628 15.307l-6.384 7.507H35.72c1.426 5.82 7.272 10.2 14.282 10.2s12.86-4.38 14.287-10.194h20.46zm-37.81-53.36A3.067 3.067 0 0 1 50 18.814a3.068 3.068 0 0 1 3.066 3.064c0 .133-.03.257-.047.386-.497-.034-.987-.075-1.488-.075h-3.068c-.5 0-.99.04-1.483.07-.016-.13-.046-.253-.046-.386zM24.875 70.49c4.467-5.256 6.64-11.164 6.64-18.06v-9.034c0-9.35 7.604-16.954 16.953-16.954h3.068c9.35 0 16.954 7.605 16.954 16.954v9.033c0 6.892 2.172 12.8 6.64 18.06l.425.5H24.45l.425-.5zM50 81.188c-4.584 0-8.468-2.498-9.844-5.946h19.69c-1.376 3.447-5.26 5.945-9.845 5.945z"/></svg>