<svg xmlns="http://www.w3.org/2000/svg" viewBox="0 0 100 125"><path d="M10.6 85.457a5.94 5.94 0 0 0 2.59-.606c2.388-1.16 8.81-3.87 16.846-3.87 5.453 0 13.215 2.78 16.138 3.82.49.18.868.31 1.106.39 1.023.34 1.897.56 2.837.56.867 0 1.69-.18 2.756-.61.103-.04 10.354-4.154 17.093-4.154 8.043 0 14.466 2.715 16.872 3.89 2.354 1.13 5.184.55 6.826-1.38.87-1.04 1.334-2.33 1.337-3.74V25.82c0-2.366-1.36-4.744-3.37-5.916-2.27-1.322-10.532-5.642-21.652-5.642-8.523 0-15.4 2.62-19.965 5.07-4.564-2.45-11.44-5.07-19.964-5.07-11.13 0-19.388 4.32-21.646 5.64-2.026 1.173-3.39 3.553-3.39 5.92L5 79.745c.003 3.203 2.463 5.712 5.6 5.712zm41.768-62.023c4.058-2.16 10.11-4.44 17.597-4.44 9.932 0 17.26 3.824 19.274 5 .56.326 1.02 1.144 1.02 1.82v53.923c0 .286-.08.522-.22.69-.27.314-.74.368-1.15.174-2.688-1.31-9.907-4.36-18.94-4.36-6.204 0-14.456 2.84-17.596 4.01V23.44zm-42.63 2.38c0-.678.46-1.495 1.034-1.827 2.006-1.172 9.32-4.994 19.263-4.994 7.485 0 13.54 2.28 17.597 4.44v56.854c-3.497-1.25-11.398-4.052-17.597-4.052-9.023 0-16.24 3.048-18.91 4.352-.748.36-1.387-.09-1.388-.845V25.814z"/></svg>