<svg xmlns="http://www.w3.org/2000/svg" viewBox="0 0 100 125"><path d="M10.6 85.457a5.94 5.94 0 0 0 2.59-.606c2.388-1.164 8.81-3.876 16.846-3.876 5.453 0 13.215 2.777 16.138 3.822.49.176.868.312 1.106.39 1.023.334 1.897.56 2.837.56.867 0 1.69-.186 2.756-.615.103-.04 10.354-4.155 17.093-4.155 8.043 0 14.466 2.716 16.872 3.893 2.354 1.127 5.184.55 6.826-1.382.87-1.038 1.334-2.33 1.337-3.74v-53.93c0-2.365-1.36-4.743-3.376-5.915-2.27-1.322-10.537-5.642-21.657-5.642-8.523 0-15.4 2.62-19.965 5.07-4.564-2.45-11.44-5.07-19.964-5.07-11.13 0-19.387 4.318-21.645 5.638-2.026 1.174-3.388 3.554-3.388 5.92L5 79.746c.003 3.203 2.463 5.712 5.6 5.712zm41.768-62.023c4.058-2.16 10.11-4.44 17.597-4.44 9.932 0 17.26 3.824 19.274 5 .56.326 1.02 1.144 1.02 1.82v53.923c0 .286-.075.522-.216.69-.27.314-.742.368-1.146.174-2.685-1.31-9.904-4.363-18.936-4.363-6.205 0-14.457 2.84-17.597 4.012V23.433zm-42.63 2.38c0-.678.46-1.495 1.034-1.827 2.006-1.172 9.32-4.994 19.263-4.994 7.485 0 13.54 2.28 17.597 4.44v56.854c-3.497-1.25-11.398-4.052-17.597-4.052-9.023 0-16.24 3.048-18.91 4.352-.748.36-1.387-.09-1.388-.845V25.814z"/></svg>