<svg xmlns="http://www.w3.org/2000/svg" xmlns:xlink="http://www.w3.org/1999/xlink" version="1.1" x="0px" y="0px" viewBox="0 0 100 125" enable-background="new 0 0 100 100" xml:space="preserve"><path d="M10.6,85.457c0.88,0,1.746-0.202,2.589-0.606c2.389-1.166,8.812-3.878,16.847-3.878c5.453,0,13.215,2.777,16.138,3.822  c0.491,0.176,0.868,0.312,1.106,0.389c1.023,0.335,1.897,0.56,2.837,0.56c0.867,0,1.69-0.185,2.756-0.614  c0.103-0.042,10.354-4.156,17.093-4.156c8.043,0,14.466,2.716,16.872,3.893c2.354,1.127,5.184,0.55,6.826-1.382  c0.871-1.038,1.334-2.329,1.337-3.741l-0.002-53.928c0-2.366-1.358-4.744-3.376-5.916c-2.27-1.323-10.537-5.643-21.657-5.643  c-8.523,0-15.399,2.619-19.965,5.069c-4.565-2.45-11.441-5.069-19.965-5.069c-11.131,0-19.387,4.318-21.645,5.638  c-2.027,1.174-3.389,3.554-3.389,5.921L5,79.745C5.003,82.948,7.463,85.457,10.6,85.457z M52.368,23.434  c4.058-2.159,10.111-4.44,17.597-4.44c9.932,0,17.261,3.824,19.274,4.999c0.563,0.327,1.022,1.145,1.022,1.822l0.001,53.922  c0,0.286-0.076,0.522-0.217,0.689c-0.27,0.315-0.742,0.369-1.146,0.175c-2.684-1.312-9.903-4.365-18.935-4.365  c-6.205,0-14.457,2.841-17.597,4.012V23.434z M9.738,25.814c0-0.678,0.461-1.495,1.034-1.827c2.006-1.172,9.321-4.994,19.263-4.994  c7.485,0,13.539,2.281,17.597,4.44v56.854c-3.497-1.251-11.398-4.052-17.597-4.052c-9.023,0-16.24,3.048-18.91,4.352  c-0.748,0.359-1.387-0.089-1.388-0.845L9.738,25.814z"/></svg>
