<svg xmlns="http://www.w3.org/2000/svg" viewBox="0 0 100 100"><path d="M37.71.51c.12 1.44.19 2.75.16 2.78-.02.02-.23-.02-.48-.09-1.21-.33-2.58-.22-3.66.3-1.56.75-2.49 1.97-2.88 3.74-.18.82-.18 2.66 0 3.73.6 3.6 2.61 8.47 5.38 13.05.23.38.42.73.42.77 0 .12-.51.02-.93-.19-.19-.09-.59-.41-.89-.72-1.03-1.04-2.05-2.73-3.54-5.88-1.31-2.77-1.99-3.91-3.26-5.44-2.19-2.65-4.72-3.73-7.3-3.11-.84.19-1.96.73-2.45 1.17l-.37.32-1.35-.93c-2.3-1.58-2.14-1.48-1.97-1.25.09.11.72.82 1.4 1.58.68.76 1.24 1.42 1.23 1.48-.01.05-.11.33-.22.65-.78 2.22-.14 5.55 1.84 9.55.3.6.51 1.11.48 1.14-.04.02-.79.2-1.68.39-1.1.23-1.56.36-1.44.39.1.03.78.05 1.51.06.73.01 1.54.03 1.8.05.44.05.47.06.64.37.36.62 1.52 2.34 2.13 3.15 2.56 3.38 4.68 5.17 7.41 6.28l.62.25.16 1.55c.09.85.18 1.49.21 1.42.02-.06.12-.69.22-1.4.09-.71.18-1.29.19-1.31.01-.01.27.04.59.1 2.45.52 4.9.14 7.88-1.21.56-.25 1.02-.45 1.02-.44.01.01.62 1.19 1.37 2.62l1.66 3.21c.19.39.36.61.44.61.24 0 1.5-.48 2.33-.89 4.47-2.22 8.01-6.92 8.63-11.47l.09-.63-2.68-5.04c-2.81-5.28-3.46-6.43-4.78-8.41l-.81-1.21.51-2.37c.28-1.3.5-2.37.49-2.38-.02-.02-.4.78-.88 1.77-.47.98-.88 1.8-.9 1.81-.02.02-.41-.44-.86-1-2-2.5-3.98-4.35-5.67-5.32l-.51-.3-.54-1.56c-.29-.86-.59-1.71-.67-1.91l-.14-.35.05.52zM58.93 21.5c-.37.17-.66.57-.81 1.1-.12.45-.12 1.88 0 2.68.14.87.47 2.29.56 2.33.09.05.89-1.61 1.28-2.65.75-2.02.79-3.21.09-3.5-.37-.14-.72-.13-1.12.04zm18.92 4.13c-.47 1.06-.65 1.4-.73 1.37-.06-.02-.33-.12-.58-.21-2.01-.72-4.25-.13-5.76 1.5-1.37 1.47-2.44 4.15-2.84 7.14-.05.37-.11.71-.12.75-.02.1-.08.08-1.63-.63-.72-.33-.7-.3.54.68l.92.74-.01 9.63c-.01 5.93-.05 9.87-.09 10.22-.26 1.94-1.14 3.49-2.37 4.14-.4.22-1.33.5-1.41.43-.02-.02-.01-2.79.02-6.15l.05-6.12 1.15-.99c.63-.55 1.14-1 1.13-1.01-.01-.02-.49.23-1.07.52-.58.3-1.07.54-1.1.54-.04 0-.06-1.28-.06-2.83 0-2.7-.01-2.83-.16-3.02-.24-.31-.73-.47-1.59-.51-3.32-.16-10.07 2.33-13.06 4.81-.54.44-1.05 1.04-1.17 1.36-.03.09-.05 1.21-.05 2.51 0 1.3-.01 2.36-.03 2.36s-.34-.39-.72-.87c-.37-.48-.73-.93-.79-.99-.12-.15.09.31.9 2.09l.63 1.36.05 12.09c.04 8.75.03 12.07-.03 12.04-.26-.16-.62-1.67-.9-3.79-.38-2.82-.66-6.34-1.1-13.61-.17-2.99-.32-4.84-.4-5.21-.38-1.75-1.38-3.57-2.61-4.71-.44-.41-1.35-1.07-1.58-1.14-.05-.02.06-.8.28-2.01.2-1.09.36-1.98.34-2-.01-.01-.36.76-.78 1.71-.42.96-.79 1.76-.82 1.8-.02.03-.33-.02-.67-.1-1.36-.35-2.76-.27-3.71.2-.58.3-1.4 1.13-1.87 1.88-.21.36-.4.65-.41.65-.02 0-.9-.21-1.98-.47s-1.98-.47-2.01-.47c-.03 0 .77.42 1.77.94 1 .51 1.84.94 1.85.96.02.01-.05.22-.13.47-.21.62-.51 2.03-.65 3.04-.3 2.17-.35 7.39-.1 9.89l.09.94-1.85 1c-1.02.54-1.84 1-1.83 1.02.02.01.86-.2 1.89-.47 1.28-.34 1.88-.47 1.91-.4.02.05.09.4.14.79.51 3.76 2.09 9.06 3.49 11.72.02.05-.89 1.09-2.31 2.67-.27.3-.19.26 1.42-.87.76-.53 1.4-.95 1.41-.93.02.02.2.29.42.61 1.78 2.6 4.44 4.38 7.55 5.06 1 .22 2.36.33 3.25.28l.79-.05.09 1.69c.05.93.16 2.93.23 4.43.12 2.54.15 2.75.32 3.1.51 1.05 2.12 2.05 4.19 2.58 2.69.69 6.64-.14 8.25-1.76.54-.54.54-.55.72-3.17.27-4.29 1-14.75 1.03-14.77.01-.01.88-.06 1.94-.12 1.06-.05 1.91-.12 1.89-.13-.02-.02-.86-.19-1.87-.37-1.01-.18-1.85-.35-1.87-.37-.02-.02.07-1.54.19-3.38.13-1.84.24-3.39.24-3.45 0-.09.11-.1.65-.04.35.03 1.1.05 1.68.02 2.44-.11 4.64-.65 6.58-1.64l.8-.4 1.27.73c.7.4 1.43.82 1.63.93.27.15.09-.06-.89-1l-1.23-1.19.53-.39c.82-.6 2.19-2.01 2.73-2.82 2.47-3.71 3.96-9.36 4.61-17.57.05-.6.1-1.1.12-1.12.02-.01.53.16 1.14.37.61.22 1.27.45 1.46.51.33.12.34.12.17-.01-.09-.08-.74-.51-1.44-.96l-1.26-.82.01-4.14.01-4.14.75-.89c.41-.5.73-.9.71-.9s-.37.24-.77.54c-.4.3-.77.54-.82.54s-.09-.1-.09-.23c0-.68-.6-3.37-1.07-4.75-.76-2.3-2-4.27-3.24-5.21l-.23-.17.29-1.6c.16-.88.28-1.62.26-1.63.01-.04-.29.58-.62 1.35zM62.47 42.8c.22.03.4.09.4.12 0 .17-.98 1.02-1.8 1.56-2.59 1.72-6.54 3.26-9.6 3.75-.91.15-2.41.18-2.54.05-.12-.12.55-.79 1.34-1.36 3.26-2.33 9.51-4.44 12.2-4.12z"/><path d="M56.54 44.85c-1.62.42-3.3 1.38-2.91 1.65.41.27 3.3-.76 3.91-1.41.12-.12.19-.26.17-.31-.08-.12-.55-.09-1.17.07zM63.7 31.7c-.48.15-.81.64-1.03 1.53-.16.63-.19 3.31-.05 3.45.05.05.21-.1.54-.57 1.31-1.84 1.92-3.21 1.72-3.92-.1-.39-.7-.63-1.18-.49zm-12.19 5.68c-.5.5-.23 1.18.88 2.28.42.42.79.76.83.76.07 0-.07-.89-.26-1.63-.26-.99-.68-1.63-1.07-1.63-.08-.01-.26.09-.38.22zM40.04 39.9c-.1.1-.22.32-.26.48-.23.84.51 1.54 2.11 2.01.78.23 2.12.46 2.44.42.21-.02.19-.06-.79-1.04-.56-.56-1.21-1.16-1.44-1.34-.96-.71-1.68-.9-2.06-.53z"/></svg>