<svg xmlns="http://www.w3.org/2000/svg" viewBox="0 0 90 100"><path d="M80.13 47.553c2.58-1.52 2.668-2.13 2.74-2.643a1.63 1.63 0 0 0-.51-1.432c-3.99-3.654-8.142-6.486-12.427-8.502-3.982-7.954-7.418-12.267-13.785-12.267l-.373.002c-1.217.03-2.145.408-2.756 1.122-1 1.164-.796 2.74-.616 4.128.254 1.968.168 2.486-.464 2.77l-1.623.733c-12.54 1.14-22.337 8.122-26.57 11.674-1.702-8.326-10.146-11.636-14.84-12.223a1.498 1.498 0 0 0-1.687 1.49c0 7.877 2.713 11.708 5.334 13.57-.74.442-1.412 1-2.015 1.674-4.31 4.815-3.354 13.93-3.31 14.318a1.502 1.502 0 0 0 1.675 1.32c4.695-.587 13.14-3.896 14.842-12.224a55.737 55.737 0 0 0 7.717 5.408c.178 2.575.966 8.753 4.444 10.438a3.61 3.61 0 0 0 1.58.377c2.906 0 4.575-3.685 5.33-5.95 3.382.957 7.057 1.576 10.97 1.576h.002c10.126 0 19.737-4.1 28.568-12.188.42-.385.62-1.06.464-1.605-.27-.946-1.02-1.23-2.693-1.572zm-59.076.416c0 8.42-7.563 11.21-10.94 12.033-.066-2.92.34-7.76 2.66-10.353 1.152-1.286 2.654-1.91 4.593-1.91a1.5 1.5 0 0 0 0-3c-.068 0-6.417-.128-7.088-10.5 3.45.862 10.772 3.676 10.772 12 0 .315.1.616.274.863a1.5 1.5 0 0 0-.274.865zm34.22-22.16c0-.004.136-.088.577-.1l.3-.004c3.74 0 6.284 1.92 9.47 7.535a37.23 37.23 0 0 0-6.792-1.6l-3.5-.596c.35-1.197.18-2.51.055-3.468-.074-.582-.2-1.56-.106-1.77zM37.49 64.29a.64.64 0 0 1-.27-.075c-1.295-.628-2.14-3.376-2.54-6.02a49.04 49.04 0 0 0 5.28 2.235c-.715 2.118-1.787 3.86-2.47 3.86zm37.203-15.78c.334 1.09 1.38 1.318 3.648 1.753-7.695 6.412-15.94 9.658-24.546 9.658h-.004c-4.16 0-8.074-.77-11.62-1.926l-8.344-3.677c-5.49-3.058-9.145-6.386-10.01-7.21 1.687-1.61 14.01-12.813 29.972-12.813 1.604 0 3.195.117 4.772.342l1.77.298 7.896 2.563c3.745 1.705 7.39 4.084 10.916 7.138-.95.588-2.39 1.37-3.65 1.994-.146.072-.28.17-.396.283a1.605 1.605 0 0 0-.404 1.6z"/><path d="M58.062 53.2c-.873.96-3.792 3.496-5.71 2.565-2.092-1.016-2.73-4.392-2.8-5.607-.045-.825-.76-1.44-1.576-1.416a1.5 1.5 0 0 0-1.42 1.576c.013.25.367 6.148 4.488 8.146.733.356 1.48.505 2.21.505 3.59 0 6.867-3.575 7.032-3.758a1.5 1.5 0 0 0-2.224-2.013zM70.9 41.123a1.5 1.5 0 0 0-2.122 0l-1.155 1.155-1.155-1.156a1.5 1.5 0 1 0-2.12 2.12L65.5 44.4l-1.155 1.155a1.5 1.5 0 0 0 2.122 2.12l1.154-1.154 1.157 1.156a1.495 1.495 0 0 0 2.122 0 1.5 1.5 0 0 0 0-2.12L69.74 44.4l1.155-1.156a1.5 1.5 0 0 0 0-2.12z"/></svg>