<svg xmlns="http://www.w3.org/2000/svg" xmlns:xlink="http://www.w3.org/1999/xlink" version="1.1" x="0px" y="0px" viewBox="0 0 100 100" enable-background="new 0 0 100 100" xml:space="preserve"><path d="M16.2,61.2C10,61.2,5,56.2,5,50c0-6.2,5-11.2,11.2-11.2c6.2,0,11.2,5,11.2,11.2C27.5,56.2,22.5,61.2,16.2,61.2"/><path d="M50,61.2c-6.2,0-11.2-5-11.2-11.2c0-6.2,5-11.2,11.2-11.2c6.2,0,11.2,5,11.2,11.2C61.2,56.2,56.2,61.2,50,61.2"/><path d="M83.8,61.2c-6.2,0-11.2-5-11.2-11.2c0-6.2,5-11.2,11.2-11.2C90,38.8,95,43.8,95,50C95,56.2,90,61.2,83.8,61.2"/></svg>
