<svg xmlns="http://www.w3.org/2000/svg" xmlns:xlink="http://www.w3.org/1999/xlink" version="1.1" x="0px" y="0px" viewBox="0 0 100 100" enable-background="new 0 0 100 100" xml:space="preserve"><path d="M23.65,50.06c0.627-2.822-0.331-5.764-2.501-7.672c-0.272-0.242-0.455-0.568-0.518-0.928  c-0.15-0.867,0.433-1.693,1.301-1.844c4.319-0.742,7.218-4.846,6.474-9.162c-0.08-0.465-0.2-0.92-0.36-1.363  c-0.125-0.342-0.128-0.717-0.011-1.062c0.286-0.832,1.193-1.277,2.026-0.99c4.146,1.42,8.657-0.789,10.078-4.936  c0.937-2.734,0.311-5.764-1.633-7.904c1.711-0.592,3.463-1.057,5.243-1.391c20.114-3.787,39.491,9.449,43.278,29.564  c3.785,20.116-9.449,39.491-29.564,43.278c-20.115,3.787-39.49-9.449-43.277-29.564C18.462,57.035,22.701,54.34,23.65,50.06z   M16.659,58.197c4.951,18.748,24.164,29.932,42.914,24.98c18.748-4.953,29.934-24.166,24.98-42.915  c-4.951-18.75-24.164-29.934-42.912-24.982c-0.025,0.008-0.051,0.016-0.076,0.02c1,2.115,1.22,4.516,0.618,6.775  c-1.404,5.273-6.819,8.412-12.094,7.008c0.035,0.121,0.067,0.24,0.097,0.365c1.3,5.301-1.945,10.65-7.247,11.949  c1.643,1.666,2.643,3.859,2.82,6.189C26.175,53.029,22.101,57.779,16.659,58.197z"/><path d="M65.488,49.23c0,8.217-6.664,14.879-14.883,14.879c-8.218,0-14.88-6.662-14.88-14.879c0-8.219,6.662-14.881,14.88-14.881  C58.824,34.349,65.488,41.011,65.488,49.23L65.488,49.23z M67.436,49.23c0-9.295-7.533-16.83-16.83-16.83  c-9.294,0-16.83,7.535-16.83,16.83c0,9.293,7.535,16.831,16.83,16.831C59.902,66.061,67.436,58.523,67.436,49.23L67.436,49.23z"/><g><rect x="53.639" y="69.436" transform="matrix(-0.919 -0.3942 0.3942 -0.919 74.7208 162.4216)" width="0.808" height="8.2"/></g><g><rect x="75.151" y="58.237" transform="matrix(0.5423 0.8402 -0.8402 0.5423 86.9512 -34.9485)" width="0.807" height="8.201"/></g><g><rect x="78.661" y="46.428" transform="matrix(-0.9776 -0.2105 0.2105 -0.9776 145.7196 116.5704)" width="0.807" height="8.202"/></g><g><rect x="72.001" y="31.337" transform="matrix(-0.9715 -0.2368 0.2368 -0.9715 134.3574 87.0146)" width="0.808" height="8.2"/></g><g><rect x="61.943" y="27.367" transform="matrix(-0.5553 0.8317 -0.8317 -0.5553 123.1344 -2.9117)" width="0.806" height="8.201"/></g><g><rect x="51.662" y="13.763" transform="matrix(-0.173 0.9849 -0.9849 -0.173 78.6678 -30.3269)" width="0.807" height="8.201"/></g><g><rect x="29.193" y="51.787" transform="matrix(-0.6686 -0.7437 0.7437 -0.6686 7.8218 115.2595)" width="0.806" height="8.2"/></g><g><rect x="29.349" y="66.799" transform="matrix(-0.207 0.9783 -0.9783 -0.207 105.2751 56.4717)" width="0.807" height="8.201"/></g><g><rect x="44.043" y="63.429" transform="matrix(0.1401 0.9901 -0.9901 0.1401 105.0865 14.0618)" width="0.809" height="8.202"/></g><g><rect x="43.066" y="75.148" transform="matrix(-0.9034 0.4287 -0.4287 -0.9034 116.7147 132.2085)" width="0.806" height="8.2"/></g><g><rect x="67.054" y="65.461" transform="matrix(-0.4901 0.8716 -0.8716 -0.4901 161.1549 44.8578)" width="0.809" height="8.202"/></g><g><rect x="70.161" y="46.558" transform="matrix(-0.9025 0.4307 -0.4307 -0.9025 156.0675 65.9896)" width="0.807" height="8.203"/></g><g><rect x="64.138" y="18.078" transform="matrix(-0.938 -0.3466 0.3466 -0.938 117.3938 65.3537)" width="0.806" height="8.201"/></g><g><rect x="45.919" y="23.436" transform="matrix(-0.9958 -0.092 0.092 -0.9958 89.9173 59.2142)" width="0.807" height="8.2"/></g><g><rect x="32.513" y="32.825" transform="matrix(-0.946 -0.3242 0.3242 -0.946 52.0849 82.5279)" width="0.807" height="8.2"/></g><path d="M31.667,13.103c0.604,3.453-1.705,6.74-5.157,7.348c-3.453,0.604-6.742-1.707-7.347-5.16  c3.517-2.293,7.482-3.812,11.632-4.461C31.229,11.523,31.526,12.294,31.667,13.103z M29.653,13.021  c-2.875,0.604-5.633,1.662-8.175,3.135c1.082,2.174,3.721,3.061,5.896,1.979C29.261,17.195,30.217,15.05,29.653,13.021z"/><g><path d="M13.903,18.398c-1.443,1.527-2.547,3.34-3.236,5.322c1.295,1.182,3.302,1.09,4.482-0.205s1.09-3.303-0.206-4.484   C14.64,18.753,14.288,18.541,13.903,18.398z"/></g><g><path d="M21.631,30.636c0-1.379-1.118-2.498-2.498-2.498s-2.5,1.119-2.5,2.498c0,1.383,1.12,2.5,2.5,2.5   S21.631,32.019,21.631,30.636L21.631,30.636z"/></g></svg>
