<svg xmlns="http://www.w3.org/2000/svg" viewBox="0 0 100 100"><path d="M23.65 50.06a7.928 7.928 0 0 0-2.5-7.672 1.597 1.597 0 0 1 .783-2.772 7.93 7.93 0 0 0 6.113-10.525 1.594 1.594 0 0 1 2.015-2.052 7.935 7.935 0 0 0 8.445-12.84 36.775 36.775 0 0 1 5.243-1.39c20.113-3.787 39.49 9.45 43.277 29.564 3.785 20.116-9.45 39.49-29.564 43.278-20.115 3.787-39.49-9.45-43.277-29.564a7.932 7.932 0 0 0 9.464-6.026zm-6.99 8.137c4.95 18.748 24.163 29.932 42.913 24.98 18.748-4.953 29.934-24.166 24.98-42.915-4.95-18.75-24.164-29.934-42.912-24.982a.533.533 0 0 1-.075.02c1 2.115 1.22 4.516.618 6.775-1.404 5.273-6.82 8.412-12.094 7.008.034.12.066.24.096.365 1.3 5.3-1.945 10.65-7.247 11.95a9.882 9.882 0 0 1 2.82 6.188c.415 5.443-3.66 10.193-9.1 10.61z"/><path d="M65.488 49.23c0 8.217-6.664 14.88-14.883 14.88-8.218 0-14.88-6.663-14.88-14.88 0-8.22 6.662-14.88 14.88-14.88 8.22 0 14.883 6.66 14.883 14.88zm1.948 0c0-9.295-7.533-16.83-16.83-16.83-9.294 0-16.83 7.535-16.83 16.83 0 9.293 7.535 16.83 16.83 16.83 9.296 0 16.83-7.537 16.83-16.83zM52.798 77.465l-.742-.318 3.232-7.536.743.32zM78.775 59.775l.437.678-6.89 4.448-.438-.677zM78.594 54.624l-.79-.17 1.727-8.018.79.17zM71.83 39.52l-.786-.19 1.942-7.967.785.192zM65.976 33.41l-.447.67-6.822-4.554.448-.67zM56.175 18.174l-.14.795-8.077-1.42.14-.795zM26.817 58.924l-.54-.6 6.1-5.482.54.6zM33.85 71.356l-.167.79-8.023-1.698.167-.79zM48.456 66.555l.113.8-8.122 1.15-.113-.8zM45.593 82.782l-.728.346-3.516-7.408.728-.346zM71.236 71.22l-.397.705-7.15-4.02.397-.705zM72.695 54.19l-.73.347-3.532-7.403.73-.348zM63.498 26.166l-.756-.28 2.843-7.692.756.28zM46.347 31.652l-.803-.074.754-8.166.804.075zM31.97 40.935l-.764-.262 2.658-7.757.764.262zM31.667 13.103a6.35 6.35 0 0 1-5.157 7.348 6.35 6.35 0 0 1-7.347-5.16 29.697 29.697 0 0 1 11.632-4.46 6.33 6.33 0 0 1 .872 2.273zm-2.014-.082a27.633 27.633 0 0 0-8.175 3.136 4.398 4.398 0 0 0 8.175-3.135zM13.903 18.398a14.85 14.85 0 0 0-3.236 5.322c1.295 1.182 3.302 1.09 4.482-.205a3.174 3.174 0 0 0-1.247-5.117zM21.63 30.636a2.498 2.498 0 0 0-4.997 0 2.5 2.5 0 0 0 4.998 0z"/></svg>