<svg xmlns="http://www.w3.org/2000/svg" viewBox="0 0 100 100"><path fill="#fff" d="M82.65 17.788H33.79c1.36 1.555 2.213 3.553 2.268 5.763H82.65c6.356 0 11.526 5.178 11.526 11.53v23.05c0 6.36-5.17 11.53-11.526 11.53h-7.476l-.274 2.57c-.357 3.35-.398 7.856.88 12.458-5.898-2.63-8.83-10.34-9.69-13.03l-.643-2h-40.43c-6.356 0-11.526-5.172-11.526-11.527V44.497a9.137 9.137 0 0 1-5.76-3.72V58.13c0 9.534 7.76 17.29 17.29 17.29h36.29c2.12 5.45 8.5 16.044 18.67 15.925 3.325.08 5.508-.467 5.508-.467-1.34-1.538-2.585-3.768-2.585-3.768-2.066-3.897-2.535-8.19-2.44-11.69h2.193c9.536 0 17.29-7.756 17.29-17.29V35.077c0-9.534-7.755-17.29-17.29-17.29z"/><path fill="#fff" d="M26.94 20.4h-8.375v-8.376a3.377 3.377 0 0 0-6.754 0V20.4H3.44a3.377 3.377 0 0 0 0 6.753h8.375v8.375a3.377 3.377 0 0 0 6.754 0v-8.375h8.37a3.377 3.377 0 0 0 0-6.754z"/></svg>