<svg xmlns="http://www.w3.org/2000/svg" fill="#fff" viewBox="0 0 300 300"><path d="M207.577 89.997l-1.194-9.036c-1.424-9.66-5.412-20.06-12.778-26.74-7.48-6.776-16.89-12.28-26.84-14.39a19.862 19.862 0 0 0-.973-.185l-.292-.044-30.313-.202-1.086.828-.01.01a56.97 56.97 0 0 1-4.225 2.914c-1.822 1.152-3.994 2.665-6.168 3.024l-.11.015h-.02c-1.82.04-3.924-1.05-5.55-1.75a68.927 68.927 0 0 1-5.402-2.626l-.113-.062-.026-.014-.003-.003-.9-.498h-19.15v37.076h20.31l1.145-1.05c1.16-1.135 2.52-2.126 3.845-3.057 1.03-.726 2.095-1.408 3.217-1.98.836-.43 1.89-.99 2.86-.976h.02c2.28.053 4.277 2.736 5.477 4.374 1.646 2.245 2.98 4.724 4.14 7.25l.03 1.74c0 8.21.22 16.42.26 24.63.06 12.275.043 24.553-.25 36.824-.506 21.248-2.266 42.485-3.697 63.685a14564.216 14564.216 0 0 1-2.508 36.406c-.21 3-.64 6.077-.64 9.085l-.38 5.354h43.994l-.528-5.48c-.163-.327-.097-1.008-.133-1.398-.05-.537-.103-1.075-.15-1.612a2090.748 2090.748 0 0 1-1.648-18.744c-1.002-12.03-1.91-24.07-2.65-36.12-.686-11.143-1.275-22.307-1.384-33.475-.115-11.6.172-23.21.492-34.805.22-7.98.493-15.955.805-23.93.144-3.71.297-7.42.46-11.13.133-3.03.422-6.094.422-9.128l.262-5.25h-.02c1.09-3.47 2.84-7.976 6.387-9.612 3.32-1.53 7.2.613 9.92 2.463L207.57 90zm-68.38 128.71a9238.97 9238.97 0 0 0 2.32-34.858c.633-9.828 1.336-19.658 1.715-29.49.83-21.59.61-43.236.313-64.83h12.158c-1.034 22.64-1.852 45.313-1.952 67.98-.1 23.924 1.74 47.86 3.67 71.693.576 7.136 1.187 14.27 1.84 21.4h-22.27c.46-6.554 1.292-18.45 2.21-31.9 1.392-20.41-.918 13.45 0 0zm35.75-157.297c-9.86-.017-14.962 9.8-17.073 18.12h-17.17c-3.055-6.647-8.323-16.12-16.73-16.275h.005l-.18-.002c-5.27.01-10.265 3.835-14.12 7.062h-9.262V49.238h9.11c2.16 1.134 4.37 2.19 6.637 3.097 2.514 1.007 5.33 2.05 8.083 1.823 2.555-.212 4.99-1.426 7.196-2.65 2.21-1.225 4.327-2.62 6.378-4.096l26.98.18c5.724 1.114 11.27 3.8 16.136 6.947 3.18 2.053 6.406 4.412 8.925 7.26 2.588 2.928 4.438 6.458 5.84 10.084l-8.676-6.092-.02-.014c-3.55-2.42-7.686-4.373-12.065-4.37-2-.005 1.885 0 0 0z"/></svg>