<svg xmlns="http://www.w3.org/2000/svg" version="1" viewBox="0 0 100 100"><path d="M89.596 78.047L63.24 53.51A3.76 3.76 0 0 0 62 53a10.668 10.668 0 0 1-5.456-2.96l-14.7-15.008a.313.313 0 0 1-.003-.44c.497-.49.498-1.288.007-1.78l-3.502-3.502c-.617-.616-1.052-1.403-1.186-2.264-1.38-8.925 8.07-14.297 10.47-14.562a.884.884 0 0 0-.07-1.762l-.89-.066c-9.06-.672-21.405 10.48-27.32 17.412a4.655 4.655 0 0 0-1.115 2.872l-.054 1.676c0 1.126-.49 1.854-1.213 2.347-.837.57-1.917.618-2.87.277-.57-.203-1.208-.337-1.487-.058l-3.296 3.295a1.428 1.428 0 0 0 0 2.02l7.195 7.195a1.428 1.428 0 0 0 2.02 0l3.293-3.295a1.43 1.43 0 0 0 .003-2.017 1.76 1.76 0 0 1-.494-1.627c.15-.663.416-1.297.904-1.785 1.717-1.716 3.347-2.59 4.813-2.952 1.437-.355 2.954.096 4 1.143l3.224 3.22c.49.49 1.285.49 1.775 0l.19-.19a.317.317 0 0 1 .442 0l15.063 14.62c1.527 1.487 2.54 3.405 2.993 5.49.088.407.255.82.5 1.207L79.78 87.864c1.602 1.603 3.813 1.99 4.938.865l5.744-5.747c1.125-1.124.738-3.335-.864-4.937z"/></svg>