<svg xmlns="http://www.w3.org/2000/svg" viewBox="0 0 100 100"><path d="M-306.94-2245.246a3.95 3.95 0 0 1-7.898 0v-22.286h-13.995v-45.37c0-9.912 8.032-17.944 17.943-17.944 9.912 0 17.944 8.032 17.944 17.943v45.37h-13.995v22.287zm-13.04-32.636h2.655v-35.066h-2.655v35.066zm18.17-35.067h-2.645v35.07h2.644v-35.067zM20.834 40.724L5.52 22.393a4.266 4.266 0 0 1 .507-5.993c1.813-1.477 4.472-1.266 5.99.548L27.33 35.3l11.518-9.598 30.777 36.873c2.53.19 5.062.4 7.572.738a67.144 67.144 0 0 1 10.97 2.36 30.28 30.28 0 0 1 9.09 4.58 4.255 4.255 0 0 1 1.73 3.437 4.32 4.32 0 0 1-1.73 3.44 30.202 30.202 0 0 1-9.09 4.575 66.713 66.713 0 0 1-10.97 2.364c-5.02.63-10.062.946-15.125.946s-10.125-.316-15.187-.95a67.757 67.757 0 0 1-10.927-2.363 31.06 31.06 0 0 1-9.112-4.576 4.4 4.4 0 0 1-1.688-3.44c0-1.096.4-2.15 1.14-2.91L9.274 50.36l11.56-9.638zm3.692.337l-11.518 9.637 15.314 18.375c.886 1.03.822 2.508-.105 3.52-.253.297-.443.698-.443 1.097 0 .505.254.99.676 1.29a27.795 27.795 0 0 0 8.29 4.216 65.984 65.984 0 0 0 10.525 2.256c4.915.612 9.85.908 14.807.908 4.936 0 9.893-.295 14.81-.907a65.72 65.72 0 0 0 10.503-2.256c2.996-.93 5.8-2.364 8.31-4.22a1.6 1.6 0 0 0 .634-1.288c0-.506-.23-.99-.636-1.288a27.348 27.348 0 0 0-8.31-4.22A65.37 65.37 0 0 0 76.88 65.93a115.61 115.61 0 0 0-8.542-.76L38.51 29.393l-11.537 9.642-2.447 2.024zm1.287-4.497L10.5 18.173a2.3 2.3 0 0 0-3.207-.297c-.97.803-1.118 2.28-.296 3.25l15.314 18.35 3.505-2.912zM37.435 76.79c3.333.99 6.687 1.73 10.125 2.17 4.81.594 9.66.93 14.512.93 4.83 0 9.662-.336 14.514-.93.463-.06.906-.144 1.39-.165l-2.698-1.603c-4.387.527-8.775.78-13.205.78-4.768 0-9.533-.297-14.26-.886a62.09 62.09 0 0 1-9.786-2.11c-.886-.254-1.73-.59-2.573-.948l-1.624 1.326a22.442 22.442 0 0 0 3.605 1.436z"/></svg>