<svg xmlns="http://www.w3.org/2000/svg" fill="#fff" viewBox="0 0 75 75"><path d="M50.02 63.977l-.95 3.882c-2.847 1.12-5.125 1.98-6.82 2.57-1.695.59-3.668.88-5.914.88-3.45 0-6.133-.845-8.047-2.525-1.92-1.685-2.876-3.82-2.876-6.41 0-1.005.07-2.036.215-3.087.144-1.05.375-2.238.69-3.563l3.564-12.6c.316-1.208.586-2.353.8-3.435.22-1.074.325-2.062.325-2.953 0-1.61-.33-2.735-.996-3.368-.664-.634-1.93-.954-3.81-.954a9.98 9.98 0 0 0-2.83.432 38.34 38.34 0 0 0-2.493.82l.954-3.886a89.597 89.597 0 0 1 6.695-2.438c2.133-.678 4.15-1.018 6.055-1.018 3.426 0 6.07.828 7.926 2.484 1.856 1.657 2.786 3.805 2.786 6.453 0 .546-.063 1.51-.192 2.89-.128 1.383-.367 2.65-.714 3.8l-3.543 12.56a33.56 33.56 0 0 0-.778 3.457c-.236 1.29-.35 2.273-.35 2.933 0 1.668.37 2.805 1.118 3.41.75.606 2.042.907 3.88.907.86 0 1.842-.153 2.93-.454 1.09-.3 1.883-.566 2.37-.796zm.902-52.704c0 2.188-.824 4.055-2.48 5.59-1.653 1.543-3.645 2.313-5.973 2.313-2.34 0-4.337-.77-6.01-2.313-1.667-1.535-2.503-3.402-2.503-5.59 0-2.183.836-4.054 2.504-5.61 1.67-1.554 3.67-2.327 6.005-2.327 2.326 0 4.32.777 5.97 2.328 1.657 1.555 2.48 3.426 2.48 5.61zm0 0"/></svg>