<svg xmlns="http://www.w3.org/2000/svg" viewBox="0 0 100 100"><path opacity=".5" d="M61.238 47.047a14.333 14.333 0 0 0-2.96-4.325 14.363 14.363 0 0 0-4.324-2.96l-1.94 1.94-1.348 1.348-1.4 1.4c-.26.258-.48.54-.673.835 1.857.12 3.595.87 4.923 2.2 1.366 1.364 2.076 3.122 2.194 4.91a7.648 7.648 0 0 1-.375 2.946 7.612 7.612 0 0 1-1.752 2.918c-.026.025-.04.056-.065.08l-1.59 1.588-2.203 2.204-2.056 2.057-5.36 5.36a7.622 7.622 0 0 1-5.428 2.246 7.63 7.63 0 0 1-5.428-2.25c-1.448-1.447-2.246-3.375-2.246-5.425s.797-3.98 2.247-5.428l5.367-5.368a17.023 17.023 0 0 1-.66-2.91c-.1-.732-.17-1.47-.172-2.208-.01-1.358.158-2.715.472-4.044l-9.77 9.77c-5.625 5.626-5.625 14.75 0 20.377a14.37 14.37 0 0 0 10.188 4.22c3.69 0 7.376-1.407 10.19-4.22l9.754-9.755 1.453-1.45a14.402 14.402 0 0 0 2.11-2.71 14.28 14.28 0 0 0 1.86-4.835c.16-.868.247-1.747.247-2.628a14.424 14.424 0 0 0-.368-3.203 14.06 14.06 0 0 0-.888-2.68z"/><path opacity=".5" d="M74.307 26.694a14.368 14.368 0 0 0-10.188-4.22c-3.69 0-7.377 1.407-10.19 4.22l-9.754 9.755-1.453 1.452a14.434 14.434 0 0 0-2.11 2.71 14.325 14.325 0 0 0-2.11 7.46c0 1.076.13 2.15.37 3.204.206.914.502 1.81.89 2.68.697 1.565 1.673 3.038 2.96 4.323s2.757 2.26 4.324 2.96l1.94-1.94 1.347-1.347 1.398-1.398c.26-.26.482-.542.675-.838-1.858-.12-3.596-.87-4.925-2.2-1.368-1.366-2.078-3.128-2.196-4.92a7.7 7.7 0 0 1 .378-2.936 7.555 7.555 0 0 1 1.752-2.916c.025-.025.04-.055.066-.08l1.588-1.59 2.205-2.203 2.057-2.056 5.358-5.357a7.626 7.626 0 0 1 5.43-2.25c2.05 0 3.977.8 5.425 2.25 2.994 2.992 2.994 7.862.002 10.854l-5.37 5.37c.31.952.527 1.925.662 2.91.1.732.167 1.47.17 2.207.01 1.36-.157 2.715-.474 4.044l9.77-9.768c5.626-5.627 5.626-14.75 0-20.378z"/></svg>
