<svg xmlns="http://www.w3.org/2000/svg" viewBox="0 0 100 100"><path opacity=".5" d="M61.238 47.047a14.333 14.333 0 0 0-2.96-4.325 14.363 14.363 0 0 0-4.324-2.96l-1.94 1.94-1.348 1.348-1.4 1.4a5.1 5.1 0 0 0-.673.835c1.857.12 3.595.87 4.923 2.2 1.366 1.364 2.076 3.122 2.194 4.91a7.648 7.648 0 0 1-.375 2.946 7.612 7.612 0 0 1-1.752 2.92c-.026.03-.04.06-.065.08l-1.59 1.59-2.203 2.21L47.67 64.2l-5.36 5.36a7.622 7.622 0 0 1-5.43 2.247 7.63 7.63 0 0 1-5.43-2.25 7.62 7.62 0 0 1-2.25-5.425c0-2.05.795-3.98 2.245-5.43l5.367-5.367a17.023 17.023 0 0 1-.66-2.91c-.1-.732-.17-1.47-.17-2.21a17.05 17.05 0 0 1 .47-4.042l-9.77 9.77c-5.625 5.63-5.625 14.75 0 20.38a14.37 14.37 0 0 0 10.19 4.22 14.37 14.37 0 0 0 10.19-4.22l9.752-9.755 1.452-1.45a14.402 14.402 0 0 0 2.11-2.71 14.28 14.28 0 0 0 1.86-4.836 14.5 14.5 0 0 0 .246-2.63 14.424 14.424 0 0 0-.37-3.203 14.06 14.06 0 0 0-.887-2.68z"/><path opacity=".5" d="M74.307 26.694a14.368 14.368 0 0 0-10.188-4.22 14.36 14.36 0 0 0-10.19 4.22l-9.76 9.756-1.45 1.45a14.434 14.434 0 0 0-2.11 2.71 14.325 14.325 0 0 0-2.11 7.46c0 1.074.13 2.15.37 3.202.2.914.5 1.81.89 2.68.692 1.565 1.67 3.038 2.96 4.323s2.752 2.26 4.32 2.96l1.94-1.94 1.346-1.347 1.4-1.398c.26-.26.482-.542.675-.838-1.857-.12-3.595-.87-4.924-2.2-1.363-1.366-2.073-3.128-2.19-4.92a7.7 7.7 0 0 1 .377-2.936 7.555 7.555 0 0 1 1.752-2.918c.023-.025.04-.055.064-.08l1.59-1.59 2.204-2.203 2.056-2.057 5.36-5.357a7.626 7.626 0 0 1 5.43-2.25c2.05 0 3.978.8 5.426 2.25 2.993 3 2.993 7.87 0 10.86l-5.37 5.37c.31.954.527 1.927.66 2.91.1.734.17 1.47.17 2.21a16.89 16.89 0 0 1-.472 4.043l9.77-9.77c5.626-5.626 5.626-14.75 0-20.377z"/></svg>