<svg xmlns="http://www.w3.org/2000/svg" viewBox="0 0 100 100" fill="#fff"><path fill-rule="evenodd" clip-rule="evenodd" d="M99.048 89.838a3.258 3.258 0 0 1 0 4.604l-4.606 4.606a3.254 3.254 0 0 1-4.6 0L64.275 73.484a3.242 3.242 0 0 1-.738-1.206c-6.612 4.83-14.735 7.715-23.545 7.715-22.098 0-40.008-17.91-40.008-40.004 0-22.1 17.91-40.01 40.008-40.01 22.093 0 40 17.91 40 40 0 8.81-2.885 16.93-7.71 23.55a3.15 3.15 0 0 1 1.2.74L99.05 89.83zM39.993 13.32c-14.732 0-26.67 11.94-26.67 26.67 0 14.728 11.938 26.67 26.67 26.67 14.728 0 26.67-11.942 26.67-26.67 0-14.73-11.942-26.67-26.67-26.67z"/></svg>