<svg style="fill: rgba(0, 0, 0, 0.4)" xmlns="http://www.w3.org/2000/svg" xmlns:xlink="http://www.w3.org/1999/xlink" version="1.1" x="0px" y="0px" viewBox="0 0 100 100" enable-background="new 0 0 100 100" xml:space="preserve"><path fill-rule="evenodd" clip-rule="evenodd" d="M99.048,89.838c1.27,1.272,1.27,3.334,0,4.604l-4.606,4.606  c-1.27,1.27-3.331,1.27-4.601,0L64.276,73.484c-0.348-0.352-0.58-0.766-0.738-1.206c-6.612,4.83-14.735,7.715-23.545,7.715  c-22.098,0-40.008-17.91-40.008-40.004c0-22.093,17.91-40.004,40.008-40.004c22.093,0,40,17.911,40,40.004  c0,8.813-2.885,16.936-7.711,23.549c0.437,0.155,0.854,0.388,1.202,0.738L99.048,89.838z M39.993,13.32  c-14.732,0-26.669,11.94-26.669,26.669c0,14.729,11.937,26.671,26.669,26.671c14.728,0,26.67-11.942,26.67-26.671  C66.663,25.26,54.721,13.32,39.993,13.32z"></path></svg>
