<svg xmlns="http://www.w3.org/2000/svg" fill="white" viewBox="0 0 100 100"><path d="M95.948 58.693L62.236 9.725a2.634 2.634 0 0 0-2.13-1.142c-.86-.033-1.66.384-2.167 1.07L15.97 66.472l-.538-.782a2.64 2.64 0 0 0-3.67-.678L4.73 69.852c-.578.396-.974 1.006-1.1 1.694s.023 1.4.42 1.978l11.537 16.754a2.644 2.644 0 0 0 3.672.678l7.03-4.842a2.64 2.64 0 0 0 .677-3.672l-.538-.78 13.316-3.704 1.615 5.617a2.642 2.642 0 0 0 3.267 1.806l15.88-4.562a2.643 2.643 0 0 0 1.81-3.267l-1.562-5.434 33.73-9.383a2.635 2.635 0 0 0 1.463-4.04zm-77.51 26.414L9.897 72.702l2.686-1.847.192.278 8.147 11.834.202.292-2.683 1.847zm27.268-5.53l-.873-3.035 10.833-3.015.846 2.94-10.806 3.11zm12.636-12.272l-18.9 5.256-16.18 4.5-.927.26-3.77-5.476.573-.775 40.848-55.302L89.502 58.64l-31.16 8.665z"/><path d="M58.303 25.633a2.25 2.25 0 0 0-3.154.41l-30.627 39.77a2.25 2.25 0 0 0 3.564 2.744l30.627-39.77a2.25 2.25 0 0 0-.41-3.154z"/></svg>
