<svg xmlns="http://www.w3.org/2000/svg" fill="#fff" viewBox="0 0 100 100"><path d="M95.948 58.693L62.236 9.725a2.634 2.634 0 0 0-2.13-1.142c-.86-.033-1.66.384-2.167 1.07l-41.97 56.82-.54-.783a2.64 2.64 0 0 0-3.67-.678l-7.03 4.84c-.58.396-.98 1.006-1.1 1.694s.02 1.4.42 1.978l11.53 16.754a2.644 2.644 0 0 0 3.672.678l7.03-4.842a2.64 2.64 0 0 0 .676-3.672l-.537-.78 13.317-3.704 1.614 5.617a2.642 2.642 0 0 0 3.267 1.806l15.88-4.56a2.643 2.643 0 0 0 1.81-3.262l-1.56-5.436 33.73-9.383a2.635 2.635 0 0 0 1.464-4.04zm-77.51 26.414l-8.54-12.405 2.685-1.847.192.278 8.147 11.834.202.292-2.684 1.84zm27.268-5.53l-.873-3.035 10.833-3.015.846 2.94-10.806 3.11zm12.636-12.272l-18.9 5.256-16.18 4.5-.927.26-3.77-5.47.573-.774 40.848-55.3 29.516 42.87-31.16 8.665z"/><path d="M58.303 25.633a2.25 2.25 0 0 0-3.154.41l-30.63 39.77a2.25 2.25 0 0 0 3.56 2.744l30.626-39.77a2.25 2.25 0 0 0-.41-3.154z"/></svg>