<svg xmlns="http://www.w3.org/2000/svg" viewBox="0 0 55 55"><g fill="none" stroke="#000" stroke-linecap="round" stroke-linejoin="round" stroke-miterlimit="10"><path stroke-width=".75" d="M28.1 26.4c-.2.4-.4.8-.8 1.2-.3.3-.6.8-.8 1.2-.2.4-.3.9-.3 1.4 0 .5-.1.9-.3 1.4-.2.4-.4.8-.8 1.2-.3.3-.6.8-.8 1.2-.2.4-.3.9-.3 1.4 0 .5-.1.9-.3 1.4-.2.4-.4.8-.8 1.2-.3.3-.6.8-.8 1.2.8.5 1.7.9 2.6 1.1.2-.4.4-.8.8-1.2.3-.3.6-.8.8-1.2.2-.4.3-.9.3-1.4 0-.5.1-.9.3-1.4.2-.4.4-.8.8-1.2.3-.3.6-.8.8-1.2.2-.4.3-.9.3-1.4 0-.5.1-.9.3-1.4.2-.4.4-.8.8-1.2.3-.3.6-.8.8-1.2-.9-.6-1.7-.9-2.6-1.1z"/><path stroke-width="1.25" d="M46 33.3c-.4-1-2.1-1.4-2.6-2.3-.5-1 .2-2.6-.3-3.5-.6-.9-2.3-1-3-1.9-.6-.9-.2-2.6-.9-3.4-.7-.8-2.5-.6-3.2-1.4-.8-.8-.6-2.5-1.4-3.2-.8-.7-2.5-.2-3.4-.9-.9-.6-1-2.4-1.9-3-.9-.6-2.5.2-3.5-.3s-1.3-2.2-2.3-2.6"/><path stroke-width="1.25" d="M24.8 7.4L7.4 49.3l41.9-17.4c-4.4-10.7-13-19.7-24.5-24.5z"/><path stroke-width=".75" d="M40.8 35.5c-.3-.8-.7-1.6-1.4-2.2-2.2-2.2-5.8-2.2-8 0-1.8 1.8-2.1 4.4-1.1 6.5"/><path stroke-width=".75" d="M39.5 36c-.2-.6-.5-1.2-1-1.7-1.7-1.7-4.4-1.7-6 0-1.3 1.3-1.6 3.4-.7 5M17.2 25.6c1.5-.1 3.1.5 4.2 1.7 2.2 2.2 2.2 5.8 0 8s-5.8 2.2-8 0c0 0-.1-.1-.1-.2"/><path stroke-width=".75" d="M13.9 33.6c.2.2.3.4.5.6 1.7 1.7 4.4 1.7 6 0 1.7-1.7 1.7-4.4 0-6-1-1-2.5-1.4-3.8-1.2M15.1 38.5zm3.1 3.1c-.3-.7-.7-1.3-1.2-1.8s-1.2-1-1.8-1.2c-.5-.2-1.2 0-1.4.6-.2.5 0 1.2.6 1.4.1 0 .2.1.3.1l-1.6 1.6c-.4.4-.4 1.1 0 1.5.4.4 1.1.4 1.5 0l1.6-1.6c0 .1.1.2.1.3.2.5.8.8 1.4.6.4-.3.7-.9.5-1.5zM22.2 21.1zm3.1-3.1c-.7.3-1.3.7-1.8 1.2s-1 1.2-1.2 1.8c-.2.5 0 1.2.6 1.4.5.2 1.2 0 1.4-.6 0-.1.1-.2.1-.3l1.6 1.6c.4.4 1.1.4 1.5 0 .4-.4.4-1.1 0-1.5L25.9 20c.1 0 .2-.1.3-.1.5-.2.8-.8.6-1.4s-1-.7-1.5-.5zM36.9 24.1zm0 4.4c.3-.7.4-1.4.4-2.2 0-.8-.2-1.5-.4-2.2-.2-.5-.8-.8-1.4-.6-.5.2-.8.8-.6 1.4 0 .1.1.2.1.3h-2.3c-.6 0-1.1.5-1.1 1.1 0 .6.5 1.1 1.1 1.1H35c0 .1-.1.2-.1.3-.2.5 0 1.2.6 1.4.6.2 1.2-.1 1.4-.6zM23.9 15v1.4M20.4 24.1h1.4M18.8 38.7h1.5M39.7 29.4v1.4M24.5 25.5v1.4M29 18.7l1 1M20 40.6l1 1M30.5 23h1.4M31.4 30.1h1.4M10.7 46l1-1"/></g></svg>