<svg xmlns="http://www.w3.org/2000/svg" viewBox="0 0 100 100"><path d="M-297.462 172.44a1.5 1.5 0 0 0 1.6-.396c.045-.048 4.52-4.81 10.915-4.81 1.43 0 2.87.24 4.28.718.158.053.32.08.48.08h.02a1.5 1.5 0 0 0 1.157-2.456c-1.18-1.93-10.117-15.452-29.004-15.452-3.718 0-7.625.542-11.612 1.61-28.017 7.507-27.808 32.196-27.803 32.444a1.5 1.5 0 0 0 1.5 1.466c.422 0 .834-.178 1.125-.505.042-.047 4.226-4.675 10.416-4.675 1.426 0 2.873.245 4.303.73.562.19 1.19.026 1.592-.415.043-.047 4.358-4.71 10.47-4.71.695 0 1.393.062 2.09.182l3.374 11.812-.022 29.1-.192-.057c-1.686-.513-3.428-1.043-6.863-1.043-3.436 0-5.18.53-6.865 1.043-1.617.492-3.145.957-6.283.957-3.137 0-4.664-.465-6.28-.957-1.686-.513-3.43-1.043-6.864-1.043a1 1 0 0 0 0 2c3.138 0 4.665.465 6.282.957 1.685.514 3.428 1.044 6.863 1.044 3.436 0 5.18-.53 6.865-1.043 1.617-.49 3.145-.956 6.283-.956 3.137 0 4.664.465 6.28.957 1.687.514 3.43 1.044 6.864 1.044 3.437 0 5.18-.53 6.868-1.043 1.618-.49 3.146-.956 6.286-.956s4.67.465 6.287.957c1.687.514 3.43 1.044 6.868 1.044a1 1 0 0 0 0-2c-3.14 0-4.668-.465-6.286-.957-1.688-.513-3.432-1.043-6.87-1.043s-5.18.53-6.867 1.043c-1.618.492-3.146.957-6.286.957-.16 0-.297-.006-.45-.008l.01-29.857a.983.983 0 0 0-.04-.276l-3.658-12.895c1.77-1.39 4.952-3.332 8.927-3.332 1.415 0 2.842.25 4.24.743zm-15.432.555l-4.982-18.593.258-.06c11.902 1.46 17.052 10.358 18.864 14.65a15.332 15.332 0 0 0-2.95-.296c-5.162 0-9.148 2.61-11.19 4.3zm2.33 16.318l1.63-.214v1.14h-1.63v-.927zm1.284-2.186l-1.416.186-.254-.89 1.36-.387.31 1.09zm-2.22-2.627l-2.19-7.668c.485.138 1 .017 1.38-.313l2.168 7.593-1.358.387zm27.833-20.215a15.667 15.667 0 0 0-1.28-.052c-5.503 0-9.727 2.83-11.77 4.53-1.577-3.84-6.027-12.148-15.835-15.342 1.54-.184 3.06-.296 4.538-.296 13.014 0 20.843 7 24.347 11.16zM-344.1 180.63c.96-5.862 4.702-17.656 19.197-23.903-6.85 7.613-6.607 16.954-6.06 21.12a15.99 15.99 0 0 0-3.426-.38c-4.155 0-7.5 1.64-9.71 3.162zm15.043-3.39c-.592-4.568-.668-14.982 9.015-22.263l.232-.067 4.956 18.497a15.348 15.348 0 0 0-3.17-.336c-5.037 0-8.95 2.48-11.033 4.17zm18.474 40.452l.018-25.45h1.63l-.008 25.702c-.61-.065-1.15-.15-1.64-.252zM-220.618 169.694a.998.998 0 0 0 1.153-.11l9.057-7.808a1 1 0 0 0-.153-1.623l-19.053-11.002a1.004 1.004 0 0 0-1.483.68l-2.237 11.748a1 1 0 0 0 .482 1.053l3.444 1.99-2.82 4.883a58.733 58.733 0 0 0-5.625-.275c-10.802 0-21.736 3.17-21.736 9.233 0 .057.003.113.01.168l.347 3.146c-1.653 2.555-2.528 5.437-2.528 8.407 0 5.116 1.052 9.49 4.963 13.223l1.59 14.152c.208 4.684 14.477 4.922 17.354 4.922s17.145-.238 17.354-4.922l4.37-38.927c.006-.056.01-.11.01-.167 0-3.397-3.645-6.346-9.61-7.88l1.66-2.874 3.448 1.988zm-37.15 29.6c-1.602-2.495-1.99-5.638-1.99-9.114 0-1.65.317-3.27.92-4.812 0 0 .648 8.584 1.173 10.276.126.407.277.81.452 1.21.023.054.045.11.07.163.19.414.397.824.646 1.223.206.33.437.642.68.945.11.14.224.275.34.41.102.114.21.223.315.333 2.125 2.243 5.303 3.732 9.525 4.412 1.13.18 2.23.27 3.28.27 13.07 0 14.9-14.04 14.91-14.15 0-.01.23-1.36 1.07-1.36.07 0 .13 0 .2.01.24.04.56.13.67.32.15.24.07.68-.01.92-2.56 8.97-5.43 15.83-16.93 15.83-.84 0-1.73-.04-2.65-.12-3.432-.29-6.388-1.4-8.734-3.155-1.366-1.02-3.02-2.18-3.937-3.61zm38.65-20.905l-4.357 38.815c-.842.81-5.812 2.27-14.376 2.27-8.565 0-13.535-1.46-14.376-2.27l-1.318-11.735c2.365 1.42 5.158 2.324 8.276 2.59.97.08 1.92.12 2.82.12 13.92 0 16.77-9.99 18.83-17.21.05-.15.49-1.43-.16-2.55-.29-.48-.88-1.09-2.1-1.28-2.44-.38-3.38 1.88-3.55 3.05 0 .03-.41 3.21-2.24 6.32-2.86 4.86-7.48 6.84-13.65 5.85-4.296-.69-7.34-2.26-9.098-4.652l-.757-6.742-1.17-10.424-.242-2.153c.122-2.93 7.78-6.164 18.733-6.164 1.343 0 2.66.063 3.962.154l-1.11 1.92a53.6 53.6 0 0 0-2.852-.083c-8.418 0-16.94 1.998-16.94 5.815s8.522 5.814 16.94 5.814 16.94-1.997 16.94-5.814c0-2.745-4.184-4.186-7.448-4.892l1.07-1.852c5.525 1.236 8.1 3.47 8.172 5.1zm-17.02-2.117l-4.336 7.505c-8.09-.393-12.317-2.54-12.317-3.746 0-1.332 5.13-3.815 14.94-3.815.578 0 1.14.037 1.712.056zm2.867 7.372l3.855-6.678c4.718.918 6.504 2.346 6.504 3.065 0 1.105-3.547 3-10.36 3.613zm7.973-17.808l-10.283 17.807c-.028.05-.032.102-.052.153-.714.03-1.447.05-2.22.05-.12 0-.23-.006-.35-.007l11.028-19.087a1 1 0 0 0-.365-1.367l-3.695-2.134 1.84-9.667 16.614 9.594-7.454 6.425-3.696-2.135a1 1 0 0 0-1.367.367z"/><path d="M-220.544 165.107c.24 0 .478-.086.666-.254l2.782-2.483a1 1 0 0 0-.166-1.613l-9.526-5.5a1 1 0 0 0-1.485.693l-.654 3.712a1 1 0 0 0 .485 1.04l7.396 4.27c.155.09.328.135.5.135zm-6.007-7.403l7.09 4.095-1.21 1.08-6.166-3.56.285-1.616zM-175.03 202.246h17.13a1.5 1.5 0 0 0 1.297-2.253c-6.293-16.54.057-38.602.122-38.824a1.5 1.5 0 0 0-2.282-1.665c-.726.49-17.77 12.37-17.77 41.242a1.5 1.5 0 0 0 1.502 1.5zm14.516-37.177c-1.532 7.3-3.588 21.7.468 34.177h-13.468c.41-18.386 8.304-29.292 13-34.178zM-149.92 202.246h18.395a1.5 1.5 0 0 0 1.213-2.382c-8.992-17.57-18.09-45.792-18.18-46.077a1.5 1.5 0 0 0-2.928.46v46.5c0 .828.67 1.5 1.5 1.5zm1.5-38.877c3.254 9.332 8.797 24.384 14.443 35.876h-14.443V163.37z"/><path d="M-118.92 219.37c-1.642 0-2.416-.41-3.312-.883-.99-.523-2.11-1.116-4.248-1.116-2.14 0-3.26.594-4.25 1.117-.895.474-1.67.884-3.31.884-1.162 0-1.887-.206-2.53-.494l6.23-2.497c.558-.234.92-.78.92-1.384v-4.5c0-.83-.67-1.5-1.5-1.5h-9.33V206c0-.83-.67-1.5-1.5-1.5h-11.75v-53.378a1 1 0 0 0-2 0V204.5h-10.112a1.5 1.5 0 0 0-.946.336l-5.105 4.15-.01.01h-9.247a1.5 1.5 0 0 0-.937 2.67l7.557 6.047c-.703.216-1.25.503-1.762.774-.896.474-1.67.884-3.31.884-1.638 0-2.41-.41-3.306-.883-.988-.523-2.107-1.116-4.243-1.116a1 1 0 0 0 0 2c1.638 0 2.41.41 3.306.885.988.523 2.107 1.116 4.243 1.116s3.256-.592 4.244-1.115c.895-.474 1.668-.884 3.308-.884s2.414.41 3.31.885c.987.523 2.106 1.116 4.243 1.116s3.257-.592 4.245-1.115c.896-.474 1.67-.884 3.31-.884s2.413.41 3.31.885c.987.523 2.107 1.116 4.245 1.116s3.258-.592 4.247-1.115c.896-.474 1.67-.884 3.312-.884 1.64 0 2.414.41 3.31.885.988.523 2.108 1.116 4.246 1.116 2.138 0 3.26-.592 4.248-1.115.896-.474 1.67-.884 3.313-.884s2.417.41 3.313.885c.99.523 2.11 1.116 4.248 1.116a1 1 0 0 0 0-2zm-46.16-11.87h21.83v1.496h-23.67l1.84-1.496zm19.236 10.988c-.896.474-1.67.884-3.31.884-1.642 0-2.415-.41-3.31-.884-.99-.523-2.11-1.116-4.246-1.116-2.137 0-3.257.593-4.245 1.116-.896.474-1.67.884-3.31.884-1.64 0-2.412-.41-3.307-.884-.568-.3-1.187-.62-2.01-.842l-7.062-5.65h44.224V214l-8.18 3.425a9.82 9.82 0 0 0-.997-.053c-2.138 0-3.258.592-4.247 1.116zM-37.06 220.302c-3.14 0-4.667-.465-6.285-.957-1.687-.513-3.43-1.043-6.868-1.043-2.915 0-4.61.382-6.086.81 1.63-22.87-7.097-39.996-10.165-45.23.354-.02.727-.035 1.13-.05l.78-.033c.352-.017.714-.046 1.088-.076.632-.05 1.286-.103 1.953-.09.927.02 1.885.096 3.043.195a20.2 20.2 0 0 0 1.295.053c.61.012 1.187.024 1.756.11.473.073.972.237 1.5.412.46.152.938.31 1.448.424.34.075.686.143 1.034.21.643.127 1.308.258 1.94.447.77.23 1.78.585 3.08 1.083a1 1 0 0 0 1.295-.586c.65-1.753-.542-2.41-1.254-2.8-.384-.212-.782-.43-1.17-.817-.647-.64-1.51-1.358-2.567-2.134l-.255-.188c-.75-.555-1.603-1.184-2.575-1.658-.77-.376-1.598-.536-2.397-.69-.3-.058-.602-.116-.9-.187-1.284-.305-2.324-.428-3.375-.41-1.023.02-2.183.04-3.397.377-.74.204-1.44.525-2.154.887.106-.096.195-.2.31-.29.402-.308.956-.557 1.542-.82.332-.148.672-.302 1.014-.476l.354-.18c.706-.363 1.435-.738 2.254-.99.813-.25 1.703-.385 2.828-.555a22.92 22.92 0 0 1 2.896-.23c.362-.008.73-.037 1.107-.066.603-.048 1.228-.098 1.836-.045.362.03.735.044 1.115.058.614.022 1.25.045 1.86.152.664.115 1.357.297 2.092.49l.82.212c.57.143 1.137.34 1.738.548.346.12.7.242 1.067.36a1 1 0 0 0 1.27-.69c.5-1.828-.85-2.235-1.425-2.41-.393-.118-.798-.24-1.22-.595-.232-.195-.48-.47-.74-.76-.436-.485-.93-1.033-1.58-1.483-.566-.392-1.197-.663-1.808-.926-.37-.16-.743-.318-1.1-.51-.91-.485-1.875-.82-2.808-1.144l-.2-.07c-.304-.105-.604-.235-.905-.365-.7-.302-1.422-.613-2.25-.71-1.304-.154-2.428-.14-3.438.04-1.154.205-2.216.753-3.205 1.297-.922.507-1.896 1.076-2.782 1.954-.54.537-.935 1.2-1.317 1.843-.176.295-.356.6-.556.898-.138.207-.285.414-.435.626-.43.607-.917 1.296-1.312 2.11a33.27 33.27 0 0 0-1.22 2.787l.04-.164c.23-.964.537-1.94.913-2.902.086-.22.17-.445.256-.675.264-.708.537-1.44.925-2.15.336-.615.79-1.24 1.274-1.9l.46-.635c.63-.88 1.256-1.666 1.918-2.4l.257-.286c.584-.652 1.19-1.327 1.875-1.944.4-.36.894-.682 1.416-1.02.373-.243.75-.49 1.12-.762.327-.242.644-.506.964-.774.49-.41.955-.798 1.48-1.12a1 1 0 0 0 .347-1.347c-.933-1.643-2.156-1.128-2.813-.85-.387.16-.786.33-1.346.373-.953.075-2.01.263-3.303.522-.306.062-.623.11-.944.16-.78.12-1.584.243-2.386.543-1.195.447-2.247.975-3.128 1.567-.912.613-1.776 1.458-2.572 2.514-.652.866-.932 1.9-1.203 2.9l-.117.426c-.26.928-.58 2.084-.544 3.443.026.984.258 1.98.503 3.034l.075.324c.067.293.123.598.18.91.054.298.114.615.185.94-.372-.396-.754-.788-1.176-1.13-.316-.258-.61-.532-.897-.8-.514-.476-1.045-.97-1.66-1.34-.91-.553-1.855-.91-2.69-1.225l-.393-.15c-1.104-.422-2.194-.583-3.157-.726l-.15-.023c-1.197-.18-2.275-.077-3.382.027-.33.03-.662.042-.99.052-.788.026-1.6.052-2.402.32-.918.31-1.706.775-2.467 1.226l-.546.32c-.793.455-1.465 1.024-2.06 1.526-.196.167-.39.332-.585.49l-.544.433c-.724.576-1.408 1.12-1.965 1.708-.387.41-.783.61-1.166.806-.568.29-1.897.964-1.01 2.724a1 1 0 0 0 1.185.506l.412-.126c.917-.28 1.782-.547 2.66-.76a27.15 27.15 0 0 0 1.395-.39c.612-.184 1.19-.356 1.75-.456.594-.105 1.2-.13 1.84-.154.477-.02.947-.038 1.404-.088.496-.055.98-.138 1.46-.22.62-.107 1.204-.208 1.754-.23.64-.025 1.295.03 1.93.085.445.04.88.077 1.308.09 1.157.034 2.27-.023 3.23.078.415.043.82.077 1.217.11.723.058 1.407.113 2.005.226.57.106 1.105.394 1.624.673.196.106.398.212.603.31a15.824 15.824 0 0 0-1.86-.095c-1.106.01-2.15.02-3.137.21-1.087.21-2.144.554-3.142 1.023-.942.444-1.815 1.05-2.747 1.905a11.336 11.336 0 0 0-2.103 2.582c-.54.913-1.093 1.895-1.424 2.973a19.12 19.12 0 0 0-.684 3.175c-.104.827-.038 1.6.02 2.284.027.32.054.627.058.917.007.53-.157.947-.316 1.35-.234.595-.782 1.988.95 2.735a1.004 1.004 0 0 0 1.246-.39c.44-.71.98-1.44 1.502-2.15l.33-.447c.275-.377.524-.77.77-1.162.313-.497.61-.967.945-1.363.436-.513.927-.997 1.403-1.464.247-.243.49-.482.726-.725.773-.796 1.47-1.507 2.172-2.14a47.288 47.288 0 0 1 2.32-1.98c.56-.444 1.142-.826 1.705-1.195.277-.182.546-.36.804-.537.362-.25.704-.496 1.03-.732.528-.383 1.028-.745 1.472-1.008l.31-.187c1.907 4.074 9.7 22.636 5.232 45.32a24.16 24.16 0 0 1-2.23-.593c-1.686-.513-3.428-1.043-6.863-1.043-3.435 0-5.178.53-6.864 1.043-1.617.492-3.145.957-6.283.957-3.137 0-4.664-.465-6.28-.957-1.687-.513-3.43-1.043-6.864-1.043a1 1 0 0 0 0 2c3.136 0 4.664.465 6.28.957 1.686.514 3.428 1.044 6.863 1.044 3.436 0 5.18-.53 6.865-1.043 1.617-.49 3.145-.956 6.283-.956 3.138 0 4.665.465 6.282.957 1.686.514 3.428 1.044 6.863 1.044 3.437 0 5.18-.53 6.868-1.043 1.618-.49 3.146-.956 6.286-.956s4.667.465 6.285.957c1.687.514 3.43 1.044 6.868 1.044a1 1 0 0 0-.002-2.002zm-25.497-29.563a7.19 7.19 0 0 1-1.787.53 81.23 81.23 0 0 0-.927-4.395c.39-.078.822-.2 1.29-.39.486 1.328.965 2.748 1.423 4.254zm1.5 5.653c-.98.356-1.815.514-2.455.562a80.798 80.798 0 0 0-.497-3.718 9.114 9.114 0 0 0 2.015-.564c.332 1.194.646 2.435.938 3.72zm-1.98 8.372c.86-.03 1.996-.19 3.337-.673.14 1.114.26 2.25.354 3.408-1.59.748-2.872.97-3.733 1 .047-1.27.056-2.512.042-3.735zm3.054-2.71c-1.306.53-2.36.688-3.103.714a79.683 79.683 0 0 0-.233-3.833c.744-.06 1.65-.22 2.685-.57.24 1.196.46 2.426.652 3.69zm-5.784-17.126c-1.033-3.86-2.17-6.956-3.064-9.114 1.01 1.79 2.563 4.8 4.137 8.793-.408.168-.766.266-1.074.32zm2.584 25.57c.976-.017 2.344-.21 3.977-.87.062 1.178.095 2.38.1 3.6-2.012.997-3.56 1.142-4.42 1.112.148-1.3.264-2.58.343-3.84zm.702-41.096c.972-.27 1.954-.288 2.904-.306.87-.024 1.76.092 2.874.357.326.077.655.14.982.205.703.136 1.367.264 1.9.524.808.394 1.548.94 2.265 1.47l.26.19c.8.587 1.472 1.13 2.005 1.623-.598-.16-1.188-.276-1.76-.39-.333-.064-.66-.128-.985-.2-.413-.093-.823-.23-1.257-.372-.583-.193-1.186-.392-1.824-.49-.7-.105-1.37-.12-2.018-.132-.397-.008-.788-.015-1.167-.048-1.153-.098-2.188-.18-3.173-.202l-.258-.002c-.67 0-1.293.05-1.897.1-.35.03-.688.057-1.016.07l-.77.033c-.828.033-1.607.066-2.3.14-.016-.014-.033-.025-.048-.038.5-.35 1.07-.614 1.626-.864.33-.146.65-.29.95-.447l.25-.13c.863-.45 1.678-.876 2.453-1.09zm-3.863-2.898c.322-.665.74-1.255 1.145-1.827.16-.227.316-.448.463-.668.22-.33.42-.664.613-.99.333-.56.647-1.087 1.006-1.443.703-.697 1.54-1.184 2.338-1.623.843-.463 1.737-.93 2.592-1.08a7.932 7.932 0 0 1 1.39-.115c.453 0 .938.03 1.463.093.54.063 1.1.305 1.693.56.344.148.69.295 1.04.417l.2.07c.9.312 1.75.607 2.522 1.02.407.217.832.4 1.25.582.545.234 1.06.456 1.462.733.427.296.798.696 1.154 1.092a21.97 21.97 0 0 0-1.696-.38c-.745-.13-1.45-.156-2.13-.18a20.705 20.705 0 0 1-1.02-.053c-.772-.064-1.51-.007-2.162.045-.338.027-.67.053-.996.06-1.178.028-2.208.11-3.242.267-1.063.16-2.068.31-3.024.606-.987.304-1.832.738-2.578 1.122l-.344.176c-.313.16-.625.298-.93.435-.664.298-1.352.606-1.94 1.057-.153.118-.298.24-.434.363.055-.12.11-.233.165-.344zm-5.66-7.472l.12-.44c.242-.893.45-1.663.87-2.22.662-.877 1.365-1.57 2.09-2.06.752-.504 1.665-.96 2.714-1.353.61-.227 1.28-.33 1.99-.44.352-.053.7-.107 1.034-.174 1.222-.245 2.21-.422 3.065-.49.067-.004.135-.01.2-.02-.06.047-.118.092-.178.136-.335.25-.68.473-1.02.693-.562.366-1.145.745-1.662 1.21-.766.69-1.407 1.405-2.027 2.097l-.254.283a29.235 29.235 0 0 0-2.06 2.575l-.448.618c-.523.715-1.016 1.39-1.416 2.122-.457.835-.77 1.67-1.044 2.41-.082.22-.162.436-.244.645a24.005 24.005 0 0 0-.997 3.166l-.003.018c-.235-.644-.356-1.312-.474-1.958-.063-.344-.124-.68-.198-1l-.077-.33c-.23-.993-.43-1.85-.452-2.633-.03-1.06.237-2.012.47-2.853zm-4.852 9.057c-.7-.13-1.436-.19-2.214-.254-.38-.03-.77-.062-1.17-.104-1.08-.113-2.19-.055-3.38-.088-.39-.012-.787-.047-1.193-.083-.567-.05-1.15-.1-1.763-.1-.14 0-.282.003-.425.01-.68.027-1.357.144-2.01.257-.44.076-.886.153-1.34.203-.41.045-.832.06-1.262.078-.68.026-1.382.054-2.11.183-.675.12-1.336.32-1.976.51-.42.126-.846.254-1.28.36.44-.433 1-.877 1.587-1.345l.554-.443c.207-.167.414-.342.624-.52.553-.468 1.125-.953 1.758-1.315.19-.108.38-.22.573-.335.67-.397 1.366-.81 2.084-1.05.523-.176 1.158-.196 1.83-.218.37-.012.743-.025 1.18-.066.965-.09 1.88-.178 2.836-.034l.152.022c.902.133 1.835.27 2.732.615l.404.154c.79.298 1.607.607 2.362 1.063.438.266.873.67 1.333 1.097.32.297.647.6 1 .886.446.362.872.823 1.323 1.31l.176.19-.185-.1c-.622-.336-1.327-.715-2.202-.88zm1.25 6.104a55.39 55.39 0 0 1-.99.706c-.246.17-.503.338-.767.51-.6.394-1.218.8-1.847 1.298-.7.554-1.468 1.21-2.417 2.066-.747.673-1.47 1.41-2.27 2.232-.224.23-.457.46-.692.692-.507.5-1.032 1.015-1.526 1.598-.426.503-.773 1.055-1.11 1.588-.222.352-.446.708-.695 1.05l-.096.128v-.072c-.004-.336-.033-.69-.065-1.062-.053-.614-.106-1.25-.03-1.868.118-.933.33-1.914.612-2.835.268-.87.757-1.734 1.235-2.545a9.19 9.19 0 0 1 1.734-2.125c.778-.715 1.492-1.213 2.245-1.567.86-.404 1.733-.688 2.67-.87.808-.155 1.72-.164 2.868-.174h.088c.767 0 1.58.09 2.57.208-.487.298-.987.66-1.515 1.042zm11.174 46.088c.258-1.335.473-2.653.655-3.955.135.007.267.016.426.016 1 0 2.465-.183 4.225-.91a73.87 73.87 0 0 1-.213 4.197c-.01.106-.005.21.008.312-1.043.213-2.285.36-4.036.36-.378 0-.73-.007-1.065-.02zM44.107 166.94c-.735-1.19-1.647-1.79-2.712-1.79-.935 0-1.735.474-2.51.934-.64.38-1.3.772-2.09.97-1.54.387-2.293.695-3.022.994-.66.27-1.285.526-2.617.86-1.623.408-2.425.85-3.133 1.24-.627.345-1.17.644-2.417.956-.9.227-1.556.47-2.08.666-.605.225-.91.333-1.224.333-.35 0-.833-.134-1.516-.42-1.53-.644-1.662-.91-2.216-2.03-.264-.535-.593-1.2-1.132-2.042-.84-1.308-1.253-1.968-1.665-2.628-.418-.67-.836-1.338-1.69-2.666-.786-1.227-1.082-1.878-1.394-2.568-.344-.758-.7-1.54-1.605-2.95-.487-.76-.628-1.658-.765-2.526-.188-1.194-.537-3.417-2.894-3.417-.374 0-.776.062-1.23.188-1.225.342-2.027.9-2.45 1.708-.646 1.23-.197 2.533.278 3.91.23.665.487 1.417.662 2.24.344 1.626.247 2.155.07 3.115-.12.658-.272 1.477-.327 2.766-.073 1.68.015 2.537.1 3.367.077.757.15 1.472.088 2.934-.06 1.38.18 2.376.37 3.175.27 1.128.353 1.47-.41 2.47-.375.495-.564.498-.7.498h-.003c-.235 0-.56-.073-.938-.158-.957-.215-2.402-.43-3.744-.055-1.712.48-2.544 1.12-3.212 1.637-.58.448-1.036.8-2.185 1.122-1.402.39-1.92.297-2.516.27a10.528 10.528 0 0 0-3.47.377c-.407.114-.87.167-1.458.167-.4 0-.786-.024-1.144-.045-.365-.023-.704-.042-1.007-.042-.455 0-1.666 0-2.374.96-.73.993-.344 2.238-.217 2.647 1.023 3.295 3.054 3.306 4.686 3.313.878.004 1.786.01 2.873.437 1.738.684 2.568 1.053 3.446 1.443.87.386 1.767.786 3.565 1.493 1.376.542 2.402.727 3.152.86 1.22.22 1.63.294 2.777 1.793.946 1.238.908 1.468.725 2.57-.107.647-.254 1.533-.23 2.772.03 1.67.064 2.505.1 3.34.033.82.067 1.638.097 3.278.03 1.605-.008 2.386-.047 3.212-.04.838-.08 1.704-.05 3.406.018.966-.356 1.905-.717 2.812-.37.93-.72 1.807-.66 2.738.054.868.494 2.05 2.28 2.76.526.208 1 .31 1.454.31 2.216 0 2.75-2.17 3.106-3.607.234-.95.477-1.933 1-2.67.994-1.4 1.37-2.252 1.703-3.002.316-.71.59-1.325 1.41-2.483.855-1.206 1.34-1.743 1.855-2.31.55-.61 1.12-1.238 2.08-2.59.843-1.19 1.152-2.275 1.4-3.147.34-1.196.41-1.445 1.454-1.724.316-.084.59-.127.816-.127.512 0 .792.22 1.526.855.645.56 1.447 1.255 2.694 1.826 1.208.554 1.688 1 2.243 1.516.65.605 1.388 1.292 3.037 2.046 1.583.725 2.51.916 3.328 1.083.757.156 1.41.29 2.683.873.824.377 1.375 1.023 1.908 1.65.662.774 1.41 1.653 2.633 1.653 1.085 0 1.878-.726 2.38-1.27.513-.56 1.186-1.433 1.096-2.543-.097-1.2-1-1.914-1.798-2.542-.616-.485-1.252-.987-1.712-1.742a23.624 23.624 0 0 0-1.88-2.7c-.47-.596-.913-1.158-1.674-2.406-.738-1.21-.99-1.863-1.26-2.555-.29-.748-.617-1.596-1.495-3.035-.854-1.4-1.926-2.083-2.708-2.582-.936-.596-1.13-.72-1.098-1.67.035-1.025.256-1.163 1.185-1.742.728-.454 1.724-1.075 2.618-2.31.882-1.22 1.34-1.817 1.8-2.414.47-.616.943-1.23 1.852-2.488 1.01-1.395 1.348-2.275 1.646-3.05.267-.694.497-1.293 1.277-2.37.508-.703 1.314-1.08 2.093-1.443.943-.44 2.012-.94 2.362-2.11.35-1.17-.304-2.224-.518-2.57zm-3.11 1.958c-.968.45-2.292 1.07-3.256 2.402-1.008 1.395-1.347 2.275-1.645 3.05-.267.694-.497 1.293-1.277 2.372-.884 1.222-1.343 1.82-1.802 2.418-.47.614-.943 1.23-1.85 2.482-.55.76-1.144 1.13-1.774 1.522-1.116.696-2.506 1.562-2.596 4.185-.092 2.662 1.396 3.61 2.482 4.302.68.434 1.267.808 1.76 1.614.737 1.21.99 1.864 1.258 2.556.29.748.617 1.595 1.495 3.034.856 1.402 1.377 2.062 1.88 2.7.47.596.914 1.158 1.675 2.407.74 1.214 1.71 1.978 2.417 2.535.18.14.4.316.555.455a3.557 3.557 0 0 1-.343.386c-.124-.135-.267-.302-.385-.44-.64-.75-1.516-1.778-2.943-2.43-1.583-.726-2.51-.917-3.328-1.084-.758-.156-1.412-.29-2.685-.873-1.208-.553-1.688-1-2.243-1.516-.65-.605-1.39-1.292-3.037-2.046-.856-.39-1.426-.885-1.978-1.364-.86-.745-1.833-1.59-3.49-1.59-.495 0-1.016.075-1.593.23-2.688.717-3.174 2.427-3.565 3.8-.215.752-.417 1.463-.964 2.234-.855 1.206-1.34 1.743-1.855 2.31-.55.61-1.12 1.238-2.078 2.59-.995 1.402-1.372 2.253-1.704 3.003-.316.712-.588 1.326-1.41 2.484-.85 1.2-1.19 2.58-1.463 3.686-.1.408-.243.983-.372 1.287a2.08 2.08 0 0 1-.167-.06c-.256-.1-.37-.183-.396-.183-.007-.256.27-.95.456-1.417.426-1.072.957-2.406.928-3.975-.03-1.603.008-2.383.047-3.21.04-.837.082-1.705.05-3.41-.03-1.674-.064-2.51-.1-3.347-.033-.817-.067-1.635-.097-3.27-.018-.964.094-1.634.192-2.225.27-1.626.316-2.767-1.303-4.884-1.728-2.26-2.9-2.613-4.628-2.923-.696-.125-1.485-.267-2.585-.7-1.737-.683-2.567-1.052-3.445-1.442a75.718 75.718 0 0 0-3.568-1.494c-1.608-.632-2.965-.64-3.956-.644-1.283-.006-1.443-.007-1.743-.91.147.006.3.016.46.025.415.026.862.052 1.324.052.857 0 1.598-.09 2.268-.278 1.403-.392 1.92-.298 2.516-.27.253.01.506.023.777.023.868 0 1.698-.124 2.692-.4 1.712-.48 2.543-1.122 3.212-1.638.58-.448 1.037-.802 2.186-1.123.755-.21 1.5-.083 2.276.09.506.115 1.03.233 1.598.233 1.22 0 2.23-.55 3.092-1.682 1.622-2.133 1.26-3.648.94-4.984-.164-.682-.333-1.387-.292-2.348.072-1.68-.016-2.537-.1-3.367-.078-.758-.15-1.473-.09-2.935.047-1.08.17-1.754.28-2.35.206-1.112.382-2.072-.084-4.28-.212-1.004-.516-1.886-.76-2.595-.18-.523-.422-1.223-.437-1.526.08-.048.25-.133.58-.225.077-.023.143-.04.2-.05.056.237.11.58.153.854.158 1.008.375 2.39 1.204 3.68.787 1.227 1.083 1.878 1.396 2.57.343.756.698 1.54 1.603 2.95a217.523 217.523 0 0 1 1.668 2.635c.417.666.835 1.335 1.685 2.66.45.7.725 1.256.967 1.748.732 1.482 1.305 2.442 3.742 3.467 2.287.96 3.585.64 4.948.134.48-.18 1.025-.383 1.765-.568 1.623-.408 2.425-.85 3.133-1.24.627-.345 1.17-.644 2.417-.957 1.54-.386 2.293-.695 3.022-.993.66-.27 1.285-.526 2.618-.86 1.213-.305 2.143-.857 2.89-1.3.298-.177.688-.41.89-.49a2.31 2.31 0 0 1 .3.426c-.18.1-.416.21-.61.3z"/><path d="M11.54 173.546c.21.55.42 1.1.78 2.222a1 1 0 0 0 1.905-.612c-.377-1.172-.598-1.748-.818-2.324-.21-.55-.42-1.1-.78-2.22a1 1 0 1 0-1.903.613c.375 1.17.595 1.746.815 2.32zM5.15 183.665c-1.007 0-1.51.008-2.014.015-.496.008-.992.015-1.983.015a1 1 0 0 0 0 2c1.007 0 1.51-.008 2.014-.015.496-.008.992-.015 1.983-.015a1 1 0 0 0 0-2zM25 178.026c-.882.49-1.333.72-1.784.952-.466.238-.933.477-1.848.985a1 1 0 0 0 .972 1.748c.885-.49 1.335-.72 1.786-.952.466-.238.932-.476 1.846-.984a1 1 0 1 0-.97-1.748zM12.214 191.762a1 1 0 0 0-1.108.878c-.1.872-.327 1.245-.612 1.716-.328.542-.736 1.217-.886 2.52a1 1 0 1 0 1.986.23c.1-.87.326-1.244.61-1.715.33-.54.737-1.215.888-2.52a1 1 0 0 0-.878-1.108zM23.668 190.852a4.237 4.237 0 0 1-1.354-.632 1 1 0 1 0-1.11 1.663c.858.574 1.404.74 1.886.884.415.125.742.224 1.354.632a1 1 0 0 0 1.112-1.663c-.86-.575-1.407-.74-1.89-.885zM15.535 185l1.155-2.07a.998.998 0 0 0-.386-1.36.997.997 0 0 0-1.36.385l-1.056 1.892-2.225-1.557a1 1 0 0 0-1.147 1.64l2.39 1.673-.963 1.728a.998.998 0 0 0 .872 1.488 1 1 0 0 0 .874-.513l.864-1.55 1.562 1.093a.996.996 0 0 0 1.392-.246 1 1 0 0 0-.246-1.393L15.535 185zM84.667 178.403c-2.854-.61-5.264-1.014-7.744-1.014-.56 0-1.114.02-1.646.065l-.116.01c-2.282.184-5.123.414-6.704 2.82-1.564 2.347-.784 5.362.073 7.732.94 2.555 2.503 4.304 4.638 5.195 1.383.586 2.878.883 4.444.883 3.3 0 6.546-1.378 8.68-3.685 1.882-2.03 3.3-5.62 2.37-8.553-.404-1.274-1.425-2.908-3.995-3.454z"/><path d="M131.385 174.74a1.003 1.003 0 0 0-.695-.366c-1.482-.122-2.972-.272-4.465-.422-4.245-.428-8.633-.868-12.965-.66-2.818.136-5.782.58-8.812 1.318-.76.188-1.568.422-2.4.664-2.045.592-4.155 1.2-6 1.27-1.843-.07-3.953-.678-5.998-1.27a67.39 67.39 0 0 0-2.404-.665c-3.026-.74-5.99-1.182-8.808-1.318-4.333-.208-8.72.232-12.966.66-1.493.15-2.983.3-4.465.422a1.012 1.012 0 0 0-.907 1.14c.12.946.24 1.894.368 2.833.177 1.38.53 1.732 1.383 2.465l.08.068c.728.622.924 1.935 1.098 3.093.045.298.088.586.138.858l.08.44c.63 3.428 1.28 6.972 4.14 9.518 2.375 2.105 6.336 3.464 9.93 3.464.334 0 .664-.012.99-.035 3.912-.296 8.06-2.112 10.823-4.742 2.022-1.926 2.625-4.29 3.21-6.576.26-1.02.527-2.074.92-3.085.433-1.103 1.11-1.594 2.2-1.594h.38c1.09 0 1.768.493 2.198 1.594.394 1.013.663 2.066.922 3.086.583 2.286 1.187 4.65 3.21 6.576 2.764 2.63 6.912 4.446 10.826 4.742.325.024.654.036.987.036 3.593 0 7.555-1.36 9.932-3.466 2.86-2.545 3.51-6.09 4.137-9.516l.08-.44c.05-.272.094-.56.14-.858.172-1.158.37-2.472 1.1-3.095l.077-.067c.852-.733 1.205-1.085 1.38-2.456.13-.947.25-1.895.372-2.86a1.01 1.01 0 0 0-.217-.756zm-2.14 3.354c-.085.672-.085.672-.702 1.202l-.075.064c-1.296 1.106-1.562 2.887-1.777 4.318-.04.275-.08.542-.126.79l-.08.443c-.595 3.238-1.155 6.296-3.5 8.383-2.48 2.196-6.63 3.138-9.442 2.93-3.474-.262-7.15-1.87-9.596-4.196-1.607-1.528-2.09-3.425-2.65-5.622-.275-1.077-.56-2.19-1-3.318-.73-1.875-2.136-2.866-4.06-2.866h-.38c-1.923 0-3.328.992-4.062 2.868-.438 1.126-.722 2.24-.997 3.316-.56 2.197-1.044 4.094-2.65 5.622-2.446 2.326-6.123 3.935-9.595 4.197-2.814.205-6.964-.734-9.442-2.93-2.346-2.088-2.907-5.146-3.5-8.383l-.08-.44c-.047-.25-.086-.518-.128-.793-.214-1.43-.48-3.21-1.774-4.315l-.078-.067c-.617-.53-.617-.53-.704-1.21-.082-.6-.16-1.202-.238-1.808 1.15-.103 2.304-.22 3.46-.336 4.173-.42 8.488-.855 12.668-.65 2.69.13 5.528.554 8.427 1.26.736.184 1.52.41 2.326.645 2.057.596 4.384 1.267 6.475 1.348h.158c2.09-.08 4.418-.752 6.476-1.348a64.25 64.25 0 0 1 2.32-.643c2.905-.708 5.74-1.133 8.433-1.263 4.18-.202 8.494.23 12.667.65 1.156.118 2.31.234 3.46.337-.072.604-.15 1.21-.234 1.817z"/><path d="M116.935 177.464l-.115-.01a20.523 20.523 0 0 0-1.646-.065c-2.48 0-4.89.404-7.743 1.013-2.57.546-3.59 2.18-3.996 3.456-.93 2.933.49 6.522 2.37 8.55 2.135 2.308 5.38 3.686 8.68 3.686 1.566 0 3.062-.297 4.44-.88 2.14-.895 3.702-2.644 4.645-5.204.854-2.364 1.635-5.378.075-7.72-1.586-2.413-4.428-2.643-6.71-2.828zM208.852 165.7c-.102 0-.176.003-.196.004h-38.47a1.5 1.5 0 0 0-.997.38l-4.075 3.62h-3.263v-2.373c0-1.706-1.59-3.043-3.618-3.043h-3.765c-2.03 0-3.618 1.337-3.618 3.044v2.374h-2.667c-2.48 0-4.5 1.848-4.5 4.12v29.26c0 2.272 2.02 4.12 4.5 4.12h61.75c2.458 0 4.458-1.848 4.458-4.12V170.62c0-3.63-2.985-4.92-5.54-4.92zm-55 1.755c.085-.062.288-.167.617-.167h3.764c.33 0 .533.104.618.167v2.25h-5v-2.25zm57.54 35.63c0 .618-.653 1.12-1.457 1.12h-61.75c-.813 0-1.5-.513-1.5-1.12v-29.26c0-.607.687-1.12 1.5-1.12h17.5a1.5 1.5 0 0 0 .996-.38l4.075-3.62h37.93a9.3 9.3 0 0 0 .167-.003c1.16 0 2.54.333 2.54 1.92v32.463z"/><path d="M206.185 171.288h-5c-1.654 0-3 1.346-3 3v1.833c0 1.655 1.346 3 3 3h5c1.654 0 3-1.345 3-3v-1.832c0-1.654-1.346-3-3-3zm1 4.833a1 1 0 0 1-1 1h-5a1 1 0 0 1-1-1v-1.832a1 1 0 0 1 1-1h5a1 1 0 0 1 1 1v1.833zM182.685 171.37c-8.41 0-15.25 6.842-15.25 15.25s6.84 15.25 15.25 15.25 15.25-6.84 15.25-15.25-6.84-15.25-15.25-15.25zm0 27.5c-6.755 0-12.25-5.494-12.25-12.25s5.495-12.25 12.25-12.25 12.25 5.496 12.25 12.25-5.495 12.25-12.25 12.25z"/><circle cx="182.685" cy="186.621" r="9.519"/><path d="M163.37 174.81h-.002a1 1 0 0 0-.997 1l.065 25.293a1 1 0 0 0 1 .998h.003a1 1 0 0 0 .997-1l-.064-25.293a1 1 0 0 0-1-.998zM291.104 210.892l-14.365-53.61a1.497 1.497 0 0 0-1.737-1.083l-2.78.54-1.285-4.79a1.5 1.5 0 0 0-1.965-1.02l-35.086 12.834a1.5 1.5 0 0 0-.934 1.797l14.446 53.917c.108.407.383.75.757.943.13.068.27.11.412.135a1.477 1.477 0 0 0 .813.072l40.558-7.874a1.502 1.502 0 0 0 1.164-1.86zm-54.897-44.782l32.258-11.8 13.667 51.007-32.258 11.8-13.667-51.007zm30.185 48.158l18.058-6.605a1.5 1.5 0 0 0 .934-1.797L273 159.646l1.203-.235 13.587 50.705-21.398 4.153z"/><path d="M264.404 163.308a1 1 0 0 0-1.3-.56l-18.25 7.25a1 1 0 0 0 .74 1.858l18.25-7.25a1 1 0 0 0 .56-1.298zM263.41 169.57a1 1 0 0 0-1.292-.577l-13.75 5.25a1 1 0 1 0 .713 1.87l13.75-5.25c.517-.2.775-.777.58-1.293zM252.03 205.507a1.002 1.002 0 0 0 1.274.613l20.75-7.25a1 1 0 0 0-.66-1.888l-20.75 7.25c-.52.183-.796.753-.614 1.275zM256.9 177.907c-2.14.71-3.952 2.017-5.102 3.68-1.21 1.75-1.554 3.687-.97 5.45.287.865.798 1.615 1.455 2.246-.203.965-.176 1.95.137 2.894.857 2.584 3.582 4.254 6.942 4.254 1.13 0 2.266-.187 3.38-.556 2.142-.71 3.954-2.017 5.104-3.68 1.21-1.75 1.554-3.687.97-5.45-.287-.865-.798-1.615-1.455-2.246.204-.965.177-1.95-.136-2.894-.857-2.584-3.582-4.254-6.942-4.254-1.128 0-2.266.188-3.38.557zm10.018 9.466c.383 1.154.13 2.463-.715 3.685-.904 1.31-2.355 2.345-4.087 2.92a8.75 8.75 0 0 1-2.752.455c-2.483 0-4.463-1.132-5.044-2.884-.11-.33-.163-.67-.172-1.01 1.058.48 2.286.754 3.623.754 1.13 0 2.268-.188 3.383-.557 2.412-.8 4.305-2.342 5.374-4.142.16.244.298.5.39.778zm-12.295 1.177c.76-1.53 2.383-2.904 4.498-3.606a8.75 8.75 0 0 1 2.753-.456c1.203 0 2.284.27 3.15.743-.762 1.53-2.384 2.905-4.5 3.606a8.752 8.752 0 0 1-2.752.456c-1.202 0-2.282-.27-3.147-.742zm10.703-6.317c.11.33.163.67.172 1.01-1.058-.48-2.286-.755-3.624-.755-1.13 0-2.266.188-3.38.557-2.413.8-4.306 2.343-5.375 4.143a3.4 3.4 0 0 1-.39-.78c-.384-1.154-.13-2.462.714-3.684.904-1.308 2.355-2.345 4.087-2.918a8.75 8.75 0 0 1 2.753-.456c2.482 0 4.462 1.132 5.043 2.883zM379.56 185.78l-1.59-2.465a1.506 1.506 0 0 0-.802-.615l-17.903-5.755-.302-3.707a.975.975 0 0 0-.03-.178l-.814-3.035a1.003 1.003 0 0 0-1.225-.707l-6.642 1.78a1 1 0 0 0-.707 1.224l.44 1.64-5.528-1.777-2.872-10.72a1.442 1.442 0 0 0-.086-.24 1.596 1.596 0 0 0-.045-.25c-1.252-4.675-4.67-10.813-8.316-9.836-1.17.312-2.64 1.452-3.005 5.104-.226 2.26.036 5.02.72 7.572l3.04 11.35-3.812 4.208-.46-1.713a.995.995 0 0 0-.465-.606 1.01 1.01 0 0 0-.76-.1l-6.64 1.78a1 1 0 0 0-.707 1.224l.814 3.035c.016.058.036.115.062.17l1.622 3.423-12.78 14.104c-.23.257-.368.587-.385.933l-.145 2.93a1.5 1.5 0 0 0 2.31 1.334l17.717-11.417 7.875-3.458 2.612 9.75c.012.044.03.088.046.133l-8.79 10.632a.997.997 0 0 0-.195.896l.395 1.475a1 1 0 0 0 1.517.575l7.313-4.83 2.946-1.257 3.2 7.514a1.498 1.498 0 0 0 1.768.86l.685-.183.842 3.14a1 1 0 1 0 1.93-.517l-.842-3.14.685-.185a1.5 1.5 0 0 0 1.1-1.632l-1.018-8.28 3.096-.374 8.748.524a1 1 0 0 0 1.026-1.257l-.395-1.475a.998.998 0 0 0-.618-.678l-12.85-4.783a1.52 1.52 0 0 0-.03-.165l-2.616-9.76 8.478-.934 21.052 1.03a1.5 1.5 0 0 0 1.333-2.312zm-27.823-13.01l4.71-1.262.53 1.98.227 2.794-4.953-1.592-.513-1.92zm-27.964 9.617l-.53-1.98 4.708-1.263.535 1.993-3.483 3.844-1.23-2.593zm5.178 9.383a1.45 1.45 0 0 0-.208.113l-14.284 9.205 20.362-22.473 2.536 9.464-8.405 3.69zm11.22 16.07a.962.962 0 0 0-.157.085l-5.354 3.535 7.02-8.49 1.522 3.576-3.03 1.294zm7.322-6.998a1 1 0 1 0-1.932.518l2.217 8.275-4.154-9.754-9.872-36.84c-1.288-4.813-.503-8.67.154-9.002h.017c.778 0 3.357 2.938 4.637 7.714.022.083.05.164.086.24.008.083.023.167.045.25l9.697 36.188 1.31 10.632-2.203-8.22zm7.97 2.746a.985.985 0 0 0-.18.005l-3.19.385-.47-3.82 10.243 3.814-6.404-.384zm1.74-19.53a1.457 1.457 0 0 0-.24.008l-9.052.998-2.527-9.43 28.79 9.255-16.972-.83zM450.11 214.247h-44.185a1.498 1.498 0 0 1-1.498-1.575l1.82-35.985-6.878 2.785a1.5 1.5 0 0 1-2.003-.97l-3.884-13.334c-.223-.765.19-1.57.943-1.834l14.236-5c.104-.037.21-.062.32-.075l8.412-1a1.5 1.5 0 0 1 1.677 1.486c.01.692.35 6.847 8.874 6.847 8.777 0 8.99-6.59 8.995-6.87a1.5 1.5 0 0 1 1.677-1.463l8.412 1c.108.013.216.038.32.075l14.235 5a1.5 1.5 0 0 1 .943 1.834l-3.883 13.332a1.5 1.5 0 0 1-2.003.97l-6.88-2.784 1.81 35.74a1.495 1.495 0 0 1-1.463 1.82zm-42.606-3h41.008l-1.86-36.758a1.498 1.498 0 0 1 2.06-1.467l7.522 3.044 3.02-10.376-12.74-4.473-6.814-.81c-.653 2.792-3.043 8.183-11.75 8.183-8.704 0-11.03-5.377-11.65-8.182l-6.796.808-12.74 4.474 3.02 10.376 7.522-3.044a1.5 1.5 0 0 1 2.06 1.466l-1.862 36.76zM532.637 183.218a1.513 1.513 0 0 0-.375-.9c-.02-.024-2.075-2.378-3.515-6.41-1.915-5.363-1.9-11.018.048-16.807a1.5 1.5 0 0 0-1.686-1.954l-5.393-1.04a1.5 1.5 0 0 0-1.784 1.456c0 .034-.056 3.306-1.29 6.485-1.524 3.922-4.116 5.91-7.705 5.91-3.584 0-6.154-1.985-7.64-5.9-1.208-3.177-1.234-6.448-1.234-6.48a1.497 1.497 0 0 0-1.783-1.47l-5.413 1.044a1.5 1.5 0 0 0-1.15 1.91c.043.147 4.312 14.628-3.94 23.214-.247.256-.394.59-.417.944l-1.94 30.6a1.502 1.502 0 0 0 1.497 1.596h44.165a1.497 1.497 0 0 0 1.497-1.595l-1.943-30.602zm-9.807-23.84l2.59.498a30.283 30.283 0 0 0-.993 5.464h-3.07c.828-2.012 1.287-4.13 1.473-5.963zm-11.893 13.58c3.12 0 5.486-1.12 7.257-2.805h6.228c.15 1.722.452 3.31.845 4.75h-28.224c.406-1.607.65-3.208.762-4.75h5.894c1.757 1.685 4.114 2.804 7.237 2.804zM499.15 159.38c.172 1.834.614 3.95 1.426 5.96h-2.773a37.728 37.728 0 0 0-.804-5.545l2.15-.415zm-3.92 20.335h31.852c1.023 2.08 2.062 3.512 2.59 4.18l.037.57h-37.424l.033-.522c1.206-1.327 2.147-2.756 2.91-4.228zm-3.55 14.313l.3-4.75h38.035l.3 4.75H491.68zm38.94 4.812l.302 4.75h-39.85l.302-4.75h39.247zm-40.106 13.573l.254-4.01h40.46l.254 4.01h-40.968zM627.835 206.337l-5.256-27.25a1.493 1.493 0 0 0-.39-.752c-4.995-5.227-4.842-16.074-4.84-16.183a1.497 1.497 0 0 0-1.5-1.53h-43.725a1.5 1.5 0 0 0-1.5 1.53c.002.11.168 10.942-4.84 16.183-.2.208-.335.47-.39.752l-5.255 27.25a1.5 1.5 0 0 0 1.303 1.775l24.132 2.75a1.493 1.493 0 0 0 1.593-1.016l4.914-14.725h3.812l4.914 14.726a1.5 1.5 0 0 0 1.593 1.015l24.133-2.75a1.498 1.498 0 0 0 1.302-1.773zm-13.132-39.008h-15.507v-3.71h15.18c.036.93.128 2.227.327 3.71zm-24.507 0v-3.71h7v3.71h-7zm-2-3.71v3.71h-14.924c.2-1.484.29-2.78.328-3.71h14.596zm-3.49 44.123l-21.314-2.43.848-4.395 21.845 2.693-1.38 4.133zm13.25-15.236l-.344-20.112c-.01-.552-.483-1.02-1.017-.983a1 1 0 0 0-.983 1.017l.256 15.028c-4.6-.37-4.755-3.65-4.757-4.068l-.25-11c-.01-.553-.492-1.01-1.02-.978a1 1 0 0 0-.978 1.022l.25 10.965c0 .092-.008 2.287 1.716 4.032 1.2 1.216 2.908 1.896 5.075 2.034l.045 2.654H591a1.5 1.5 0 0 0-1.423 1.025l-2.847 8.53-22.11-2.726 3.64-18.877c2.674-2.994 4.014-7.168 4.69-10.745h42.075c.675 3.577 2.015 7.75 4.69 10.745l3.64 18.876-22.11 2.725-2.848-8.53a1.48 1.48 0 0 0-.442-.638zm5.313 15.236l-1.38-4.132 21.845-2.692.848 4.396-21.314 2.43z"/><path d="M616.552 184.614a1.002 1.002 0 0 0 1.26-.64 1 1 0 0 0-.64-1.26c-7.123-2.324-11.01-11.827-11.048-11.923a1 1 0 0 0-1.857.744c.17.426 4.266 10.464 12.285 13.08zM582.567 170.234a1 1 0 0 0-1.3.557c-.038.097-3.91 9.594-11.048 11.922a1 1 0 0 0 .62 1.9c8.02-2.615 12.114-12.653 12.285-13.08a1 1 0 0 0-.558-1.298zM-305.068 285.137s-3.395 2.376-9.072 2.376-9.072-2.376-9.072-2.376c-.9-.63-1.553-.25-1.448.844l2.1 21.958c.104 1.095.91 2.53 1.792 3.187 0 0 2.09 1.56 6.63 1.56s6.628-1.56 6.628-1.56c.88-.658 1.688-2.092 1.793-3.187l2.1-21.957c.102-1.094-.55-1.474-1.45-.843z"/><path d="M-286.245 267.148c0-6.82-5.55-12.37-12.37-12.37-5.276 0-9.78 3.327-11.553 7.99-1.33-.13-2.466-.142-3.95-.13-2.14 0-3.62.18-5.302.42l-2.624-11.104a1 1 0 0 0-.676-.725l-13.84-4.315a1 1 0 0 0-1.25.646l-.99 3.057a1 1 0 0 0 .643 1.26l11.6 3.78 1.96 8.344c-5.488 1.557-6.66 4.005-6.66 5.8 0 .043 0 .087.005.13l3.68 42.097c.083 3.946 6.81 6.01 13.453 6.01s13.37-2.064 13.454-6.01l2.845-32.55c6.45-.413 11.575-5.777 11.575-12.33zm-30.423 7.56l-1.186-5.02a30.23 30.23 0 0 1 7.134-.038 12.336 12.336 0 0 0 2.018 4.643c-1.485.314-3.304.528-5.417.528-.905 0-1.75-.042-2.548-.11zm2.638-9.07c1.194.008 2.127.007 3.135.08-.054.47-.09.946-.09 1.43 0 .162.017.322.023.482a31.74 31.74 0 0 0-7.35.124l-.415-1.763c1.492-.21 2.777-.353 4.697-.353zm-11.373-11.71l-11.185-3.646.377-1.165 12.35 3.85 5.073 21.47c-.488-.086-.945-.182-1.37-.287l-4.582-19.5a1.003 1.003 0 0 0-.663-.722zm3.018 19.483c-.987-.446-1.52-.917-1.52-1.274 0-.18.232-.56.986-.998l.535 2.273zm21.628 5.215l-2.902 33.195a1.42 1.42 0 0 0-.005.13c0 .923-3.557 3.085-10.454 3.085-6.896 0-10.453-2.162-10.453-3.084 0-.042-.002-.086-.006-.13l-3.677-42.07c.053-.993 1.706-2.056 4.347-2.824l.52 2.208c-2.05 1.005-2.515 2.175-2.515 3.002 0 3.076 5.93 4.685 11.785 4.685 5.857 0 11.786-1.608 11.786-4.684a1 1 0 0 0-1-1l-.01.002a1.693 1.693 0 0 1-.138-.34l2.558-1.363-.653 1.31a1 1 0 0 0 .894 1.447c.173 0 .34-.048.49-.133-.09.176-.148.374-.162.585l-.402 5.98zm2-7.376a1.475 1.475 0 0 0-.978.284l.982-1.97.774 1.97a1.495 1.495 0 0 0-.778-.285zm-.887-10.207c.13-.1.424-.24.876-.24.487 0 .792.163.896.222l-.827 2.777-.944-2.76zm1.97 16.427l.297-4.402.1.253a.97.97 0 0 0 .142.25c.37.475.945.735 1.62.735.696 0 1.432-.275 2.072-.775 1.295-1.014 1.703-2.583.928-3.573a.984.984 0 0 0-.242-.222l-2.302-1.5 2.665.11h.04a.97.97 0 0 0 .247-.03c1.22-.31 1.856-1.8 1.45-3.395-.4-1.573-1.7-2.596-2.895-2.29a1.01 1.01 0 0 0-.3.132l-3.043 1.987 1.018-3.42c.027-.093.042-.19.042-.286 0-1.257-1.288-2.242-2.933-2.242-1.643 0-2.93.985-2.93 2.242 0 .11.017.22.053.324l.93 2.72-2.16-1.767a.97.97 0 0 0-.247-.147c-1.127-.47-2.582.36-3.2 1.84-.272.65-.363 1.347-.254 1.96.135.763.57 1.35 1.19 1.61.103.042.21.067.32.075l2.867.19-2.465 1.312a.973.973 0 0 0-.232.17c-.48.474-.664 1.18-.504 1.938.104.498.358.995.715 1.435-.37.33-1.028.687-1.94 1.014a10.344 10.344 0 0 1-2.36-6.57c0-5.718 4.652-10.37 10.37-10.37s10.37 4.652 10.37 10.37c0 5.4-4.15 9.844-9.428 10.323zm1.098-7.835l2.444 1.59c-.04.16-.187.45-.542.73-.33.258-.65.35-.84.35l-.01.008-1.052-2.678zm1.09-3.417l2.44-1.595c.13.1.338.352.45.79.114.45.043.777-.023.92l-2.866-.115zm-6.2-.34l-2.91-.192c-.042-.158-.057-.484.117-.9.19-.45.457-.668.55-.74l2.244 1.833zM-245.252 251.965c.024.375.054.842.36 1.59.304.75.607 1.104.852 1.39.196.23.337.394.52.843.182.447.196.664.215.963.024.376.054.842.358 1.59a1 1 0 0 0 1.303.55 1 1 0 0 0 .55-1.303 2.535 2.535 0 0 1-.216-.963 4.487 4.487 0 0 0-.358-1.59 4.502 4.502 0 0 0-.853-1.39 2.565 2.565 0 0 1-.52-.84c-.183-.45-.197-.667-.217-.967a4.476 4.476 0 0 0-.36-1.59 1 1 0 1 0-1.853.753c.186.448.2.664.22.965zM-263.635 270.046c.446.188.61.332.837.53.282.248.634.555 1.378.87s1.21.35 1.584.38c.3.023.517.04.964.228.446.188.61.33.835.53.282.246.633.554 1.376.867a1 1 0 1 0 .777-1.843c-.447-.187-.61-.33-.836-.528-.28-.248-.632-.556-1.375-.87a4.49 4.49 0 0 0-1.583-.38c-.3-.023-.518-.04-.964-.228s-.61-.332-.837-.53c-.28-.248-.632-.556-1.376-.87a1 1 0 0 0-.78 1.844zM-256.426 291.986a2.535 2.535 0 0 1-.963.215c-.374.025-.84.055-1.588.36a4.502 4.502 0 0 0-1.39.852c-.23.196-.394.337-.842.52-.45.182-.666.196-.966.216a4.476 4.476 0 0 0-1.59.36 1 1 0 1 0 .753 1.852c.45-.182.666-.196.966-.216a4.476 4.476 0 0 0 1.59-.36 4.502 4.502 0 0 0 1.39-.852 2.56 2.56 0 0 1 .843-.52c.447-.182.664-.196.963-.215.374-.024.84-.054 1.588-.358a1 1 0 1 0-.754-1.854zM-241.093 306.243a1 1 0 0 0-1.31.533c-.188.446-.33.61-.53.835-.246.283-.554.634-.867 1.377a4.49 4.49 0 0 0-.38 1.583c-.024.3-.04.518-.23.964s-.33.61-.53.837c-.247.283-.555.634-.87 1.378a1 1 0 1 0 1.844.777c.188-.446.332-.61.53-.837.248-.282.555-.634.87-1.378s.35-1.21.38-1.584c.023-.3.04-.517.228-.964.188-.446.33-.61.53-.835.246-.282.554-.633.867-1.376a.997.997 0 0 0-.533-1.307zM-217.87 312.94a4.476 4.476 0 0 0-.36-1.59 4.502 4.502 0 0 0-.852-1.39 2.56 2.56 0 0 1-.52-.843 2.535 2.535 0 0 1-.215-.963 4.487 4.487 0 0 0-.358-1.59 1 1 0 1 0-1.852.754c.182.448.196.665.215.964.024.375.054.84.358 1.59.305.748.608 1.103.853 1.39.195.228.336.393.52.84.18.45.195.667.215.967.024.374.054.84.36 1.59a1 1 0 1 0 1.852-.754c-.183-.45-.197-.666-.217-.966zM-199.486 294.86c-.446-.19-.61-.333-.837-.53-.282-.25-.634-.556-1.378-.87s-1.21-.35-1.585-.38c-.3-.024-.517-.04-.964-.23-.445-.187-.608-.33-.834-.528-.282-.247-.633-.555-1.376-.868a1 1 0 1 0-.777 1.843c.446.188.61.33.835.53.282.246.633.554 1.376.867a4.49 4.49 0 0 0 1.583.38c.3.024.518.04.964.23s.612.33.838.53c.282.247.633.555 1.377.87a1 1 0 1 0 .78-1.844zM-207.07 272.993a1 1 0 0 0 .375-.074c.447-.183.664-.197.963-.216.375-.024.84-.054 1.59-.358a4.502 4.502 0 0 0 1.39-.853c.228-.196.393-.337.84-.52.45-.182.667-.196.967-.216a4.476 4.476 0 0 0 1.59-.36 1 1 0 1 0-.753-1.852c-.45.182-.666.196-.966.216a4.476 4.476 0 0 0-1.59.36 4.502 4.502 0 0 0-1.39.853 2.56 2.56 0 0 1-.843.52 2.535 2.535 0 0 1-.963.215c-.375.024-.84.054-1.59.358a1 1 0 0 0 .38 1.927zM-222.028 258.662a1 1 0 0 0 1.31-.533c.188-.446.33-.61.53-.835.246-.282.554-.633.867-1.376a4.49 4.49 0 0 0 .38-1.583c.023-.3.04-.518.228-.964s.332-.61.53-.836c.248-.282.556-.633.87-1.377a1 1 0 1 0-1.843-.777c-.188.446-.332.61-.53.837-.248.282-.555.634-.87 1.378s-.35 1.21-.38 1.584c-.023.3-.04.516-.228.963-.188.446-.33.61-.53.835-.246.282-.554.633-.867 1.376a.997.997 0 0 0 .532 1.308zM-232.82 256.327a1 1 0 0 0 2 0c0-.2.022-.263.076-.413.082-.228.194-.54.194-1.088s-.112-.86-.194-1.088c-.053-.15-.076-.21-.076-.413 0-.2.022-.262.076-.41.082-.228.194-.54.194-1.088a1 1 0 0 0-2 0 .94.94 0 0 1-.076.41c-.082.228-.194.54-.194 1.09s.112.86.194 1.088c.054.15.076.21.076.412a.95.95 0 0 1-.076.413 2.843 2.843 0 0 0-.194 1.087zM-253.4 261.828c.117.196.262.44.616.793.354.355.598.5.794.617.14.083.225.134.402.31.177.178.227.263.31.403.118.196.263.44.617.794a.997.997 0 0 0 1.413 0 1 1 0 0 0 0-1.414c-.177-.177-.227-.262-.31-.402-.118-.196-.263-.44-.616-.794-.354-.355-.6-.5-.795-.617a1.648 1.648 0 0 1-.402-.31 1.634 1.634 0 0 1-.31-.4 3.525 3.525 0 0 0-.614-.794 1 1 0 0 0-1.414 1.414c.176.176.226.26.31.4zM-257.764 281.303c-.228-.082-.54-.194-1.09-.194s-.86.11-1.088.193a.942.942 0 0 1-.412.076c-.2 0-.26-.023-.41-.077-.228-.082-.54-.194-1.088-.194a1 1 0 0 0 0 2c.2 0 .26.02.41.075.228.082.54.194 1.088.194.55 0 .86-.113 1.09-.195.148-.054.21-.076.41-.076s.264.02.413.075c.227.082.538.194 1.088.194a1 1 0 0 0 0-2 .942.942 0 0 1-.412-.077zM-250.35 299.805c-.176.177-.26.227-.4.31-.197.118-.44.263-.795.617-.354.354-.5.598-.616.794-.084.14-.135.225-.313.403-.176.175-.26.225-.4.308-.196.116-.44.26-.793.614a1 1 0 0 0 1.414 1.414c.176-.176.26-.226.4-.31.196-.116.44-.26.793-.614.355-.354.5-.6.618-.795.083-.14.134-.225.31-.402s.263-.227.403-.31c.197-.118.44-.263.795-.617a1 1 0 0 0-1.414-1.413zM-230.3 307.91a1 1 0 0 0-2 0c0 .202-.023.264-.077.413-.082.227-.194.54-.194 1.088s.11.862.193 1.09c.053.148.076.21.076.412a.94.94 0 0 1-.077.41 2.87 2.87 0 0 0-.194 1.09 1 1 0 0 0 2 0c0-.2.02-.263.075-.412.082-.227.194-.54.194-1.087 0-.55-.113-.86-.195-1.088-.053-.15-.076-.21-.076-.413s.02-.263.075-.413a2.87 2.87 0 0 0 .194-1.09zM-209.722 302.41a3.525 3.525 0 0 0-.615-.793c-.354-.354-.598-.5-.794-.616-.142-.083-.227-.133-.403-.31s-.227-.262-.31-.402c-.118-.196-.263-.44-.616-.794a1 1 0 0 0-1.414 1.413c.177.177.228.262.31.403.117.196.263.44.617.794s.598.5.794.616c.14.084.226.134.402.31.175.177.225.262.308.4.117.197.26.44.614.794a1 1 0 0 0 1.416-1.413c-.177-.176-.227-.26-.31-.4zM-201.68 281.053c-.227-.082-.538-.194-1.087-.194-.55 0-.86.11-1.09.193-.148.054-.21.076-.41.076s-.264-.023-.413-.077c-.228-.082-.54-.194-1.09-.194a1 1 0 0 0 0 2c.202 0 .264.02.413.075.228.082.54.194 1.09.194s.86-.113 1.088-.195a.942.942 0 0 1 .413-.076c.2 0 .26.02.41.075.228.082.54.194 1.088.194a1 1 0 0 0 0-2c-.2 0-.26-.023-.41-.077zM-213.48 264.726a.997.997 0 0 0 .708-.293c.177-.177.262-.227.402-.31.196-.118.44-.263.794-.617.354-.354.5-.598.616-.794.083-.14.134-.225.31-.402.177-.176.26-.226.4-.31.197-.115.44-.26.794-.614a1 1 0 0 0-1.414-1.414c-.176.176-.26.226-.4.31-.196.115-.44.26-.793.613-.355.354-.5.6-.617.795-.083.14-.134.225-.31.402s-.263.227-.403.31c-.196.118-.44.263-.794.617a1 1 0 0 0 .708 1.706zM-231.56 261.62c-11.305 0-20.5 9.195-20.5 20.5s9.195 20.5 20.5 20.5 20.5-9.197 20.5-20.5-9.197-20.5-20.5-20.5zm0 38c-9.65 0-17.5-7.852-17.5-17.5s7.85-17.5 17.5-17.5 17.5 7.85 17.5 17.5-7.85 17.5-17.5 17.5zM-117.976 262.03a1.485 1.485 0 0 0-.305-.575.993.993 0 0 0-1.197-.67c-1.068.276-1.597.647-2.022.946-.366.26-.656.463-1.374.648-.69.18-1.022.127-1.48.057-.533-.083-1.197-.186-2.29.097-.955.248-1.423.437-1.876.62-.41.167-.8.323-1.627.538-.95.246-1.418.432-1.87.61-.415.164-.806.32-1.637.535-.984.255-1.48.493-1.917.702a7.25 7.25 0 0 1-1.556.57c-.692.18-1.022.13-1.48.06-.53-.082-1.193-.183-2.282.1-.986.255-1.482.496-1.92.707-.406.196-.756.366-1.552.572-1.01.26-1.51.532-1.95.77-.39.212-.727.394-1.5.595-.772.2-1.155.205-1.598.21-.502.004-1.07.01-2.08.27a9.703 9.703 0 0 0-1.91.69c-.41.192-.764.357-1.564.565-.7.18-1.048.134-1.49.072-.526-.073-1.18-.163-2.263.118-.922.24-1.376.39-1.83.543-.42.14-.84.28-1.696.504-1.11.286-1.638.73-2.063 1.084-.353.295-.608.508-1.28.683-.8.206-1.19.233-1.64.266-.48.033-1.025.07-2.003.325-.84.22-1.26.282-1.703.35-.474.07-.965.146-1.905.39-.773.2-1.156.206-1.6.213-.498.008-1.064.017-2.07.277-1.013.263-1.514.54-1.955.787-.386.214-.72.4-1.486.6-.976.252-1.47.478-1.905.68a8.11 8.11 0 0 1-.913.366c-.132 0-.265.008-.398.043a1.49 1.49 0 0 0-.573.302.92.92 0 0 0-.17.16c0 .003-.002.004-.003.006-.06.067-.113.134-.153.214-.2.336-.27.748-.16 1.156 3.94 14.706 17.568 24.37 32.562 24.37 3.015 0 6.086-.39 9.144-1.21 18.263-4.895 29.272-23.25 24.538-40.913zm-58.026 15.374c.773-.2 1.156-.206 1.6-.213.498-.007 1.064-.016 2.07-.276.84-.218 1.258-.28 1.702-.35.475-.07.966-.145 1.906-.39.8-.206 1.19-.233 1.64-.266a9.563 9.563 0 0 0 2.002-.325c1.108-.287 1.637-.73 2.062-1.084.353-.296.608-.51 1.28-.684.925-.24 1.378-.392 1.832-.543.42-.14.84-.28 1.697-.504.7-.18 1.048-.134 1.488-.073.528.073 1.184.163 2.264-.118a9.662 9.662 0 0 0 1.91-.69c.41-.19.764-.357 1.564-.565.77-.2 1.154-.203 1.597-.207a7.56 7.56 0 0 0 2.08-.272 7.568 7.568 0 0 0 1.95-.77c.39-.212.728-.394 1.5-.594a9.08 9.08 0 0 0 1.922-.708 7.085 7.085 0 0 1 1.55-.57c.695-.18 1.024-.13 1.48-.06.532.08 1.193.18 2.283-.102.984-.255 1.48-.493 1.917-.702a7.25 7.25 0 0 1 1.555-.57c.95-.246 1.418-.432 1.87-.61.415-.164.806-.32 1.637-.535.954-.247 1.422-.437 1.875-.62.412-.166.8-.323 1.628-.538.692-.18 1.023-.128 1.48-.057l.063.01c3.356 13.8-5.37 28-19.706 31.84-2.448.656-4.903.97-7.315.97-11.907-.002-22.715-7.627-25.836-19.245.37-.206.707-.387 1.452-.58zm32.71 22.64c-16.515 4.424-33.412-4.808-37.905-20.61l.182-.083c.412-.188.768-.352 1.572-.56.05-.014.086-.028.134-.04 3.45 12.37 14.986 20.48 27.692 20.48 2.582-.002 5.213-.336 7.832-1.038 15.247-4.085 24.575-19.117 21.228-33.843.065-.016.12-.02.187-.038.808-.21 1.307-.474 1.687-.72 3.774 15.824-6.214 32.06-22.608 36.453z"/><path d="M-167.723 285.163c.417 0 .833-.174 1.13-.513l1.426-1.63a1.5 1.5 0 0 0-2.258-1.975l-1.427 1.63a1.5 1.5 0 0 0 1.13 2.488zM-156.77 291.672a1.5 1.5 0 0 0 1.63-1.357l.2-2.157a1.5 1.5 0 0 0-2.988-.274l-.197 2.157a1.5 1.5 0 0 0 1.356 1.632zM-153.23 282.3a1.5 1.5 0 0 0 2.975-.377l-.27-2.15a1.5 1.5 0 0 0-2.977.376l.27 2.15zM-133.16 276.85l1.828 1.16a1.5 1.5 0 1 0 1.607-2.533l-1.83-1.16a1.5 1.5 0 1 0-1.607 2.533zM-140.657 277.5a1.496 1.496 0 0 0 2.12.088 1.5 1.5 0 0 0 .09-2.12l-1.466-1.595a1.5 1.5 0 0 0-2.21 2.03l1.466 1.596zM-142.694 289.496a1.5 1.5 0 1 0 2.747-1.208l-.872-1.983a1.5 1.5 0 0 0-2.746 1.207l.872 1.984zM66.33 61.882l-8.866-33.086a1.497 1.497 0 0 0-1.276-1.1 1.5 1.5 0 0 0-.88-.025c-.38.106-1.022.202-1.35.202a3.92 3.92 0 0 1-3.61-2.387 1.494 1.494 0 0 0-1.703-.876 3.912 3.912 0 0 1-4.607-2.696 1.5 1.5 0 0 0-1.13-1.036c-1.485-.31-2.93-1.892-3.22-3.524a1.5 1.5 0 0 0-1.74-1.214 1.54 1.54 0 0 0-.37.123 1.51 1.51 0 0 0-.436.105c-6.446 2.748-10 9.703-8.264 16.177L38.72 69.28a1.5 1.5 0 0 0 1.837 1.06l8.935-2.394 3.135 11.7c.645 2.41 1.344 3.81 2.267 4.542.586.465 1.203.6 1.746.6.506 0 .948-.117 1.237-.195.697-.187 1.864-.498 2.39-1.786.44-1.082.344-2.66-.315-5.122l-3.135-11.7 8.452-2.265a1.504 1.504 0 0 0 1.06-1.838zm-8.31 16.32c.645 2.403.57 3.42.396 3.85-.12.29-.336.417-1.056.61-.75.2-.982.15-1.222-.04-.373-.296-.95-1.142-1.58-3.492l-3.134-11.7 3.46-.928 3.137 11.7zM41.23 67.054l-9.455-35.286c-1.257-4.692 1.096-9.72 5.525-12.142.84 1.794 2.393 3.292 4.16 3.946 1.138 2.573 3.79 4.265 6.678 4.125a6.915 6.915 0 0 0 5.822 3.175c.285 0 .61-.03.935-.075l8.15 30.412-21.815 5.844z"/></svg>