<svg xmlns="http://www.w3.org/2000/svg" xmlns:xlink="http://www.w3.org/1999/xlink" version="1.1" x="0px" y="0px" viewBox="0 0 100 100" enable-background="new 0 0 100 100" xml:space="preserve"><path d="M-297.462,172.441c0.565,0.199,1.195,0.043,1.601-0.397c0.044-0.048,4.518-4.811,10.914-4.811c1.43,0,2.87,0.242,4.28,0.719  c0.158,0.053,0.32,0.079,0.48,0.079c0.006,0,0.014,0.001,0.02,0c0.829,0,1.5-0.671,1.5-1.5c0-0.362-0.128-0.695-0.343-0.955  c-1.179-1.931-10.117-15.452-29.004-15.452c-3.718,0-7.625,0.542-11.612,1.61c-28.017,7.507-27.808,32.196-27.803,32.444  c0.013,0.617,0.404,1.161,0.983,1.374c0.168,0.062,0.343,0.092,0.516,0.092c0.422,0,0.834-0.178,1.125-0.505  c0.042-0.046,4.226-4.674,10.416-4.674c1.425,0,2.872,0.245,4.302,0.729c0.562,0.191,1.19,0.027,1.592-0.414  c0.043-0.047,4.358-4.71,10.471-4.71c0.694,0,1.392,0.062,2.088,0.182l3.375,11.812l-0.021,29.101  c-0.064-0.019-0.128-0.038-0.192-0.058c-1.686-0.513-3.428-1.043-6.863-1.043c-3.436,0-5.179,0.53-6.865,1.043  c-1.617,0.492-3.145,0.957-6.283,0.957c-3.137,0-4.664-0.465-6.281-0.957c-1.685-0.513-3.428-1.043-6.863-1.043  c-0.552,0-1,0.448-1,1s0.448,1,1,1c3.137,0,4.664,0.465,6.281,0.957c1.685,0.513,3.428,1.043,6.863,1.043  c3.436,0,5.179-0.53,6.865-1.043c1.617-0.492,3.145-0.957,6.283-0.957c3.137,0,4.664,0.465,6.281,0.957  c1.686,0.513,3.428,1.043,6.863,1.043c3.437,0,5.181-0.53,6.868-1.043c1.618-0.492,3.146-0.957,6.286-0.957s4.668,0.465,6.286,0.957  c1.687,0.513,3.431,1.043,6.868,1.043c0.552,0,1-0.448,1-1s-0.448-1-1-1c-3.14,0-4.668-0.465-6.286-0.957  c-1.687-0.513-3.431-1.043-6.868-1.043s-5.181,0.53-6.868,1.043c-1.618,0.492-3.146,0.957-6.286,0.957  c-0.159,0-0.297-0.006-0.449-0.008l0.008-29.857c0-0.093-0.013-0.186-0.039-0.275l-3.658-12.895c1.772-1.39,4.953-3.331,8.928-3.331  C-300.288,171.697-298.861,171.947-297.462,172.441z M-312.894,172.995l-4.982-18.593c0.086-0.021,0.172-0.04,0.258-0.061  c11.902,1.462,17.052,10.359,18.864,14.652c-0.98-0.192-1.965-0.297-2.949-0.297C-306.866,168.697-310.852,171.305-312.894,172.995z   M-310.563,189.313l1.628-0.214l0,1.141h-1.629L-310.563,189.313z M-309.28,187.127l-1.416,0.186l-0.254-0.89l1.359-0.387  L-309.28,187.127z M-311.5,184.5l-2.191-7.668c0.486,0.138,1,0.017,1.38-0.313l2.169,7.594L-311.5,184.5z M-283.667,164.285  c-0.427-0.035-0.854-0.052-1.28-0.052c-5.503,0-9.727,2.83-11.769,4.531c-1.578-3.842-6.028-12.149-15.836-15.343  c1.54-0.185,3.059-0.297,4.538-0.297C-295,153.124-287.171,160.124-283.667,164.285z M-344.099,180.629  c0.959-5.861,4.701-17.655,19.196-23.902c-6.85,7.613-6.607,16.954-6.061,21.119c-1.14-0.25-2.287-0.38-3.425-0.38  C-338.545,177.466-341.891,179.108-344.099,180.629z M-329.057,177.24c-0.592-4.568-0.668-14.982,9.015-22.263  c0.077-0.023,0.155-0.045,0.232-0.067l4.956,18.497c-1.052-0.222-2.113-0.336-3.17-0.336  C-323.061,173.07-326.973,175.55-329.057,177.24z M-310.583,217.692l0.018-25.451h1.629l-0.007,25.703  C-309.553,217.879-310.093,217.794-310.583,217.692z"/><path d="M-220.618,169.694c0.156,0.09,0.328,0.134,0.5,0.134c0.234,0,0.467-0.083,0.653-0.243l9.057-7.809  c0.246-0.211,0.373-0.529,0.343-0.851s-0.215-0.61-0.496-0.772l-19.052-11.002c-0.281-0.161-0.622-0.178-0.917-0.043  c-0.294,0.135-0.505,0.404-0.566,0.722l-2.237,11.748c-0.08,0.418,0.114,0.84,0.482,1.053l3.445,1.99l-2.82,4.882  c-1.826-0.176-3.711-0.275-5.625-0.275c-10.801,0-21.735,3.171-21.735,9.233c0,0.056,0.003,0.112,0.009,0.167l0.348,3.146  c-1.654,2.555-2.529,5.437-2.529,8.407c0,5.115,1.052,9.49,4.963,13.222l1.589,14.152c0.209,4.684,14.478,4.922,17.355,4.922  s17.146-0.238,17.355-4.922l4.37-38.927c0.006-0.056,0.009-0.111,0.009-0.167c0-3.398-3.644-6.347-9.609-7.88l1.66-2.875  L-220.618,169.694z M-257.767,199.295c-1.603-2.496-1.99-5.639-1.99-9.115c0-1.649,0.316-3.271,0.919-4.812  c0,0,0.648,8.584,1.173,10.276v0c0,0,0,0,0,0c0.126,0.407,0.277,0.811,0.452,1.21c0.023,0.054,0.045,0.109,0.069,0.163  c0.19,0.414,0.398,0.824,0.647,1.223c0.206,0.33,0.437,0.642,0.68,0.945c0.11,0.139,0.224,0.275,0.341,0.41  c0.101,0.114,0.208,0.223,0.314,0.333c2.125,2.243,5.303,3.732,9.525,4.412c1.13,0.18,2.23,0.27,3.28,0.27  c13.07,0,14.9-14.04,14.91-14.15c0-0.01,0.23-1.36,1.07-1.36c0.07,0,0.13,0,0.2,0.01c0.24,0.04,0.56,0.13,0.67,0.32  c0.15,0.24,0.07,0.68-0.01,0.92c-2.56,8.97-5.43,15.83-16.93,15.83c-0.84,0-1.73-0.04-2.65-0.12  c-3.432-0.289-6.388-1.399-8.734-3.155C-255.196,201.885-256.85,200.724-257.767,199.295z M-219.118,178.389l-4.357,38.816  c-0.842,0.81-5.812,2.271-14.376,2.271c-8.564,0-13.534-1.461-14.375-2.271l-1.318-11.735c2.365,1.42,5.158,2.324,8.276,2.59  c0.97,0.08,1.92,0.12,2.82,0.12c13.92,0,16.77-9.99,18.83-17.21c0.05-0.15,0.49-1.43-0.16-2.55c-0.29-0.48-0.88-1.09-2.1-1.28  c-2.44-0.38-3.38,1.88-3.55,3.05c0,0.03-0.41,3.21-2.24,6.32c-2.86,4.86-7.48,6.84-13.65,5.85c-4.296-0.69-7.341-2.259-9.098-4.652  l-0.757-6.742l0,0l-1.17-10.424l0,0l-0.242-2.153c0.122-2.93,7.781-6.163,18.733-6.163c1.343,0,2.661,0.063,3.962,0.154  l-1.109,1.919c-0.938-0.05-1.891-0.082-2.853-0.082c-8.418,0-16.94,1.998-16.94,5.815s8.522,5.814,16.94,5.814  s16.941-1.997,16.941-5.814c0-2.745-4.185-4.186-7.449-4.892l1.069-1.852C-221.765,174.524-219.189,176.757-219.118,178.389z   M-236.138,176.273l-4.336,7.505c-8.09-0.393-12.317-2.539-12.317-3.746c0-1.332,5.131-3.815,14.94-3.815  C-237.272,176.217-236.71,176.254-236.138,176.273z M-233.271,183.645l3.856-6.678c4.718,0.918,6.504,2.346,6.504,3.065  C-222.91,181.137-226.457,183.032-233.271,183.645z M-225.297,165.837l-10.283,17.807c-0.028,0.049-0.032,0.102-0.052,0.153  c-0.714,0.029-1.447,0.049-2.219,0.049c-0.12,0-0.231-0.005-0.35-0.006l11.027-19.087c0,0,0,0,0.001-0.001  c0.276-0.478,0.112-1.09-0.366-1.366l-3.696-2.134l1.841-9.667l16.613,9.594l-7.453,6.426l-3.696-2.135c0,0,0,0-0.001,0c0,0,0,0,0,0  C-224.41,165.194-225.021,165.359-225.297,165.837z"/><path d="M-220.544,165.107c0.24,0,0.478-0.086,0.666-0.254l2.782-2.483c0.239-0.214,0.362-0.529,0.329-0.849  c-0.033-0.319-0.217-0.603-0.495-0.764l-9.526-5.501c-0.283-0.163-0.627-0.177-0.923-0.04c-0.296,0.138-0.505,0.412-0.562,0.733  l-0.653,3.713c-0.073,0.414,0.121,0.829,0.485,1.04l7.397,4.271C-220.889,165.063-220.716,165.107-220.544,165.107z   M-226.551,157.704l7.091,4.095l-1.211,1.081l-6.165-3.56L-226.551,157.704z"/><path d="M-175.03,202.246h17.11c0.007,0,0.013,0,0.02,0c0.829,0,1.5-0.671,1.5-1.5c0-0.274-0.074-0.532-0.203-0.753  c-6.293-16.539,0.057-38.602,0.122-38.824c0.178-0.607-0.043-1.261-0.555-1.634c-0.51-0.372-1.201-0.385-1.726-0.03  c-0.726,0.491-17.769,12.369-17.769,41.242C-176.53,201.575-175.858,202.246-175.03,202.246z M-160.514,165.069  c-1.532,7.301-3.588,21.702,0.468,34.178h-13.468C-173.104,180.861-165.21,169.955-160.514,165.069z"/><path d="M-149.92,202.246h18.375c0.007,0,0.013,0,0.02,0c0.829,0,1.5-0.671,1.5-1.5c0-0.33-0.106-0.634-0.287-0.882  c-8.992-17.571-18.089-45.792-18.18-46.077c-0.226-0.703-0.929-1.135-1.66-1.023c-0.73,0.114-1.268,0.743-1.268,1.482v46.5  C-151.42,201.575-150.749,202.246-149.92,202.246z M-148.42,163.369c3.254,9.333,8.797,24.385,14.443,35.877h-14.443V163.369z"/><path d="M-118.92,219.371c-1.642,0-2.416-0.41-3.312-0.884c-0.989-0.523-2.11-1.116-4.248-1.116c-2.139,0-3.259,0.593-4.249,1.116  c-0.896,0.474-1.67,0.884-3.312,0.884c-1.161,0-1.886-0.207-2.529-0.495l6.23-2.497c0.558-0.233,0.92-0.779,0.92-1.383v-4.5  c0-0.829-0.671-1.5-1.5-1.5h-9.33V206c0-0.829-0.671-1.5-1.5-1.5h-11.75v-53.378c0-0.552-0.448-1-1-1s-1,0.448-1,1V204.5h-10.112  c-0.345,0-0.679,0.119-0.946,0.336l-5.105,4.15c-0.004,0.003-0.006,0.007-0.01,0.01h-9.247c-0.637,0-1.205,0.402-1.416,1.003  s-0.019,1.27,0.479,1.668l7.557,6.046c-0.703,0.216-1.251,0.503-1.762,0.774c-0.896,0.474-1.669,0.884-3.309,0.884  c-1.639,0-2.412-0.41-3.307-0.884c-0.988-0.523-2.107-1.116-4.243-1.116c-0.552,0-1,0.448-1,1s0.448,1,1,1  c1.639,0,2.412,0.41,3.307,0.884c0.988,0.523,2.107,1.116,4.243,1.116c2.137,0,3.257-0.593,4.245-1.116  c0.895-0.474,1.668-0.884,3.308-0.884c1.64,0,2.414,0.41,3.309,0.884c0.988,0.523,2.107,1.116,4.244,1.116s3.257-0.593,4.245-1.116  c0.896-0.474,1.669-0.884,3.309-0.884s2.414,0.41,3.31,0.884c0.988,0.523,2.108,1.116,4.246,1.116c2.138,0,3.258-0.593,4.247-1.116  c0.896-0.474,1.67-0.884,3.312-0.884c1.64,0,2.414,0.41,3.31,0.884c0.988,0.523,2.108,1.116,4.246,1.116  c2.138,0,3.259-0.593,4.248-1.116c0.896-0.474,1.671-0.884,3.313-0.884s2.416,0.41,3.312,0.884c0.989,0.523,2.11,1.116,4.248,1.116  c0.552,0,1-0.448,1-1S-118.368,219.371-118.92,219.371z M-165.079,207.5h21.829v1.496h-23.669L-165.079,207.5z M-145.844,218.488  c-0.896,0.474-1.67,0.884-3.311,0.884c-1.641,0-2.414-0.41-3.31-0.884c-0.988-0.523-2.108-1.116-4.245-1.116  c-2.137,0-3.257,0.593-4.245,1.116c-0.896,0.474-1.669,0.884-3.309,0.884c-1.64,0-2.413-0.41-3.308-0.884  c-0.568-0.301-1.187-0.621-2.011-0.842l-7.061-5.649h44.224v2.002l-8.179,3.426c-0.309-0.031-0.634-0.053-0.998-0.053  C-143.735,217.371-144.855,217.964-145.844,218.488z"/><path d="M-37.059,220.302c-3.14,0-4.668-0.465-6.286-0.957c-1.687-0.513-3.431-1.043-6.868-1.043c-2.915,0-4.609,0.382-6.086,0.811  c1.628-22.87-7.098-39.997-10.166-45.232c0.354-0.019,0.727-0.034,1.131-0.05l0.779-0.032c0.352-0.016,0.714-0.045,1.088-0.075  c0.632-0.05,1.286-0.103,1.953-0.09c0.927,0.019,1.885,0.096,3.043,0.195c0.422,0.036,0.855,0.045,1.296,0.054  c0.61,0.012,1.187,0.024,1.756,0.111c0.472,0.072,0.971,0.236,1.499,0.411c0.461,0.152,0.938,0.31,1.448,0.424  c0.34,0.076,0.686,0.144,1.034,0.212c0.643,0.126,1.308,0.257,1.939,0.446c0.772,0.231,1.78,0.585,3.081,1.083  c0.115,0.044,0.236,0.066,0.357,0.066c0.141,0,0.282-0.03,0.413-0.089c0.243-0.11,0.432-0.313,0.525-0.563  c0.651-1.753-0.542-2.409-1.254-2.801c-0.384-0.211-0.782-0.43-1.171-0.816c-0.646-0.64-1.51-1.358-2.566-2.134l-0.255-0.188  c-0.752-0.555-1.604-1.184-2.576-1.658c-0.771-0.376-1.598-0.536-2.397-0.69c-0.3-0.058-0.602-0.116-0.9-0.187  c-1.284-0.305-2.324-0.428-3.375-0.411c-1.023,0.02-2.183,0.042-3.397,0.378c-0.741,0.204-1.441,0.525-2.154,0.887  c0.106-0.096,0.195-0.201,0.311-0.29c0.401-0.308,0.955-0.557,1.541-0.82c0.332-0.148,0.672-0.302,1.014-0.476l0.354-0.181  c0.706-0.362,1.435-0.737,2.254-0.989c0.813-0.251,1.703-0.385,2.828-0.555c0.856-0.129,1.803-0.205,2.896-0.23  c0.362-0.008,0.731-0.037,1.107-0.066c0.603-0.048,1.228-0.098,1.836-0.045c0.362,0.03,0.735,0.044,1.115,0.058  c0.614,0.022,1.25,0.045,1.86,0.152c0.664,0.115,1.357,0.297,2.092,0.49l0.821,0.212c0.569,0.143,1.136,0.34,1.737,0.548  c0.346,0.12,0.7,0.242,1.067,0.36c0.26,0.083,0.542,0.056,0.782-0.074c0.24-0.13,0.416-0.353,0.488-0.616  c0.499-1.828-0.85-2.235-1.425-2.409c-0.393-0.119-0.798-0.241-1.22-0.596c-0.232-0.195-0.479-0.47-0.741-0.761  c-0.435-0.484-0.928-1.032-1.578-1.482c-0.567-0.392-1.198-0.663-1.809-0.926c-0.369-0.159-0.743-0.318-1.1-0.509  c-0.911-0.486-1.875-0.82-2.808-1.145l-0.199-0.069c-0.305-0.106-0.605-0.236-0.906-0.366c-0.699-0.301-1.421-0.612-2.249-0.709  c-1.304-0.154-2.428-0.141-3.438,0.039c-1.154,0.206-2.216,0.754-3.205,1.298c-0.922,0.507-1.896,1.076-2.782,1.954  c-0.541,0.536-0.935,1.2-1.317,1.842c-0.176,0.295-0.356,0.599-0.556,0.898c-0.138,0.206-0.285,0.413-0.435,0.625  c-0.43,0.607-0.917,1.296-1.312,2.109c-0.385,0.795-0.828,1.744-1.221,2.788l0.04-0.164c0.23-0.963,0.538-1.939,0.914-2.901  c0.086-0.219,0.17-0.445,0.256-0.675c0.264-0.708,0.537-1.44,0.925-2.149c0.337-0.616,0.792-1.24,1.275-1.901l0.46-0.635  c0.629-0.881,1.256-1.666,1.918-2.399l0.257-0.287c0.585-0.652,1.19-1.327,1.876-1.944c0.401-0.361,0.894-0.682,1.416-1.021  c0.372-0.242,0.75-0.489,1.118-0.761c0.328-0.242,0.645-0.506,0.965-0.774c0.491-0.41,0.955-0.798,1.481-1.121  c0.459-0.282,0.612-0.877,0.346-1.346c-0.934-1.643-2.157-1.128-2.814-0.851c-0.387,0.162-0.786,0.331-1.346,0.374  c-0.954,0.075-2.01,0.263-3.304,0.522c-0.306,0.062-0.623,0.11-0.944,0.159c-0.779,0.12-1.584,0.244-2.386,0.544  c-1.195,0.447-2.247,0.975-3.128,1.567c-0.911,0.613-1.775,1.458-2.571,2.514c-0.652,0.866-0.932,1.9-1.203,2.9l-0.117,0.426  c-0.259,0.928-0.581,2.084-0.544,3.443c0.026,0.984,0.258,1.98,0.503,3.034l0.075,0.324c0.067,0.292,0.123,0.597,0.18,0.91  c0.054,0.297,0.114,0.614,0.185,0.938c-0.372-0.395-0.754-0.787-1.176-1.13c-0.317-0.257-0.611-0.531-0.898-0.798  c-0.514-0.477-1.045-0.971-1.659-1.342c-0.912-0.552-1.856-0.909-2.69-1.224l-0.394-0.149c-1.104-0.423-2.194-0.584-3.157-0.727  l-0.149-0.022c-1.198-0.179-2.276-0.077-3.383,0.027c-0.331,0.031-0.663,0.042-0.992,0.052c-0.787,0.026-1.6,0.052-2.401,0.321  c-0.918,0.309-1.706,0.774-2.467,1.225l-0.547,0.321c-0.793,0.454-1.465,1.023-2.059,1.525c-0.197,0.167-0.391,0.332-0.586,0.489  l-0.543,0.434c-0.724,0.575-1.408,1.118-1.965,1.707c-0.388,0.41-0.784,0.611-1.167,0.806c-0.568,0.289-1.897,0.964-1.011,2.724  c0.218,0.435,0.719,0.647,1.186,0.506l0.413-0.126c0.917-0.281,1.782-0.547,2.66-0.76c0.474-0.115,0.938-0.253,1.395-0.39  c0.612-0.184,1.19-0.356,1.75-0.456c0.594-0.105,1.199-0.129,1.839-0.154c0.478-0.019,0.948-0.038,1.405-0.088  c0.495-0.055,0.98-0.138,1.458-0.22c0.62-0.107,1.205-0.208,1.755-0.231c0.639-0.024,1.295,0.031,1.929,0.086  c0.446,0.039,0.882,0.077,1.309,0.089c1.157,0.035,2.269-0.022,3.231,0.079c0.414,0.043,0.82,0.077,1.216,0.109  c0.724,0.059,1.408,0.114,2.006,0.227c0.57,0.107,1.105,0.395,1.624,0.674c0.197,0.106,0.399,0.212,0.604,0.311  c-0.619-0.062-1.236-0.107-1.861-0.096c-1.105,0.011-2.149,0.021-3.136,0.21c-1.087,0.209-2.144,0.554-3.142,1.023  c-0.942,0.443-1.815,1.048-2.747,1.904c-0.843,0.775-1.55,1.644-2.103,2.582c-0.539,0.913-1.093,1.895-1.424,2.973  c-0.316,1.031-0.553,2.128-0.684,3.175c-0.104,0.827-0.038,1.601,0.02,2.284c0.027,0.32,0.054,0.628,0.058,0.918  c0.007,0.529-0.157,0.947-0.316,1.35c-0.234,0.595-0.782,1.988,0.95,2.735c0.128,0.055,0.263,0.082,0.396,0.082  c0.336,0,0.662-0.17,0.85-0.472c0.441-0.709,0.98-1.441,1.502-2.149l0.329-0.448c0.276-0.377,0.525-0.771,0.771-1.162  c0.313-0.497,0.61-0.967,0.945-1.363c0.435-0.513,0.926-0.997,1.402-1.464c0.247-0.243,0.491-0.482,0.726-0.725  c0.774-0.797,1.472-1.508,2.173-2.14c0.917-0.826,1.654-1.456,2.32-1.982c0.561-0.443,1.142-0.825,1.705-1.194  c0.277-0.182,0.546-0.359,0.804-0.537c0.361-0.25,0.703-0.496,1.028-0.732c0.529-0.383,1.029-0.745,1.473-1.008  c0.116-0.069,0.212-0.127,0.31-0.187c1.907,4.073,9.701,22.635,5.232,45.319c-0.819-0.169-1.52-0.377-2.23-0.593  c-1.686-0.513-3.428-1.043-6.863-1.043c-3.436,0-5.179,0.53-6.865,1.043c-1.617,0.492-3.145,0.957-6.283,0.957  c-3.137,0-4.664-0.465-6.281-0.957c-1.686-0.513-3.428-1.043-6.863-1.043c-0.552,0-1,0.448-1,1s0.448,1,1,1  c3.137,0,4.665,0.465,6.281,0.957c1.686,0.513,3.428,1.043,6.863,1.043c3.436,0,5.179-0.53,6.865-1.043  c1.617-0.492,3.145-0.957,6.283-0.957c3.137,0,4.664,0.465,6.281,0.957c1.686,0.513,3.428,1.043,6.863,1.043  c3.437,0,5.181-0.53,6.868-1.043c1.618-0.492,3.146-0.957,6.286-0.957s4.668,0.465,6.286,0.957c1.687,0.513,3.431,1.043,6.868,1.043  c0.552,0,1-0.448,1-1S-36.506,220.302-37.059,220.302z M-62.557,190.739c-0.694,0.3-1.292,0.456-1.787,0.53  c-0.282-1.541-0.594-3.012-0.927-4.394c0.392-0.078,0.823-0.201,1.291-0.391C-63.494,187.813-63.015,189.233-62.557,190.739z   M-61.057,196.393c-0.98,0.356-1.815,0.514-2.455,0.562c-0.141-1.278-0.308-2.519-0.497-3.718c0.59-0.091,1.266-0.263,2.014-0.564  C-61.663,193.867-61.349,195.108-61.057,196.393z M-63.038,204.765c0.862-0.03,1.997-0.191,3.338-0.673  c0.14,1.114,0.26,2.249,0.354,3.408c-1.59,0.748-2.872,0.97-3.733,1.001C-63.033,207.231-63.024,205.988-63.038,204.765z   M-59.983,202.056c-1.306,0.528-2.359,0.687-3.103,0.713c-0.048-1.308-0.127-2.586-0.233-3.832c0.743-0.059,1.65-0.22,2.684-0.569  C-60.394,199.563-60.175,200.793-59.983,202.056z M-65.767,184.929c-1.033-3.858-2.17-6.955-3.064-9.113  c1.01,1.791,2.564,4.799,4.138,8.793C-65.101,184.778-65.459,184.876-65.767,184.929z M-63.183,210.501  c0.976-0.018,2.344-0.211,3.977-0.872c0.062,1.179,0.095,2.38,0.101,3.6c-2.013,0.998-3.56,1.143-4.421,1.113  C-63.378,213.043-63.262,211.761-63.183,210.501z M-62.481,169.404c0.973-0.269,1.955-0.288,2.905-0.306  c0.87-0.024,1.76,0.092,2.874,0.357c0.326,0.077,0.655,0.141,0.982,0.205c0.703,0.136,1.367,0.264,1.9,0.524  c0.808,0.394,1.548,0.94,2.265,1.469l0.259,0.191c0.8,0.587,1.473,1.131,2.006,1.623c-0.598-0.16-1.188-0.276-1.761-0.389  c-0.332-0.065-0.66-0.129-0.984-0.202c-0.413-0.092-0.823-0.228-1.257-0.371c-0.583-0.193-1.186-0.392-1.824-0.489  c-0.699-0.106-1.37-0.12-2.018-0.133c-0.397-0.008-0.788-0.015-1.167-0.048c-1.152-0.098-2.187-0.181-3.172-0.202  c-0.087-0.001-0.173-0.002-0.258-0.002c-0.669,0-1.292,0.05-1.896,0.1c-0.349,0.028-0.688,0.056-1.016,0.07l-0.77,0.032  c-0.828,0.033-1.607,0.066-2.301,0.14c-0.015-0.014-0.032-0.025-0.047-0.038c0.5-0.351,1.07-0.614,1.627-0.864  c0.329-0.147,0.649-0.291,0.951-0.448l0.248-0.129C-64.071,170.043-63.256,169.617-62.481,169.404z M-66.343,166.506  c0.322-0.665,0.74-1.255,1.145-1.827c0.16-0.226,0.316-0.447,0.463-0.667c0.221-0.33,0.42-0.664,0.613-0.989  c0.333-0.56,0.647-1.088,1.006-1.444c0.703-0.696,1.541-1.183,2.338-1.622c0.843-0.463,1.737-0.929,2.592-1.081  c0.428-0.076,0.888-0.114,1.39-0.114c0.453,0,0.938,0.031,1.463,0.093c0.539,0.063,1.1,0.305,1.693,0.56  c0.344,0.148,0.689,0.295,1.039,0.417l0.201,0.07c0.9,0.312,1.75,0.607,2.522,1.02c0.407,0.217,0.832,0.401,1.251,0.582  c0.544,0.234,1.059,0.456,1.461,0.733c0.427,0.296,0.798,0.696,1.154,1.092c-0.574-0.147-1.131-0.282-1.696-0.38  c-0.745-0.13-1.45-0.155-2.131-0.18c-0.348-0.012-0.688-0.024-1.02-0.052c-0.771-0.064-1.509-0.007-2.161,0.045  c-0.338,0.027-0.67,0.053-0.996,0.061c-1.178,0.027-2.208,0.109-3.242,0.266c-1.063,0.16-2.068,0.312-3.024,0.607  c-0.987,0.304-1.832,0.738-2.578,1.122l-0.344,0.176c-0.313,0.159-0.625,0.298-0.929,0.435c-0.665,0.299-1.353,0.607-1.94,1.058  c-0.154,0.118-0.299,0.24-0.435,0.363C-66.453,166.731-66.398,166.617-66.343,166.506z M-72.003,159.034l0.121-0.441  c0.241-0.892,0.45-1.662,0.869-2.219c0.662-0.877,1.365-1.57,2.091-2.059c0.751-0.505,1.664-0.961,2.713-1.354  c0.608-0.228,1.279-0.331,1.989-0.44c0.352-0.054,0.699-0.108,1.034-0.175c1.222-0.245,2.211-0.422,3.065-0.489  c0.068-0.005,0.136-0.012,0.202-0.02c-0.06,0.046-0.119,0.091-0.179,0.135c-0.335,0.249-0.681,0.473-1.02,0.693  c-0.562,0.366-1.145,0.745-1.662,1.211c-0.766,0.689-1.407,1.404-2.027,2.096l-0.254,0.283c-0.712,0.791-1.385,1.633-2.059,2.575  l-0.448,0.618c-0.523,0.715-1.016,1.391-1.416,2.122c-0.457,0.835-0.769,1.671-1.044,2.41c-0.082,0.22-0.162,0.436-0.244,0.645  c-0.41,1.048-0.746,2.113-0.997,3.166l-0.004,0.017c-0.235-0.644-0.356-1.312-0.474-1.958c-0.063-0.344-0.124-0.679-0.198-1.001  l-0.077-0.328c-0.231-0.994-0.431-1.852-0.452-2.634C-72.503,160.828-72.237,159.875-72.003,159.034z M-76.855,168.091  c-0.701-0.132-1.436-0.191-2.214-0.255c-0.381-0.031-0.771-0.062-1.17-0.104c-1.08-0.113-2.19-0.055-3.381-0.088  c-0.389-0.012-0.787-0.047-1.193-0.083c-0.567-0.05-1.151-0.101-1.763-0.101c-0.14,0-0.282,0.003-0.425,0.009  c-0.679,0.028-1.356,0.145-2.01,0.258c-0.439,0.076-0.885,0.153-1.338,0.203c-0.411,0.045-0.833,0.061-1.263,0.078  c-0.679,0.026-1.382,0.054-2.111,0.183c-0.674,0.12-1.335,0.318-1.975,0.509c-0.42,0.126-0.846,0.254-1.281,0.36  c0.44-0.433,1-0.877,1.588-1.345l0.555-0.443c0.207-0.167,0.414-0.342,0.624-0.52c0.553-0.468,1.125-0.953,1.758-1.315  c0.19-0.108,0.381-0.221,0.573-0.335c0.672-0.397,1.367-0.809,2.085-1.05c0.523-0.176,1.158-0.196,1.831-0.218  c0.369-0.012,0.742-0.025,1.178-0.066c0.966-0.091,1.88-0.178,2.837-0.034l0.152,0.022c0.902,0.133,1.835,0.271,2.732,0.615  l0.404,0.153c0.79,0.298,1.607,0.607,2.362,1.063c0.438,0.266,0.873,0.669,1.333,1.097c0.319,0.297,0.647,0.6,1,0.886  c0.446,0.362,0.872,0.823,1.323,1.31c0.058,0.063,0.117,0.126,0.176,0.19c-0.061-0.032-0.123-0.066-0.185-0.099  C-75.275,168.634-75.98,168.255-76.855,168.091z M-75.605,174.194c-0.313,0.227-0.643,0.465-0.991,0.706  c-0.245,0.169-0.502,0.338-0.766,0.511c-0.599,0.393-1.218,0.8-1.847,1.297c-0.701,0.554-1.469,1.21-2.418,2.066  c-0.747,0.673-1.469,1.409-2.269,2.232c-0.225,0.231-0.458,0.46-0.693,0.692c-0.508,0.499-1.033,1.015-1.527,1.598  c-0.426,0.503-0.773,1.055-1.11,1.588c-0.222,0.352-0.446,0.708-0.695,1.049l-0.095,0.129c0-0.024,0-0.048,0-0.072  c-0.004-0.336-0.033-0.691-0.065-1.062c-0.052-0.614-0.105-1.249-0.028-1.868c0.117-0.933,0.328-1.914,0.611-2.835  c0.268-0.87,0.757-1.734,1.235-2.545c0.459-0.78,1.027-1.475,1.734-2.125c0.777-0.715,1.491-1.213,2.244-1.567  c0.859-0.404,1.733-0.688,2.669-0.869c0.809-0.156,1.721-0.165,2.869-0.175c0.029,0,0.059,0,0.088,0c0.766,0,1.58,0.09,2.569,0.208  C-74.577,173.45-75.077,173.812-75.605,174.194z M-64.431,220.282c0.259-1.335,0.474-2.653,0.656-3.955  c0.135,0.007,0.267,0.016,0.426,0.016c0.999,0,2.464-0.183,4.224-0.909c-0.033,1.378-0.098,2.774-0.213,4.196  c-0.009,0.106-0.005,0.211,0.008,0.312c-1.043,0.213-2.285,0.36-4.036,0.36C-63.744,220.302-64.096,220.295-64.431,220.282z"/><path d="M44.107,166.939c-0.735-1.188-1.647-1.79-2.712-1.79c-0.935,0-1.735,0.475-2.51,0.935c-0.64,0.38-1.301,0.772-2.089,0.97  c-1.54,0.387-2.294,0.695-3.023,0.994c-0.661,0.271-1.285,0.526-2.617,0.86c-1.623,0.408-2.425,0.849-3.133,1.239  c-0.627,0.346-1.17,0.645-2.417,0.957c-0.901,0.227-1.556,0.47-2.081,0.666c-0.604,0.225-0.909,0.333-1.223,0.333  c-0.351,0-0.833-0.134-1.516-0.421c-1.53-0.643-1.662-0.91-2.216-2.03c-0.264-0.534-0.593-1.2-1.132-2.041  c-0.84-1.309-1.253-1.969-1.665-2.629c-0.418-0.669-0.836-1.338-1.689-2.666c-0.787-1.227-1.083-1.878-1.395-2.568  c-0.343-0.758-0.698-1.541-1.604-2.951c-0.487-0.759-0.628-1.657-0.765-2.525c-0.188-1.194-0.537-3.417-2.894-3.417  c-0.374,0-0.776,0.062-1.23,0.188c-1.225,0.342-2.027,0.9-2.45,1.708c-0.646,1.23-0.197,2.532,0.278,3.91  c0.229,0.664,0.487,1.416,0.662,2.238c0.344,1.627,0.247,2.156,0.07,3.116c-0.121,0.658-0.272,1.477-0.327,2.766  c-0.072,1.678,0.016,2.536,0.101,3.366c0.077,0.757,0.15,1.472,0.088,2.934c-0.059,1.38,0.179,2.375,0.371,3.174  c0.27,1.128,0.352,1.469-0.41,2.47c-0.376,0.495-0.565,0.498-0.702,0.498c0,0-0.001,0-0.002,0c-0.235,0-0.561-0.073-0.938-0.158  c-0.957-0.215-2.402-0.431-3.744-0.055c-1.712,0.479-2.544,1.121-3.212,1.637c-0.58,0.448-1.037,0.801-2.186,1.122  c-1.402,0.392-1.919,0.298-2.516,0.271c-1.063-0.051-2.164,0.013-3.468,0.377c-0.408,0.114-0.872,0.167-1.459,0.167  c-0.4,0-0.786-0.024-1.144-0.045c-0.365-0.022-0.704-0.041-1.007-0.041c-0.456,0-1.667,0-2.375,0.961  c-0.731,0.992-0.344,2.237-0.217,2.646c1.024,3.295,3.055,3.306,4.687,3.313c0.878,0.004,1.786,0.009,2.873,0.437  c1.739,0.684,2.569,1.053,3.447,1.443c0.869,0.386,1.767,0.786,3.565,1.493c1.375,0.541,2.401,0.726,3.151,0.86  c1.22,0.219,1.63,0.293,2.777,1.792c0.947,1.238,0.909,1.468,0.726,2.571c-0.107,0.646-0.254,1.532-0.231,2.771  c0.03,1.669,0.065,2.505,0.1,3.34c0.034,0.819,0.068,1.638,0.098,3.278c0.029,1.605-0.008,2.386-0.047,3.212  c-0.04,0.838-0.081,1.704-0.05,3.406c0.018,0.965-0.356,1.904-0.717,2.811c-0.37,0.929-0.719,1.807-0.661,2.738  c0.055,0.868,0.495,2.051,2.282,2.76c0.525,0.208,1,0.31,1.453,0.31c2.216,0,2.751-2.171,3.106-3.607  c0.234-0.95,0.477-1.933,0.999-2.669c0.995-1.402,1.372-2.253,1.704-3.003c0.315-0.712,0.588-1.326,1.409-2.484  c0.855-1.206,1.341-1.743,1.855-2.311c0.55-0.608,1.12-1.237,2.079-2.589c0.844-1.19,1.153-2.275,1.401-3.147  c0.34-1.196,0.411-1.445,1.454-1.724c0.317-0.084,0.592-0.127,0.817-0.127c0.512,0,0.792,0.22,1.526,0.856  c0.645,0.559,1.447,1.255,2.694,1.826c1.208,0.553,1.688,0.999,2.243,1.515c0.651,0.605,1.389,1.292,3.038,2.046  c1.583,0.725,2.51,0.916,3.328,1.083c0.757,0.156,1.411,0.29,2.683,0.873c0.824,0.377,1.375,1.023,1.908,1.649  c0.662,0.775,1.411,1.654,2.633,1.654h0c1.086,0,1.879-0.727,2.38-1.272c0.514-0.56,1.187-1.432,1.097-2.542  c-0.097-1.201-1.001-1.914-1.798-2.542c-0.616-0.485-1.252-0.987-1.712-1.742c-0.856-1.402-1.376-2.063-1.88-2.701  c-0.469-0.595-0.913-1.157-1.674-2.405c-0.738-1.21-0.991-1.863-1.259-2.555c-0.29-0.748-0.618-1.596-1.496-3.035  c-0.854-1.401-1.926-2.083-2.708-2.582c-0.935-0.596-1.129-0.72-1.097-1.67c0.035-1.025,0.256-1.163,1.185-1.742  c0.728-0.454,1.724-1.075,2.618-2.31c0.882-1.219,1.341-1.817,1.799-2.414c0.472-0.615,0.944-1.23,1.853-2.487  c1.009-1.395,1.348-2.275,1.646-3.051c0.267-0.693,0.497-1.292,1.277-2.37c0.508-0.702,1.314-1.079,2.093-1.442  c0.943-0.44,2.012-0.939,2.362-2.11C44.974,168.34,44.321,167.286,44.107,166.939z M40.996,168.898  c-0.967,0.451-2.291,1.069-3.255,2.402c-1.009,1.395-1.348,2.275-1.646,3.051c-0.267,0.693-0.497,1.292-1.277,2.371  c-0.884,1.222-1.343,1.819-1.802,2.418c-0.471,0.614-0.943,1.229-1.85,2.482c-0.549,0.759-1.144,1.13-1.774,1.522  c-1.116,0.696-2.506,1.562-2.596,4.185c-0.092,2.663,1.396,3.611,2.482,4.303c0.68,0.434,1.267,0.808,1.759,1.614  c0.738,1.21,0.991,1.864,1.259,2.556c0.289,0.748,0.617,1.595,1.495,3.034c0.855,1.402,1.376,2.062,1.88,2.701  c0.47,0.595,0.913,1.157,1.674,2.406c0.741,1.214,1.709,1.978,2.417,2.535c0.179,0.141,0.401,0.316,0.555,0.455  c-0.049,0.064-0.116,0.146-0.207,0.245c-0.051,0.055-0.096,0.102-0.136,0.141c-0.124-0.134-0.267-0.301-0.385-0.44  c-0.639-0.75-1.515-1.777-2.942-2.43c-1.583-0.725-2.51-0.916-3.328-1.083c-0.757-0.156-1.411-0.29-2.684-0.873  c-1.208-0.553-1.688-1-2.243-1.516c-0.651-0.605-1.389-1.292-3.037-2.046c-0.856-0.392-1.426-0.886-1.978-1.365  c-0.859-0.745-1.833-1.59-3.491-1.59c-0.494,0-1.015,0.075-1.592,0.229c-2.688,0.718-3.174,2.428-3.565,3.802  c-0.214,0.751-0.416,1.462-0.963,2.233c-0.855,1.206-1.341,1.743-1.855,2.311c-0.55,0.608-1.12,1.237-2.079,2.589  c-0.995,1.402-1.372,2.253-1.704,3.003c-0.316,0.712-0.588,1.326-1.409,2.484c-0.851,1.2-1.191,2.579-1.464,3.686  c-0.101,0.408-0.243,0.983-0.372,1.287c-0.046-0.014-0.102-0.033-0.167-0.059c-0.256-0.102-0.371-0.184-0.396-0.184c0,0,0,0,0,0  c-0.007-0.256,0.27-0.951,0.456-1.417c0.426-1.072,0.957-2.406,0.928-3.975c-0.029-1.603,0.008-2.383,0.047-3.209  c0.04-0.838,0.081-1.706,0.05-3.41c-0.03-1.675-0.065-2.511-0.1-3.348c-0.034-0.817-0.068-1.635-0.098-3.27  c-0.018-0.964,0.094-1.634,0.192-2.225c0.27-1.626,0.316-2.767-1.303-4.884c-1.728-2.26-2.901-2.612-4.628-2.922  c-0.696-0.125-1.485-0.267-2.585-0.7c-1.736-0.683-2.566-1.052-3.444-1.442c-0.869-0.387-1.768-0.786-3.568-1.494  c-1.608-0.633-2.965-0.64-3.956-0.645c-1.284-0.006-1.444-0.007-1.744-0.911c0.147,0.007,0.301,0.017,0.461,0.026  c0.414,0.025,0.861,0.051,1.323,0.051c0.856,0,1.597-0.091,2.267-0.278c1.403-0.392,1.921-0.298,2.516-0.271  c0.253,0.012,0.506,0.024,0.777,0.024c0.867,0,1.697-0.124,2.691-0.401c1.712-0.479,2.543-1.121,3.212-1.637  c0.579-0.447,1.037-0.801,2.186-1.122c0.755-0.211,1.5-0.083,2.276,0.091c0.506,0.114,1.029,0.232,1.598,0.232  c1.22,0,2.231-0.55,3.092-1.682c1.622-2.133,1.26-3.648,0.939-4.984c-0.163-0.682-0.332-1.387-0.291-2.348  c0.072-1.679-0.016-2.537-0.101-3.367c-0.077-0.757-0.15-1.472-0.088-2.934c0.046-1.08,0.17-1.754,0.28-2.35  c0.205-1.112,0.381-2.072-0.085-4.281c-0.212-1.003-0.516-1.885-0.761-2.594c-0.18-0.523-0.421-1.223-0.436-1.526  c0.08-0.048,0.25-0.133,0.579-0.225c0.078-0.022,0.144-0.038,0.2-0.049c0.057,0.237,0.111,0.58,0.154,0.854  c0.158,1.008,0.375,2.39,1.204,3.68c0.787,1.227,1.083,1.878,1.396,2.569c0.343,0.757,0.698,1.541,1.603,2.951  c0.843,1.313,1.256,1.974,1.669,2.635c0.417,0.667,0.835,1.336,1.685,2.66c0.449,0.7,0.725,1.257,0.967,1.749  c0.732,1.482,1.305,2.442,3.742,3.467c2.287,0.961,3.585,0.641,4.948,0.134c0.48-0.179,1.025-0.382,1.765-0.567  c1.623-0.408,2.425-0.849,3.133-1.239c0.627-0.346,1.17-0.645,2.417-0.958c1.539-0.386,2.293-0.695,3.022-0.993  c0.661-0.271,1.285-0.526,2.618-0.86c1.213-0.305,2.143-0.857,2.891-1.301c0.297-0.176,0.687-0.408,0.89-0.488  c0.055,0.06,0.14,0.165,0.25,0.342c0.018,0.029,0.035,0.057,0.049,0.083C41.424,168.697,41.189,168.808,40.996,168.898z"/><path d="M11.539,173.546c0.211,0.551,0.421,1.101,0.782,2.222c0.137,0.424,0.529,0.694,0.952,0.694c0.101,0,0.205-0.016,0.306-0.048  c0.526-0.169,0.815-0.733,0.646-1.258c-0.377-1.172-0.598-1.748-0.818-2.324c-0.21-0.55-0.421-1.101-0.781-2.22  c-0.168-0.525-0.73-0.817-1.258-0.645c-0.525,0.169-0.814,0.732-0.645,1.258C11.099,172.395,11.319,172.971,11.539,173.546z"/><path d="M5.15,183.665c-1.007,0-1.51,0.008-2.014,0.015c-0.496,0.008-0.992,0.015-1.983,0.015c-0.552,0-1,0.448-1,1s0.448,1,1,1  c1.007,0,1.51-0.008,2.014-0.015c0.496-0.008,0.992-0.015,1.983-0.015c0.552,0,1-0.448,1-1S5.703,183.665,5.15,183.665z"/><path d="M25.001,178.026c-0.883,0.491-1.334,0.721-1.785,0.952c-0.466,0.238-0.933,0.477-1.848,0.985  c-0.483,0.269-0.657,0.877-0.388,1.36c0.183,0.329,0.523,0.514,0.875,0.514c0.165,0,0.331-0.041,0.485-0.126  c0.885-0.492,1.335-0.722,1.786-0.953c0.466-0.238,0.932-0.476,1.846-0.984c0.483-0.269,0.657-0.877,0.388-1.36  C26.092,177.93,25.483,177.756,25.001,178.026z"/><path d="M12.214,191.762c-0.544-0.065-1.045,0.33-1.108,0.878c-0.101,0.872-0.327,1.245-0.612,1.716  c-0.328,0.542-0.736,1.217-0.886,2.521c-0.063,0.549,0.33,1.045,0.878,1.108c0.039,0.005,0.078,0.007,0.116,0.007  c0.5,0,0.933-0.375,0.992-0.885c0.101-0.872,0.326-1.245,0.611-1.716c0.328-0.542,0.736-1.216,0.887-2.521  C13.155,192.321,12.762,191.825,12.214,191.762z"/><path d="M23.668,190.852c-0.415-0.125-0.742-0.224-1.354-0.632c-0.46-0.306-1.08-0.184-1.387,0.276  c-0.307,0.459-0.183,1.081,0.276,1.387c0.859,0.574,1.405,0.739,1.887,0.884c0.415,0.125,0.742,0.224,1.354,0.632  c0.171,0.114,0.364,0.168,0.555,0.168c0.323,0,0.64-0.156,0.833-0.444c0.307-0.459,0.183-1.08-0.276-1.387  C24.696,191.162,24.15,190.997,23.668,190.852z"/><path d="M15.535,184.999l1.155-2.07c0.27-0.482,0.097-1.091-0.386-1.36c-0.482-0.271-1.091-0.097-1.36,0.386l-1.056,1.892  l-2.225-1.557c-0.452-0.316-1.075-0.207-1.393,0.246c-0.316,0.452-0.207,1.076,0.246,1.393l2.391,1.674l-0.964,1.728  c-0.27,0.482-0.097,1.091,0.386,1.36c0.154,0.086,0.321,0.127,0.486,0.127c0.351,0,0.691-0.185,0.874-0.513l0.865-1.55l1.562,1.093  c0.174,0.122,0.375,0.181,0.572,0.181c0.315,0,0.625-0.148,0.82-0.427c0.316-0.452,0.207-1.076-0.246-1.393L15.535,184.999z"/><path d="M84.667,178.403c-2.854-0.609-5.264-1.014-7.744-1.014c-0.56,0-1.114,0.022-1.646,0.066l-0.116,0.009  c-2.283,0.185-5.124,0.415-6.705,2.822c-1.564,2.346-0.784,5.361,0.073,7.731c0.941,2.555,2.504,4.304,4.639,5.195  c1.383,0.586,2.878,0.883,4.444,0.883c0,0,0,0,0.001,0c3.3,0,6.545-1.378,8.679-3.685c1.882-2.029,3.3-5.619,2.371-8.553  C88.258,180.583,87.237,178.949,84.667,178.403z"/><path d="M131.385,174.741c-0.172-0.212-0.423-0.344-0.695-0.367c-1.482-0.122-2.972-0.272-4.465-0.422  c-4.245-0.428-8.633-0.868-12.965-0.66c-2.818,0.136-5.782,0.58-8.812,1.318c-0.76,0.188-1.568,0.422-2.4,0.664  c-2.045,0.592-4.155,1.199-5.999,1.269c-1.844-0.07-3.954-0.677-5.999-1.269c-0.832-0.241-1.641-0.475-2.404-0.665  c-3.026-0.738-5.99-1.181-8.808-1.317c-4.333-0.208-8.72,0.232-12.966,0.66c-1.493,0.15-2.983,0.3-4.465,0.422  c-0.272,0.022-0.521,0.164-0.693,0.375s-0.249,0.494-0.214,0.765c0.12,0.947,0.24,1.895,0.368,2.834  c0.177,1.379,0.53,1.732,1.383,2.465l0.079,0.068c0.728,0.621,0.924,1.934,1.098,3.092c0.045,0.298,0.088,0.586,0.138,0.858  l0.081,0.44c0.628,3.427,1.278,6.971,4.139,9.517c2.375,2.105,6.336,3.464,9.931,3.464c0.333,0,0.663-0.012,0.988-0.035  c3.913-0.296,8.06-2.112,10.824-4.742c2.023-1.926,2.626-4.29,3.21-6.576c0.26-1.02,0.528-2.073,0.922-3.084  c0.432-1.103,1.109-1.594,2.199-1.594c0.067,0,0.312,0,0.38,0c1.089,0,1.768,0.492,2.198,1.593c0.394,1.013,0.663,2.066,0.922,3.086  c0.583,2.286,1.187,4.65,3.21,6.576c2.764,2.63,6.912,4.446,10.826,4.742c0.325,0.024,0.654,0.036,0.987,0.036  c3.593-0.001,7.555-1.36,9.932-3.466c2.859-2.545,3.509-6.089,4.137-9.516l0.081-0.441c0.05-0.271,0.093-0.56,0.138-0.857  c0.173-1.158,0.37-2.472,1.101-3.095l0.077-0.066c0.853-0.733,1.206-1.085,1.381-2.456c0.129-0.947,0.25-1.895,0.372-2.86  C131.634,175.226,131.557,174.953,131.385,174.741z M129.246,178.094c-0.086,0.672-0.086,0.672-0.703,1.202l-0.075,0.064  c-1.296,1.106-1.562,2.887-1.777,4.318c-0.042,0.275-0.081,0.542-0.127,0.791l-0.081,0.442c-0.594,3.237-1.154,6.295-3.499,8.382  c-2.479,2.196-6.629,3.138-9.442,2.931c-3.474-0.263-7.15-1.871-9.596-4.197c-1.607-1.528-2.09-3.425-2.651-5.622  c-0.274-1.077-0.559-2.19-0.998-3.318c-0.732-1.875-2.137-2.866-4.061-2.866c-0.067,0-0.312,0-0.38,0  c-1.923,0-3.328,0.991-4.062,2.867c-0.438,1.126-0.722,2.24-0.997,3.316c-0.561,2.197-1.044,4.094-2.651,5.622  c-2.445,2.326-6.122,3.935-9.594,4.197c-2.814,0.205-6.964-0.734-9.442-2.93c-2.346-2.088-2.907-5.146-3.5-8.383l-0.081-0.441  c-0.046-0.25-0.085-0.517-0.127-0.792c-0.214-1.431-0.481-3.211-1.774-4.315l-0.078-0.067c-0.617-0.53-0.617-0.53-0.704-1.21  c-0.082-0.601-0.16-1.202-0.238-1.808c1.15-0.103,2.304-0.219,3.46-0.336c4.173-0.421,8.488-0.856,12.668-0.652  c2.691,0.13,5.528,0.555,8.427,1.262c0.736,0.183,1.519,0.41,2.326,0.644c2.058,0.596,4.385,1.267,6.476,1.348  c0.017,0,0.141,0,0.158,0c2.091-0.081,4.418-0.752,6.476-1.348c0.807-0.234,1.59-0.461,2.322-0.643  c2.904-0.708,5.74-1.133,8.432-1.263c4.179-0.201,8.494,0.231,12.667,0.652c1.156,0.117,2.31,0.233,3.46,0.336  C129.408,176.881,129.329,177.486,129.246,178.094z"/><path d="M116.935,177.464l-0.115-0.009c-0.532-0.043-1.086-0.066-1.646-0.066c-2.48,0-4.89,0.405-7.743,1.014  c-2.571,0.546-3.592,2.18-3.997,3.456c-0.93,2.934,0.489,6.523,2.371,8.551c2.134,2.308,5.379,3.686,8.68,3.686  c1.565,0,3.061-0.297,4.439-0.881c2.139-0.894,3.702-2.643,4.645-5.203c0.855-2.364,1.636-5.378,0.076-7.72  C122.059,177.879,119.217,177.649,116.935,177.464z"/><path d="M208.852,165.701c-0.102,0-0.176,0.002-0.196,0.003h-38.471c-0.367,0-0.722,0.135-0.996,0.379l-4.074,3.621h-3.263v-2.373  c0-1.707-1.589-3.044-3.618-3.044h-3.765c-2.028,0-3.617,1.337-3.617,3.044v2.373h-2.667c-2.481,0-4.5,1.848-4.5,4.12v29.26  c0,2.272,2.019,4.12,4.5,4.12h61.75c2.458,0,4.458-1.848,4.458-4.12v-32.463C214.393,166.99,211.408,165.701,208.852,165.701z   M153.852,167.455c0.085-0.062,0.288-0.167,0.617-0.167h3.765c0.329,0,0.533,0.104,0.618,0.167v2.25h-5V167.455z M211.393,203.085  c0,0.618-0.654,1.12-1.458,1.12h-61.75c-0.813,0-1.5-0.513-1.5-1.12v-29.26c0-0.607,0.687-1.12,1.5-1.12h17.5  c0.367,0,0.722-0.135,0.996-0.379l4.074-3.621h37.93c0.029,0,0.138-0.002,0.167-0.003c1.159,0,2.541,0.333,2.541,1.92V203.085z"/><path d="M206.185,171.288h-5c-1.654,0-3,1.346-3,3v1.833c0,1.654,1.346,3,3,3h5c1.654,0,3-1.346,3-3v-1.833  C209.185,172.634,207.839,171.288,206.185,171.288z M207.185,176.121c0,0.551-0.448,1-1,1h-5c-0.552,0-1-0.449-1-1v-1.833  c0-0.551,0.448-1,1-1h5c0.552,0,1,0.449,1,1V176.121z"/><path d="M182.685,171.371c-8.409,0-15.25,6.841-15.25,15.25s6.841,15.25,15.25,15.25s15.25-6.841,15.25-15.25  S191.094,171.371,182.685,171.371z M182.685,198.871c-6.755,0-12.25-5.495-12.25-12.25s5.495-12.25,12.25-12.25  s12.25,5.495,12.25,12.25S189.44,198.871,182.685,198.871z"/><circle cx="182.685" cy="186.621" r="9.519"/><path d="M163.371,174.809c-0.001,0-0.002,0-0.003,0c-0.552,0.001-0.998,0.45-0.997,1.002l0.064,25.292  c0.001,0.552,0.449,0.998,1,0.998c0.001,0,0.002,0,0.003,0c0.552-0.001,0.998-0.45,0.997-1.002l-0.064-25.292  C164.37,175.255,163.922,174.809,163.371,174.809z"/><path d="M291.104,210.892l-14.365-53.609c-0.204-0.761-0.958-1.236-1.736-1.084l-2.781,0.542l-1.284-4.79  c-0.109-0.407-0.384-0.749-0.758-0.943c-0.373-0.194-0.811-0.222-1.207-0.078l-35.086,12.834c-0.729,0.267-1.135,1.046-0.934,1.797  l14.446,53.916c0.109,0.407,0.384,0.749,0.758,0.943c0.131,0.068,0.27,0.109,0.412,0.135c0.166,0.063,0.342,0.1,0.526,0.1  c0.095,0,0.191-0.009,0.288-0.028l40.558-7.874c0.408-0.08,0.766-0.325,0.986-0.678  C291.147,211.723,291.211,211.294,291.104,210.892z M236.207,166.11l32.258-11.799l13.667,51.006l-32.258,11.799L236.207,166.11z   M266.392,214.268l18.058-6.605c0.729-0.267,1.135-1.046,0.934-1.797L273,159.645l1.203-0.234l13.587,50.704L266.392,214.268z"/><path d="M264.404,163.308c-0.204-0.514-0.785-0.765-1.299-0.56l-18.25,7.25c-0.514,0.204-0.764,0.785-0.561,1.298  c0.156,0.392,0.532,0.631,0.93,0.631c0.123,0,0.248-0.023,0.369-0.071l18.25-7.25C264.357,164.402,264.607,163.821,264.404,163.308z  "/><path d="M263.409,169.57c-0.197-0.516-0.777-0.774-1.291-0.577l-13.75,5.25c-0.517,0.197-0.774,0.775-0.578,1.291  c0.152,0.398,0.532,0.644,0.935,0.644c0.119,0,0.239-0.021,0.356-0.066l13.75-5.25C263.347,170.664,263.605,170.086,263.409,169.57z  "/><path d="M252.03,205.507c0.145,0.412,0.531,0.67,0.944,0.67c0.109,0,0.221-0.019,0.33-0.057l20.75-7.25  c0.521-0.182,0.796-0.752,0.614-1.274c-0.183-0.521-0.75-0.793-1.274-0.614l-20.75,7.25  C252.123,204.415,251.848,204.985,252.03,205.507z"/><path d="M256.901,177.907c-2.142,0.709-3.953,2.017-5.103,3.68c-1.21,1.75-1.554,3.687-0.969,5.451  c0.286,0.864,0.797,1.614,1.454,2.245c-0.203,0.965-0.176,1.949,0.137,2.894c0.857,2.584,3.582,4.254,6.942,4.254  c1.129,0,2.266-0.188,3.381-0.557c2.141-0.709,3.953-2.017,5.103-3.68c1.21-1.751,1.554-3.687,0.969-5.451  c-0.286-0.864-0.797-1.614-1.454-2.245c0.203-0.965,0.176-1.949-0.137-2.894c-0.857-2.584-3.582-4.254-6.942-4.254  C259.154,177.35,258.016,177.538,256.901,177.907z M266.918,187.373c0.383,1.154,0.129,2.463-0.715,3.685  c-0.904,1.309-2.355,2.345-4.087,2.919c-0.912,0.302-1.838,0.456-2.752,0.456c-2.483,0-4.463-1.132-5.044-2.884  c-0.109-0.33-0.163-0.669-0.172-1.01c1.058,0.481,2.286,0.755,3.623,0.755c1.129,0,2.267-0.188,3.382-0.557  c2.412-0.8,4.305-2.342,5.374-4.142C266.686,186.839,266.825,187.095,266.918,187.373z M254.623,188.55  c0.761-1.53,2.383-2.904,4.498-3.606c0.912-0.302,1.838-0.456,2.752-0.456c1.203,0,2.284,0.27,3.149,0.743  c-0.761,1.53-2.383,2.904-4.498,3.605c-0.912,0.302-1.838,0.456-2.753,0.456C256.568,189.293,255.488,189.023,254.623,188.55z   M265.326,182.233c0.109,0.33,0.163,0.669,0.172,1.01c-1.058-0.481-2.286-0.755-3.624-0.755c-1.129,0-2.266,0.188-3.381,0.557  c-2.412,0.8-4.305,2.343-5.374,4.143c-0.159-0.245-0.298-0.501-0.39-0.779c-0.383-1.155-0.129-2.463,0.715-3.685  c0.904-1.308,2.355-2.345,4.087-2.918c0.912-0.302,1.838-0.456,2.752-0.456C262.765,179.35,264.745,180.482,265.326,182.233z"/><path d="M379.559,185.779l-1.59-2.464c-0.188-0.291-0.471-0.508-0.801-0.615l-17.903-5.755l-0.302-3.707  c-0.005-0.06-0.015-0.12-0.031-0.178l-0.813-3.035c-0.068-0.256-0.236-0.475-0.466-0.607c-0.23-0.132-0.504-0.169-0.759-0.1  l-6.641,1.779c-0.534,0.143-0.85,0.691-0.707,1.225l0.439,1.64l-5.527-1.777l-2.872-10.72c-0.022-0.083-0.051-0.164-0.086-0.239  c-0.008-0.083-0.023-0.167-0.045-0.251c-1.252-4.675-4.67-10.813-8.316-9.836c-1.168,0.313-2.638,1.453-3.004,5.105  c-0.226,2.261,0.036,5.021,0.72,7.572l3.041,11.35l-3.813,4.208l-0.459-1.713c-0.068-0.256-0.236-0.475-0.466-0.607  c-0.229-0.132-0.502-0.167-0.759-0.1l-6.641,1.779c-0.534,0.143-0.85,0.691-0.707,1.225l0.813,3.035  c0.016,0.058,0.036,0.115,0.062,0.169l1.622,3.424l-12.779,14.104c-0.232,0.257-0.369,0.587-0.386,0.933l-0.145,2.929  c-0.028,0.562,0.261,1.092,0.748,1.373c0.232,0.134,0.492,0.201,0.75,0.201c0.283,0,0.565-0.08,0.812-0.239l17.717-11.417  l7.875-3.458l2.612,9.749c0.012,0.045,0.03,0.089,0.046,0.134l-8.79,10.632c-0.207,0.25-0.279,0.583-0.195,0.896l0.395,1.475  c0.083,0.311,0.311,0.562,0.611,0.676c0.115,0.043,0.235,0.065,0.355,0.065c0.193,0,0.385-0.056,0.551-0.166l7.313-4.829  l2.946-1.258l3.2,7.514c0.24,0.564,0.791,0.913,1.379,0.912c0.129,0,0.259-0.017,0.389-0.051l0.685-0.184l0.842,3.141  c0.12,0.447,0.523,0.742,0.965,0.742c0.085,0,0.173-0.011,0.259-0.035c0.534-0.143,0.85-0.691,0.707-1.225l-0.842-3.141l0.685-0.184  c0.723-0.193,1.192-0.89,1.101-1.632l-1.019-8.281l3.096-0.373l8.747,0.525c0.317,0.024,0.632-0.117,0.835-0.366  s0.274-0.581,0.191-0.891l-0.395-1.475c-0.083-0.312-0.313-0.565-0.617-0.678l-12.849-4.783c-0.008-0.056-0.018-0.112-0.032-0.166  l-2.615-9.759l8.478-0.935l21.052,1.03c0.544,0.033,1.091-0.261,1.373-0.749C379.879,186.856,379.865,186.252,379.559,185.779z   M351.737,172.77l4.709-1.262l0.531,1.981l0.227,2.793l-4.953-1.592L351.737,172.77z M323.773,182.387l-0.531-1.981l4.709-1.262  l0.534,1.993l-3.483,3.844L323.773,182.387z M328.951,191.77c-0.073,0.032-0.143,0.07-0.209,0.113l-14.284,9.205l20.362-22.473  l2.536,9.464L328.951,191.77z M340.171,207.84c-0.055,0.023-0.108,0.052-0.158,0.085l-5.354,3.535l7.02-8.491l1.523,3.577  L340.171,207.84z M347.492,200.842c-0.143-0.533-0.693-0.853-1.225-0.707c-0.534,0.143-0.85,0.691-0.707,1.225l2.217,8.275  l-4.154-9.754l-9.872-36.842c-1.289-4.812-0.504-8.668,0.153-9.001c0.005,0,0.011,0,0.017,0c0.777,0,3.356,2.938,4.636,7.714  c0.022,0.083,0.051,0.164,0.086,0.239c0.008,0.084,0.023,0.168,0.045,0.251l9.697,36.188l1.309,10.632L347.492,200.842z   M355.461,203.588c-0.06-0.004-0.12-0.002-0.18,0.005l-3.19,0.385l-0.47-3.819l10.244,3.813L355.461,203.588z M357.201,184.059  c-0.079-0.004-0.159-0.002-0.238,0.007l-9.053,0.998l-2.527-9.43l28.791,9.255L357.201,184.059z"/><path d="M450.109,214.247c-0.004,0-0.012,0-0.02,0h-44.164c-0.411,0-0.804-0.168-1.087-0.466s-0.432-0.699-0.411-1.109l1.821-35.985  l-6.879,2.785c-0.394,0.158-0.837,0.143-1.217-0.041c-0.382-0.185-0.667-0.523-0.786-0.93l-3.883-13.333  c-0.223-0.765,0.191-1.571,0.943-1.834l14.236-5c0.104-0.037,0.211-0.062,0.32-0.075l8.412-1c0.421-0.051,0.851,0.083,1.172,0.367  c0.32,0.284,0.504,0.691,0.505,1.119c0.011,0.693,0.349,6.848,8.874,6.848c8.777,0,8.99-6.589,8.995-6.869  c0.008-0.424,0.194-0.826,0.514-1.104s0.744-0.41,1.163-0.36l8.412,1c0.109,0.013,0.217,0.038,0.32,0.075l14.236,5  c0.752,0.264,1.166,1.069,0.943,1.834l-3.883,13.333c-0.119,0.407-0.404,0.745-0.786,0.93c-0.382,0.184-0.823,0.199-1.217,0.041  l-6.879-2.785l1.809,35.74c0.022,0.103,0.034,0.21,0.034,0.32C451.609,213.575,450.939,214.247,450.109,214.247z M407.504,211.247  h41.008l-1.86-36.758c-0.026-0.512,0.211-1.001,0.629-1.298c0.419-0.297,0.958-0.359,1.432-0.168l7.521,3.044l3.021-10.376  l-12.74-4.474l-6.815-0.811c-0.653,2.793-3.043,8.184-11.751,8.184c-8.703,0-11.028-5.377-11.648-8.182l-6.797,0.808l-12.74,4.474  l3.021,10.376l7.521-3.044c0.474-0.191,1.015-0.13,1.432,0.168c0.418,0.297,0.655,0.786,0.629,1.298L407.504,211.247z"/><path d="M532.637,183.218c-0.021-0.333-0.155-0.651-0.375-0.901c-0.021-0.023-2.075-2.377-3.515-6.409  c-1.915-5.363-1.899-11.018,0.048-16.807c0.264-0.785-0.158-1.636-0.943-1.9c-0.25-0.083-0.503-0.097-0.743-0.055l-5.392-1.039  c-0.437-0.085-0.887,0.03-1.231,0.311c-0.345,0.28-0.547,0.7-0.553,1.145c0,0.033-0.056,3.305-1.291,6.484  c-1.523,3.922-4.115,5.91-7.704,5.91c-3.584,0-6.154-1.985-7.641-5.899c-1.207-3.178-1.233-6.449-1.233-6.481  c-0.002-0.447-0.203-0.87-0.547-1.154c-0.345-0.284-0.799-0.4-1.236-0.315l-5.413,1.043c-0.417,0.081-0.781,0.335-1,0.699  c-0.22,0.364-0.274,0.805-0.151,1.211c0.044,0.146,4.313,14.627-3.94,23.213c-0.246,0.256-0.393,0.59-0.416,0.944l-1.941,30.601  c-0.026,0.413,0.12,0.819,0.403,1.121c0.284,0.303,0.679,0.474,1.094,0.474h44.165c0.414,0,0.811-0.171,1.094-0.474  c0.283-0.302,0.43-0.708,0.403-1.121L532.637,183.218z M522.83,159.377l2.59,0.499c-0.53,1.913-0.842,3.736-0.993,5.464h-3.071  C522.185,163.328,522.644,161.211,522.83,159.377z M510.937,172.957c3.121,0,5.486-1.119,7.257-2.804h6.228  c0.15,1.722,0.452,3.309,0.845,4.75h-28.224c0.406-1.607,0.65-3.208,0.762-4.75h5.894  C505.457,171.838,507.814,172.957,510.937,172.957z M499.151,159.38c0.171,1.834,0.613,3.95,1.425,5.961h-2.773  c-0.163-2.316-0.516-4.269-0.804-5.546L499.151,159.38z M495.229,179.715h31.853c1.023,2.081,2.062,3.512,2.591,4.179l0.036,0.571  h-37.423l0.033-0.522C493.526,182.616,494.467,181.187,495.229,179.715z M491.68,194.028l0.301-4.75h38.034l0.301,4.75H491.68z   M530.621,198.84l0.301,4.75h-39.849l0.301-4.75H530.621z M490.514,212.413l0.254-4.01h40.46l0.254,4.01H490.514z"/><path d="M627.835,206.337l-5.256-27.25c-0.054-0.283-0.189-0.544-0.388-0.752c-4.996-5.227-4.843-16.074-4.841-16.183  c0.008-0.403-0.146-0.792-0.429-1.08c-0.282-0.288-0.668-0.45-1.071-0.45h-43.725c-0.403,0-0.79,0.162-1.072,0.45  s-0.437,0.678-0.428,1.081c0.002,0.109,0.168,10.941-4.841,16.182c-0.199,0.208-0.334,0.47-0.388,0.752l-5.256,27.25  c-0.079,0.41,0.016,0.835,0.264,1.172c0.247,0.337,0.624,0.556,1.039,0.603l24.132,2.75c0.706,0.085,1.369-0.343,1.593-1.016  l4.914-14.725h3.812l4.914,14.725c0.206,0.618,0.783,1.025,1.422,1.025c0.057,0,0.114-0.003,0.171-0.01l24.132-2.75  c0.415-0.047,0.792-0.266,1.039-0.603C627.819,207.172,627.914,206.747,627.835,206.337z M614.703,167.329h-15.507v-3.708h15.179  C614.412,164.55,614.504,165.847,614.703,167.329z M590.196,167.329v-3.708h7v3.708H590.196z M588.196,163.621v3.708h-14.924  c0.199-1.483,0.291-2.779,0.328-3.708H588.196z M584.706,207.743l-21.314-2.429l0.848-4.396l21.845,2.693L584.706,207.743z   M597.955,192.507l-0.343-20.112c-0.01-0.552-0.483-1.02-1.017-0.983c-0.552,0.01-0.992,0.465-0.983,1.017l0.256,15.029  c-4.599-0.369-4.755-3.649-4.757-4.068l-0.25-11.001c-0.012-0.552-0.493-1.008-1.022-0.977c-0.552,0.012-0.989,0.47-0.977,1.022  l0.25,10.965c-0.001,0.093-0.008,2.288,1.716,4.033c1.201,1.216,2.908,1.896,5.075,2.034l0.045,2.654H591  c-0.646,0-1.219,0.413-1.423,1.025l-2.847,8.53l-22.111-2.726l3.641-18.876c2.674-2.994,4.014-7.168,4.689-10.745h42.076  c0.675,3.577,2.015,7.75,4.689,10.745l3.641,18.876l-22.111,2.726l-2.847-8.53C598.311,192.889,598.15,192.678,597.955,192.507z   M603.269,207.743l-1.379-4.132l21.845-2.693l0.848,4.396L603.269,207.743z"/><path d="M616.552,184.614c0.103,0.033,0.208,0.049,0.31,0.049c0.421,0,0.813-0.268,0.951-0.689c0.171-0.525-0.116-1.09-0.641-1.261  c-7.123-2.323-11.01-11.826-11.048-11.922c-0.206-0.512-0.788-0.763-1.3-0.556c-0.512,0.205-0.761,0.787-0.557,1.299  C604.438,171.96,608.533,181.998,616.552,184.614z"/><path d="M582.567,170.234c-0.515-0.204-1.095,0.044-1.3,0.557c-0.038,0.096-3.909,9.593-11.048,11.921  c-0.525,0.171-0.812,0.736-0.641,1.261c0.138,0.422,0.529,0.689,0.951,0.689c0.103,0,0.207-0.016,0.31-0.049  c8.02-2.616,12.115-12.654,12.286-13.08C583.33,171.021,583.08,170.439,582.567,170.234z"/><path d="M-305.068,285.137c0,0-3.395,2.376-9.072,2.376s-9.072-2.376-9.072-2.376c-0.901-0.631-1.553-0.251-1.448,0.844  l2.099,21.957c0.105,1.095,0.911,2.529,1.793,3.187c0,0,2.089,1.56,6.629,1.56c4.54,0,6.629-1.56,6.629-1.56  c0.881-0.658,1.688-2.092,1.793-3.187l2.099-21.957C-303.515,284.886-304.167,284.506-305.068,285.137z"/><path d="M-286.245,267.148c0-6.821-5.549-12.37-12.37-12.37c-5.276,0-9.779,3.327-11.553,7.989c-1.331-0.128-2.466-0.141-3.951-0.13  c-2.139,0-3.62,0.182-5.301,0.422l-2.624-11.105c-0.081-0.344-0.338-0.62-0.676-0.725l-13.841-4.314  c-0.52-0.163-1.08,0.125-1.249,0.646l-0.989,3.056c-0.169,0.525,0.118,1.088,0.642,1.259l11.599,3.78l1.961,8.345  c-5.488,1.556-6.661,4.004-6.661,5.799c0,0.043,0.002,0.087,0.006,0.131l3.68,42.096c0.083,3.946,6.809,6.01,13.453,6.01  s13.37-2.064,13.453-6.01l2.845-32.549C-291.37,279.064-286.245,273.7-286.245,267.148z M-316.668,274.709l-1.186-5.022  c2.265-0.294,4.841-0.306,7.134-0.037c0.344,1.668,1.029,3.247,2.018,4.643c-1.485,0.314-3.304,0.528-5.417,0.528  C-315.025,274.821-315.871,274.778-316.668,274.709z M-314.03,265.637c1.194,0.009,2.127,0.008,3.135,0.082  c-0.054,0.47-0.089,0.945-0.089,1.43c0,0.161,0.016,0.321,0.022,0.481c-2.419-0.243-5.009-0.201-7.349,0.124l-0.416-1.763  C-317.235,265.781-315.95,265.637-314.03,265.637z M-325.403,253.928l-11.185-3.646l0.377-1.165l12.352,3.85l5.072,21.469  c-0.488-0.085-0.945-0.181-1.369-0.286l-4.583-19.501C-324.82,254.31-325.071,254.036-325.403,253.928z M-322.385,273.411  c-0.987-0.447-1.519-0.918-1.519-1.275c0-0.18,0.231-0.559,0.985-0.998L-322.385,273.411z M-300.757,278.625l-2.902,33.195  c-0.004,0.043-0.006,0.087-0.006,0.131c0,0.922-3.557,3.084-10.454,3.084c-6.897,0-10.454-2.162-10.454-3.084  c0-0.043-0.002-0.087-0.006-0.131l-3.678-42.071c0.053-0.992,1.706-2.055,4.347-2.823l0.519,2.208  c-2.049,1.005-2.514,2.175-2.514,3.002c0,3.076,5.929,4.685,11.785,4.685c5.857,0,11.786-1.609,11.786-4.685c0-0.552-0.448-1-1-1  c-0.003,0-0.006,0.002-0.01,0.002c-0.082-0.154-0.121-0.28-0.138-0.341l2.558-1.362l-0.653,1.311  c-0.246,0.495-0.045,1.095,0.449,1.341c0.144,0.071,0.295,0.105,0.445,0.105c0.173,0,0.341-0.048,0.491-0.133  c-0.091,0.177-0.149,0.375-0.163,0.586L-300.757,278.625z M-298.758,271.249c-0.365-0.026-0.703,0.086-0.977,0.285l0.982-1.97  l0.774,1.971C-298.199,271.375-298.465,271.269-298.758,271.249z M-299.644,261.043c0.129-0.1,0.424-0.24,0.876-0.24  c0.487,0,0.792,0.163,0.896,0.222l-0.827,2.777L-299.644,261.043z M-297.673,277.47l0.296-4.402l0.099,0.253  c0.035,0.09,0.083,0.174,0.143,0.25c0.371,0.474,0.945,0.734,1.619,0.734c0.697,0,1.433-0.275,2.073-0.775  c1.295-1.014,1.703-2.583,0.928-3.573c-0.068-0.087-0.149-0.162-0.242-0.222l-2.302-1.499l2.664,0.108  c0.014,0,0.027,0.001,0.041,0.001c0.083,0,0.166-0.01,0.246-0.031c1.219-0.31,1.856-1.8,1.451-3.394  c-0.4-1.573-1.701-2.596-2.896-2.29c-0.107,0.027-0.208,0.072-0.301,0.132l-3.042,1.987l1.018-3.42  c0.027-0.092,0.042-0.188,0.042-0.285c0-1.257-1.288-2.242-2.933-2.242c-1.644,0-2.932,0.985-2.932,2.242  c0,0.11,0.018,0.22,0.054,0.324l0.931,2.72l-2.161-1.767c-0.075-0.062-0.158-0.111-0.247-0.148c-1.127-0.471-2.582,0.361-3.2,1.839  c-0.272,0.651-0.363,1.348-0.254,1.961c0.135,0.763,0.569,1.35,1.191,1.609c0.102,0.043,0.209,0.068,0.319,0.076l2.867,0.19  l-2.464,1.312c-0.085,0.045-0.164,0.103-0.232,0.171c-0.48,0.473-0.664,1.179-0.504,1.937c0.105,0.498,0.359,0.995,0.716,1.435  c-0.369,0.33-1.028,0.687-1.939,1.014c-1.519-1.85-2.36-4.163-2.36-6.57c0-5.718,4.651-10.37,10.369-10.37s10.37,4.652,10.37,10.37  C-288.245,272.548-292.396,276.991-297.673,277.47z M-296.576,269.635l2.444,1.591c-0.041,0.158-0.187,0.45-0.542,0.729  c-0.331,0.258-0.651,0.351-0.841,0.351l-0.009,0.007L-296.576,269.635z M-295.486,266.218l2.441-1.595  c0.128,0.101,0.337,0.352,0.448,0.79c0.115,0.451,0.044,0.777-0.022,0.921L-295.486,266.218z M-301.686,265.879l-2.91-0.193  c-0.042-0.158-0.057-0.484,0.117-0.901c0.188-0.449,0.456-0.667,0.55-0.74L-301.686,265.879z"/><path d="M-245.252,251.965c0.024,0.375,0.054,0.842,0.359,1.59c0.305,0.749,0.608,1.104,0.853,1.39  c0.196,0.229,0.337,0.394,0.52,0.843c0.182,0.447,0.196,0.664,0.215,0.963c0.024,0.375,0.054,0.841,0.358,1.589  c0.158,0.388,0.532,0.624,0.927,0.624c0.125,0,0.253-0.024,0.376-0.074c0.511-0.208,0.757-0.792,0.549-1.303  c-0.182-0.447-0.196-0.664-0.215-0.963c-0.024-0.375-0.054-0.841-0.358-1.589c-0.305-0.749-0.608-1.104-0.853-1.39  c-0.196-0.229-0.337-0.394-0.52-0.842c-0.182-0.449-0.196-0.666-0.216-0.966c-0.024-0.375-0.054-0.842-0.359-1.59  c-0.208-0.512-0.792-0.76-1.303-0.55c-0.512,0.208-0.758,0.792-0.55,1.303C-245.285,251.448-245.271,251.664-245.252,251.965z"/><path d="M-263.635,270.046c0.446,0.188,0.61,0.332,0.837,0.53c0.282,0.248,0.634,0.555,1.378,0.869s1.21,0.351,1.584,0.38  c0.3,0.024,0.517,0.041,0.964,0.229c0.446,0.188,0.609,0.331,0.835,0.529c0.282,0.247,0.633,0.555,1.376,0.868  c0.127,0.054,0.259,0.079,0.388,0.079c0.39,0,0.761-0.23,0.922-0.612c0.215-0.509-0.024-1.095-0.533-1.31  c-0.446-0.188-0.609-0.331-0.835-0.529c-0.282-0.247-0.633-0.555-1.376-0.868c-0.744-0.314-1.209-0.351-1.583-0.38  c-0.301-0.024-0.518-0.041-0.964-0.229s-0.611-0.332-0.837-0.531c-0.282-0.247-0.633-0.555-1.377-0.869  c-0.51-0.215-1.095,0.024-1.31,0.533S-264.144,269.831-263.635,270.046z"/><path d="M-256.426,291.986c-0.447,0.182-0.664,0.196-0.963,0.215c-0.375,0.024-0.841,0.054-1.589,0.358  c-0.749,0.305-1.104,0.608-1.39,0.853c-0.229,0.196-0.394,0.337-0.842,0.52c-0.449,0.182-0.666,0.196-0.966,0.216  c-0.375,0.024-0.842,0.054-1.59,0.359c-0.512,0.208-0.758,0.792-0.55,1.303c0.158,0.389,0.532,0.624,0.927,0.624  c0.125,0,0.253-0.024,0.376-0.074c0.449-0.182,0.666-0.196,0.966-0.216c0.375-0.024,0.842-0.054,1.59-0.359  c0.749-0.305,1.104-0.608,1.39-0.853c0.229-0.196,0.394-0.337,0.843-0.52c0.447-0.182,0.664-0.196,0.963-0.215  c0.375-0.024,0.841-0.054,1.589-0.358c0.512-0.208,0.757-0.792,0.549-1.303S-255.916,291.777-256.426,291.986z"/><path d="M-241.093,306.243c-0.51-0.215-1.096,0.024-1.31,0.533c-0.188,0.446-0.331,0.609-0.529,0.835  c-0.247,0.282-0.555,0.633-0.868,1.376c-0.314,0.744-0.351,1.209-0.38,1.583c-0.024,0.301-0.041,0.518-0.229,0.964  s-0.332,0.611-0.531,0.837c-0.247,0.282-0.555,0.633-0.869,1.377c-0.215,0.509,0.024,1.095,0.533,1.31  c0.127,0.054,0.259,0.079,0.388,0.079c0.39,0,0.761-0.23,0.922-0.612c0.188-0.446,0.332-0.61,0.53-0.837  c0.248-0.282,0.555-0.634,0.869-1.378s0.351-1.21,0.38-1.584c0.024-0.3,0.041-0.517,0.229-0.964  c0.188-0.446,0.331-0.609,0.529-0.835c0.247-0.282,0.555-0.633,0.868-1.376C-240.345,307.044-240.584,306.458-241.093,306.243z"/><path d="M-217.87,312.94c-0.024-0.375-0.054-0.842-0.359-1.59c-0.305-0.749-0.608-1.104-0.853-1.39  c-0.196-0.229-0.337-0.394-0.52-0.843c-0.182-0.447-0.196-0.664-0.215-0.963c-0.024-0.375-0.054-0.841-0.358-1.589  c-0.208-0.512-0.792-0.76-1.303-0.549c-0.511,0.208-0.757,0.792-0.549,1.303c0.182,0.447,0.196,0.664,0.215,0.963  c0.024,0.375,0.054,0.841,0.358,1.589c0.305,0.749,0.608,1.104,0.853,1.39c0.196,0.229,0.337,0.394,0.52,0.842  c0.182,0.449,0.196,0.666,0.216,0.966c0.024,0.375,0.054,0.842,0.359,1.59c0.158,0.389,0.532,0.624,0.927,0.624  c0.125,0,0.253-0.024,0.376-0.074c0.512-0.208,0.758-0.792,0.55-1.303C-217.836,313.457-217.85,313.24-217.87,312.94z"/><path d="M-199.486,294.859c-0.446-0.188-0.61-0.332-0.837-0.53c-0.282-0.248-0.634-0.555-1.378-0.869s-1.21-0.351-1.584-0.38  c-0.3-0.024-0.517-0.041-0.964-0.229c-0.446-0.188-0.609-0.331-0.835-0.529c-0.282-0.247-0.633-0.555-1.376-0.868  c-0.511-0.216-1.095,0.024-1.31,0.533s0.024,1.095,0.533,1.31c0.446,0.188,0.609,0.331,0.835,0.529  c0.282,0.247,0.633,0.555,1.376,0.868c0.744,0.314,1.209,0.351,1.583,0.38c0.301,0.024,0.518,0.041,0.964,0.229  s0.611,0.332,0.837,0.531c0.282,0.247,0.633,0.555,1.377,0.869c0.127,0.054,0.259,0.079,0.388,0.079c0.39,0,0.761-0.23,0.922-0.612  C-198.738,295.66-198.977,295.073-199.486,294.859z"/><path d="M-207.071,272.993c0.125,0,0.253-0.024,0.376-0.074c0.447-0.182,0.664-0.196,0.963-0.215  c0.375-0.024,0.841-0.054,1.589-0.358c0.749-0.305,1.104-0.608,1.39-0.853c0.229-0.196,0.394-0.337,0.842-0.52  c0.449-0.182,0.666-0.196,0.966-0.216c0.375-0.024,0.842-0.054,1.59-0.359c0.512-0.208,0.758-0.792,0.55-1.303  c-0.208-0.512-0.793-0.759-1.303-0.55c-0.449,0.182-0.666,0.196-0.966,0.216c-0.375,0.024-0.842,0.054-1.59,0.359  c-0.749,0.305-1.104,0.608-1.39,0.853c-0.229,0.196-0.394,0.337-0.843,0.52c-0.447,0.182-0.664,0.196-0.963,0.215  c-0.375,0.024-0.841,0.054-1.589,0.358c-0.512,0.208-0.757,0.792-0.549,1.303C-207.84,272.758-207.466,272.993-207.071,272.993z"/><path d="M-222.028,258.662c0.127,0.054,0.259,0.079,0.388,0.079c0.39,0,0.761-0.23,0.922-0.612c0.188-0.446,0.331-0.609,0.529-0.835  c0.247-0.282,0.555-0.633,0.868-1.376c0.314-0.744,0.351-1.209,0.38-1.583c0.024-0.301,0.041-0.518,0.229-0.964  s0.332-0.611,0.531-0.837c0.247-0.282,0.555-0.633,0.869-1.377c0.215-0.509-0.024-1.095-0.533-1.31  c-0.509-0.217-1.096,0.024-1.31,0.533c-0.188,0.446-0.332,0.61-0.53,0.837c-0.248,0.282-0.555,0.634-0.869,1.378  s-0.351,1.21-0.38,1.584c-0.024,0.3-0.041,0.517-0.229,0.964c-0.188,0.446-0.331,0.609-0.529,0.835  c-0.247,0.282-0.555,0.633-0.868,1.376C-222.776,257.861-222.537,258.447-222.028,258.662z"/><path d="M-232.82,256.327c0,0.552,0.448,1,1,1s1-0.448,1-1c0-0.201,0.022-0.263,0.076-0.413c0.082-0.228,0.194-0.539,0.194-1.088  s-0.112-0.861-0.194-1.088c-0.053-0.149-0.076-0.211-0.076-0.413c0-0.2,0.022-0.262,0.076-0.411  c0.082-0.227,0.194-0.539,0.194-1.087c0-0.552-0.448-1-1-1s-1,0.448-1,1c0,0.2-0.022,0.262-0.076,0.411  c-0.082,0.227-0.194,0.539-0.194,1.088s0.112,0.861,0.194,1.089c0.054,0.149,0.076,0.211,0.076,0.412  c0,0.201-0.022,0.263-0.076,0.413C-232.709,255.467-232.82,255.778-232.82,256.327z"/><path d="M-253.399,261.828c0.116,0.196,0.261,0.44,0.615,0.793c0.354,0.354,0.598,0.499,0.794,0.616  c0.14,0.083,0.225,0.134,0.402,0.311c0.177,0.177,0.227,0.262,0.311,0.402c0.117,0.196,0.262,0.44,0.616,0.794  c0.195,0.195,0.451,0.293,0.707,0.293s0.512-0.098,0.707-0.293c0.391-0.391,0.391-1.023,0-1.414  c-0.177-0.177-0.227-0.262-0.311-0.402c-0.117-0.196-0.262-0.44-0.615-0.794c-0.354-0.355-0.599-0.5-0.795-0.617  c-0.14-0.083-0.225-0.134-0.402-0.311c-0.176-0.176-0.226-0.26-0.309-0.4c-0.116-0.196-0.261-0.44-0.615-0.793  c-0.391-0.391-1.023-0.391-1.414,0s-0.391,1.023,0,1.414C-253.532,261.603-253.482,261.688-253.399,261.828z"/><path d="M-257.764,281.303c-0.228-0.082-0.539-0.194-1.089-0.194s-0.861,0.112-1.089,0.194c-0.149,0.054-0.211,0.076-0.412,0.076  c-0.2,0-0.261-0.022-0.41-0.076c-0.228-0.082-0.539-0.194-1.088-0.194c-0.552,0-1,0.448-1,1s0.448,1,1,1  c0.2,0,0.261,0.022,0.41,0.076c0.228,0.082,0.539,0.194,1.088,0.194c0.55,0,0.861-0.112,1.089-0.194  c0.149-0.054,0.211-0.076,0.412-0.076s0.263,0.022,0.412,0.076c0.228,0.082,0.539,0.194,1.089,0.194c0.552,0,1-0.448,1-1  s-0.448-1-1-1C-257.553,281.379-257.615,281.357-257.764,281.303z"/><path d="M-250.349,299.805c-0.177,0.177-0.262,0.227-0.402,0.311c-0.196,0.117-0.44,0.262-0.794,0.616  c-0.354,0.354-0.499,0.598-0.616,0.794c-0.083,0.14-0.134,0.225-0.312,0.403c-0.176,0.176-0.26,0.226-0.4,0.309  c-0.196,0.116-0.44,0.261-0.793,0.614c-0.391,0.391-0.391,1.023,0,1.414c0.195,0.195,0.451,0.293,0.707,0.293  s0.512-0.098,0.707-0.293c0.176-0.176,0.26-0.226,0.4-0.309c0.196-0.117,0.44-0.262,0.793-0.615c0.354-0.354,0.5-0.599,0.617-0.795  c0.083-0.14,0.134-0.225,0.311-0.402s0.262-0.227,0.402-0.311c0.196-0.117,0.44-0.262,0.794-0.616c0.391-0.391,0.391-1.023,0-1.414  S-249.959,299.415-250.349,299.805z"/><path d="M-230.301,307.911c0-0.552-0.448-1-1-1s-1,0.448-1,1c0,0.201-0.022,0.263-0.076,0.412c-0.082,0.227-0.194,0.539-0.194,1.088  s0.112,0.861,0.194,1.088c0.053,0.149,0.076,0.211,0.076,0.413c0,0.2-0.022,0.262-0.076,0.411c-0.082,0.227-0.194,0.539-0.194,1.088  c0,0.552,0.448,1,1,1s1-0.448,1-1c0-0.2,0.022-0.262,0.076-0.411c0.082-0.227,0.194-0.539,0.194-1.087  c0-0.549-0.112-0.861-0.194-1.088c-0.053-0.149-0.076-0.211-0.076-0.413s0.022-0.263,0.076-0.413  C-230.413,308.772-230.301,308.46-230.301,307.911z"/><path d="M-209.722,302.41c-0.116-0.196-0.261-0.44-0.615-0.793c-0.354-0.354-0.598-0.499-0.794-0.616  c-0.141-0.084-0.226-0.134-0.402-0.311s-0.227-0.262-0.311-0.402c-0.117-0.196-0.262-0.44-0.615-0.794  c-0.391-0.392-1.024-0.391-1.414-0.001c-0.391,0.391-0.391,1.023-0.001,1.414c0.177,0.177,0.228,0.262,0.311,0.403  c0.116,0.196,0.262,0.44,0.616,0.794s0.598,0.499,0.794,0.616c0.141,0.084,0.226,0.134,0.402,0.311  c0.176,0.176,0.226,0.261,0.309,0.4c0.117,0.196,0.261,0.44,0.614,0.793c0.195,0.196,0.452,0.293,0.708,0.293  s0.512-0.098,0.707-0.292c0.391-0.391,0.391-1.023,0.001-1.414C-209.589,302.635-209.639,302.55-209.722,302.41z"/><path d="M-201.679,281.053c-0.228-0.082-0.539-0.194-1.088-0.194c-0.55,0-0.861,0.112-1.089,0.194  c-0.149,0.054-0.211,0.076-0.412,0.076s-0.263-0.022-0.412-0.076c-0.228-0.082-0.539-0.194-1.089-0.194c-0.552,0-1,0.448-1,1  s0.448,1,1,1c0.201,0,0.263,0.022,0.412,0.076c0.228,0.082,0.539,0.194,1.089,0.194s0.861-0.112,1.089-0.194  c0.149-0.054,0.211-0.076,0.412-0.076c0.2,0,0.261,0.022,0.41,0.076c0.228,0.082,0.539,0.194,1.088,0.194c0.552,0,1-0.448,1-1  s-0.448-1-1-1C-201.469,281.129-201.53,281.107-201.679,281.053z"/><path d="M-213.479,264.726c0.256,0,0.512-0.098,0.707-0.293c0.177-0.177,0.262-0.227,0.402-0.311  c0.196-0.117,0.44-0.262,0.794-0.616c0.354-0.354,0.499-0.598,0.616-0.794c0.083-0.14,0.134-0.225,0.311-0.402  c0.176-0.176,0.26-0.226,0.4-0.309c0.196-0.116,0.44-0.261,0.793-0.615c0.391-0.391,0.391-1.023,0-1.414s-1.023-0.391-1.414,0  c-0.176,0.176-0.26,0.226-0.4,0.309c-0.196,0.116-0.44,0.261-0.793,0.614c-0.355,0.354-0.5,0.599-0.617,0.795  c-0.083,0.14-0.134,0.225-0.311,0.402s-0.262,0.227-0.402,0.311c-0.196,0.117-0.44,0.262-0.794,0.616  c-0.391,0.391-0.391,1.023,0,1.414C-213.991,264.628-213.735,264.726-213.479,264.726z"/><path d="M-231.561,261.619c-11.304,0-20.5,9.196-20.5,20.5s9.196,20.5,20.5,20.5s20.5-9.196,20.5-20.5  S-220.257,261.619-231.561,261.619z M-231.561,299.619c-9.649,0-17.5-7.851-17.5-17.5s7.851-17.5,17.5-17.5s17.5,7.851,17.5,17.5  S-221.911,299.619-231.561,299.619z"/><path d="M-117.976,262.031c-0.059-0.22-0.167-0.413-0.305-0.576c-0.159-0.504-0.68-0.807-1.196-0.671  c-1.068,0.277-1.597,0.648-2.022,0.947c-0.367,0.258-0.657,0.462-1.375,0.647c-0.691,0.18-1.022,0.127-1.48,0.057  c-0.533-0.083-1.197-0.186-2.29,0.097c-0.955,0.248-1.423,0.437-1.876,0.62c-0.411,0.167-0.8,0.323-1.627,0.538  c-0.951,0.246-1.418,0.432-1.871,0.61c-0.414,0.164-0.805,0.319-1.636,0.535c-0.984,0.255-1.48,0.493-1.917,0.702  c-0.407,0.195-0.758,0.363-1.555,0.57c-0.692,0.18-1.022,0.129-1.479,0.059c-0.532-0.081-1.194-0.182-2.283,0.101  c-0.986,0.255-1.482,0.496-1.92,0.707c-0.406,0.196-0.756,0.366-1.552,0.572c-1.009,0.261-1.509,0.532-1.95,0.771  c-0.39,0.211-0.727,0.393-1.5,0.594c-0.772,0.2-1.155,0.204-1.598,0.208c-0.502,0.005-1.071,0.01-2.08,0.272  c-0.979,0.254-1.474,0.485-1.911,0.689c-0.409,0.192-0.763,0.357-1.563,0.565c-0.7,0.18-1.048,0.134-1.489,0.072  c-0.527-0.073-1.182-0.163-2.264,0.118c-0.922,0.239-1.376,0.391-1.829,0.543c-0.42,0.141-0.841,0.281-1.697,0.504  c-1.108,0.286-1.637,0.729-2.062,1.084c-0.353,0.295-0.608,0.508-1.281,0.683c-0.8,0.207-1.189,0.234-1.64,0.267  c-0.48,0.033-1.024,0.071-2.002,0.325c-0.84,0.218-1.259,0.281-1.703,0.349c-0.475,0.071-0.966,0.146-1.906,0.39  c-0.773,0.2-1.156,0.206-1.599,0.213c-0.499,0.008-1.065,0.017-2.07,0.277c-1.014,0.263-1.515,0.541-1.956,0.787  c-0.386,0.214-0.719,0.399-1.486,0.599c-0.976,0.253-1.469,0.479-1.905,0.68c-0.275,0.127-0.536,0.242-0.912,0.367  c-0.132-0.001-0.265,0.008-0.398,0.043c-0.218,0.059-0.409,0.165-0.572,0.302c-0.066,0.045-0.117,0.102-0.169,0.161  c-0.001,0.002-0.003,0.003-0.004,0.005c-0.059,0.067-0.113,0.134-0.153,0.214c-0.2,0.336-0.272,0.748-0.162,1.156  c3.94,14.706,17.569,24.371,32.563,24.371c3.015,0,6.086-0.391,9.144-1.21C-124.251,298.049-113.242,279.695-117.976,262.031z   M-176.002,277.404c0.773-0.2,1.156-0.206,1.599-0.213c0.499-0.008,1.065-0.017,2.07-0.277c0.84-0.218,1.259-0.281,1.703-0.349  c0.475-0.071,0.966-0.146,1.906-0.39c0.8-0.207,1.189-0.234,1.64-0.267c0.48-0.033,1.024-0.071,2.002-0.325  c1.108-0.287,1.637-0.729,2.062-1.084c0.353-0.295,0.608-0.508,1.281-0.683c0.924-0.239,1.377-0.392,1.831-0.543  c0.42-0.141,0.841-0.281,1.697-0.504c0.701-0.18,1.049-0.133,1.489-0.072c0.528,0.073,1.184,0.163,2.264-0.118  c0.979-0.254,1.474-0.485,1.91-0.689c0.41-0.191,0.764-0.357,1.564-0.565c0.771-0.199,1.154-0.203,1.597-0.207  c0.502-0.005,1.071-0.011,2.081-0.272c1.009-0.262,1.509-0.532,1.95-0.771c0.39-0.211,0.727-0.393,1.5-0.593  c0.987-0.256,1.483-0.496,1.921-0.708c0.405-0.196,0.756-0.365,1.551-0.571c0.694-0.18,1.023-0.128,1.479-0.06  c0.532,0.081,1.193,0.182,2.283-0.101c0.984-0.255,1.48-0.493,1.917-0.702c0.407-0.195,0.758-0.363,1.555-0.57  c0.951-0.246,1.418-0.432,1.871-0.61c0.414-0.164,0.805-0.319,1.636-0.535c0.954-0.247,1.422-0.437,1.875-0.62  c0.412-0.166,0.8-0.323,1.628-0.538c0.692-0.179,1.023-0.128,1.48-0.057c0.02,0.003,0.043,0.006,0.063,0.009  c3.356,13.802-5.37,28.001-19.706,31.842c-2.448,0.655-4.903,0.969-7.315,0.969c-11.907-0.002-22.715-7.627-25.836-19.245  C-177.083,277.779-176.747,277.598-176.002,277.404z M-143.291,300.045c-16.516,4.423-33.413-4.809-37.906-20.612  c0.06-0.027,0.124-0.055,0.182-0.082c0.412-0.189,0.768-0.353,1.572-0.562c0.051-0.013,0.086-0.027,0.134-0.04  c3.448,12.37,14.985,20.481,27.691,20.48c2.582-0.001,5.213-0.335,7.832-1.037c15.247-4.085,24.575-19.117,21.228-33.843  c0.065-0.015,0.119-0.019,0.187-0.037c0.809-0.21,1.308-0.474,1.688-0.719C-116.909,279.416-126.897,295.652-143.291,300.045z"/><path d="M-167.723,285.163c0.417,0,0.833-0.174,1.129-0.513l1.427-1.631c0.545-0.623,0.482-1.57-0.141-2.116  c-0.625-0.546-1.572-0.482-2.117,0.142l-1.427,1.631c-0.545,0.623-0.482,1.57,0.141,2.116  C-168.425,285.041-168.073,285.163-167.723,285.163z"/><path d="M-156.769,291.672c0.046,0.004,0.093,0.006,0.139,0.006c0.767,0,1.42-0.585,1.492-1.363l0.197-2.157  c0.076-0.825-0.532-1.555-1.357-1.631c-0.824-0.071-1.555,0.532-1.63,1.357l-0.197,2.157  C-158.202,290.866-157.594,291.596-156.769,291.672z"/><path d="M-153.231,282.299c0.096,0.759,0.742,1.312,1.486,1.312c0.062,0,0.126-0.004,0.19-0.012c0.822-0.104,1.404-0.854,1.3-1.676  l-0.271-2.149c-0.104-0.822-0.852-1.405-1.676-1.301c-0.822,0.104-1.404,0.854-1.3,1.676L-153.231,282.299z"/><path d="M-133.161,276.85l1.829,1.161c0.249,0.158,0.527,0.233,0.802,0.233c0.497,0,0.982-0.246,1.268-0.696  c0.444-0.699,0.237-1.626-0.463-2.07l-1.829-1.161c-0.699-0.445-1.626-0.237-2.07,0.463  C-134.068,275.479-133.861,276.406-133.161,276.85z"/><path d="M-140.657,277.499c0.296,0.322,0.7,0.485,1.105,0.485c0.362,0,0.726-0.131,1.014-0.396c0.61-0.56,0.65-1.509,0.09-2.119  l-1.465-1.596c-0.56-0.61-1.509-0.65-2.12-0.09c-0.61,0.56-0.65,1.509-0.09,2.119L-140.657,277.499z"/><path d="M-142.694,289.496c0.247,0.562,0.797,0.896,1.374,0.896c0.201,0,0.406-0.04,0.603-0.127c0.758-0.333,1.103-1.218,0.77-1.977  l-0.872-1.983c-0.333-0.758-1.216-1.104-1.977-0.77c-0.758,0.333-1.103,1.218-0.77,1.977L-142.694,289.496z"/><path d="M66.33,61.882l-8.866-33.086c-0.163-0.612-0.683-1.031-1.276-1.1c-0.276-0.093-0.581-0.108-0.881-0.025  c-0.378,0.105-1.021,0.201-1.348,0.201c-1.575,0-2.992-0.937-3.61-2.387c-0.284-0.664-1-1.038-1.704-0.876  c-2.082,0.458-4.034-0.787-4.607-2.695c-0.158-0.526-0.592-0.924-1.129-1.036c-1.486-0.311-2.931-1.892-3.222-3.524  c-0.145-0.816-0.926-1.361-1.739-1.214c-0.132,0.024-0.254,0.069-0.371,0.123c-0.146,0.015-0.292,0.045-0.435,0.105  c-6.446,2.748-9.999,9.703-8.264,16.177L38.72,69.28c0.179,0.67,0.786,1.111,1.448,1.111c0.128,0,0.259-0.017,0.389-0.051  l8.935-2.394l3.135,11.701c0.645,2.408,1.344,3.809,2.267,4.541c0.586,0.465,1.203,0.601,1.746,0.601  c0.506,0,0.948-0.118,1.237-0.196c0.697-0.187,1.864-0.498,2.39-1.786c0.441-1.082,0.344-2.661-0.315-5.122l-3.135-11.7l8.452-2.265  c0.384-0.104,0.712-0.354,0.911-0.699C66.379,62.676,66.433,62.266,66.33,61.882z M58.021,78.202  c0.644,2.403,0.57,3.419,0.395,3.849c-0.119,0.292-0.336,0.418-1.056,0.61c-0.749,0.201-0.982,0.151-1.222-0.04  c-0.373-0.295-0.949-1.141-1.579-3.491l-3.135-11.701l3.461-0.927L58.021,78.202z M41.23,67.054l-9.455-35.286  c-1.257-4.692,1.096-9.721,5.525-12.142c0.84,1.794,2.393,3.292,4.159,3.946c1.139,2.573,3.792,4.265,6.679,4.125  c1.26,1.959,3.438,3.175,5.822,3.175c0.285,0,0.611-0.031,0.935-0.075l8.149,30.412L41.23,67.054z"/></svg>
