<svg xmlns="http://www.w3.org/2000/svg" viewBox="0 0 100 100"><path d="M79.95 44.174a7.866 7.866 0 0 0 1.142-1.124c.527-.632 2.127-2.556 1.32-4.34-.526-1.173-1.43-1.362-2.087-1.5-.268-.063-.52-.116-.76-.23-.64-.296-1.037-.686-1.22-1.19-.456-1.273.467-3.238.96-4.292.372-.796 1.036-1.706 1.736-2.667 1.765-2.423 3.76-5.167 2.776-8.072-.41-1.23-1.272-2.117-2.422-2.5-1.204-.4-2.59-.188-3.702.576-2.77 1.907-3.93 5.607-4.95 8.873-.448 1.42-.87 2.765-1.388 3.88l-.207.455a45.44 45.44 0 0 1-1.25 2.572c-1.74-1.1-3.506-1.977-5.235-2.6l2.523-6.552-.412-.903 1.74-1.826-1.496-1.214 1.35-1.52-.947-.673.767-.754-15.5-15.958A2.02 2.02 0 0 0 51.227 2c-.532 0-1.035.2-1.42.575-.388.38-.607.886-.613 1.432-.01.54.193 1.058.574 1.448l12.678 13.05-1.333 1.307 1.2.862L61.136 22l1.39 1.123-.593.623.84 1.846-2.09 5.44c-.577-.07-1.14-.108-1.687-.108-2.504 0-4.625.77-6.13 2.228-1.564 1.518-2.378 3.66-2.42 6.227l-31.832 37.1s-5.505 6.312 3.82 15.64c8.853 8.853 15.507 4.295 15.507 4.295L75.827 65.9c.173.003.34.007.51.007 2.505 0 4.622-.77 6.128-2.228 2.404-2.33 3.048-6.13 1.82-10.695-.785-2.92-2.284-5.935-4.335-8.81zm-1.884 19.92a9.295 9.295 0 0 1-1.73.156c-4.917 0-11.134-3.26-16.225-8.512-3.7-3.82-6.355-8.196-7.465-12.327-.657-2.44-.722-4.605-.218-6.35.314-1.078.845-1.997 1.594-2.718 1.205-1.17 2.88-1.76 4.975-1.76.353 0 .706.016 1.07.05l-.32.832c-.52-.102-1-.045-1.44.102-1.41.18-2.612.71-3.508 1.58-.17.163-.326.348-.472.532-1.508 1.907-1.737 4.84-.622 8.368 1.16 3.68 3.657 7.61 7.03 11.088 4.9 5.058 10.74 8.2 15.234 8.2 1.54 0 2.878-.39 3.924-1.128a5.18 5.18 0 0 0 .64-.52c1.933-1.872 2.32-5.034 1.098-8.902-.76-2.404-2.094-4.923-3.868-7.347.263-.115.53-.234.79-.37 1.965 2.733 3.392 5.596 4.133 8.35 1.064 3.958.58 7.182-1.372 9.07-.85.828-1.94 1.36-3.244 1.607zM62.34 31.326l2.223-5.784-.662-1.464 1.06-1.11-1.433-1.166 1.25-1.4-1.1-.787 1.103-1.083-13.827-14.23a.38.38 0 0 1 .543-.53L65.85 18.544l-.998.98 1.05.75-1.28 1.44 1.453 1.178-1.272 1.337.583 1.287-2.304 5.997-.3.775-.296.77-.308.8-.3.783-.075.193-.226.59-.15.378-.423 1.116-.268.697-2.406 6.252-1.296 3.37c-.154-.282-.305-.59-.457-.926l1.204-3.134 2.23-5.784.55-1.444.264-.677.09-.238.21-.55.114-.29.19-.493.315-.82.297-.775.3-.784zm8.943 4.217c.537-.993.988-1.977 1.368-2.806l.208-.45c.564-1.215 1-2.61 1.46-4.086.99-3.15 2.01-6.415 4.31-7.998.687-.468 1.524-.607 2.244-.37.453.153 1.064.53 1.374 1.457.71 2.09-.943 4.368-2.548 6.567-.746 1.03-1.452 2.002-1.893 2.937-.826 1.764-1.655 3.795-1.02 5.56.335.926 1.034 1.644 2.077 2.128.408.193.8.28 1.114.344.59.123.75.173.925.566.143.316.192 1.07-1.08 2.6a6.42 6.42 0 0 1-1.546 1.334c-.24.144-.49.275-.743.398-.264.123-.536.238-.817.357-.1.046-.2.087-.304.128-.163.066-.33.13-.493.205-.24.1-.482.205-.728.32l-.06.025c-.343.164-.688.344-1.05.558-1.478.902-2.466 2.44-2.52 3.93-.04 1.124.468 2.112 1.426 2.79.423.295.86.55 1.28.788 1.395.792 2.188 1.313 2.246 2.744.076 1.92-1.165 2.925-2.6 4.09-.522.423-1.057.866-1.54 1.358-.073.074-.147.152-.22.23l-.335-.423c-3.222-1.21-6.79-3.635-9.892-6.84a32.65 32.65 0 0 1-3.885-4.82c.053-.09.105-.188.143-.286l1.344-3.503 2.404-6.243c.596.986 1.574 1.78 3.457 1.658.946-.057 1.797-.426 2.56-.984.332-.246.654-.533.954-.845a11.095 11.095 0 0 0 1.064-1.28 14.874 14.874 0 0 0 .913-1.412c.14-.24.277-.487.406-.725zm-8.512 1.395l.403-1.046c1.39.488 2.85 1.21 4.316 2.13-.584.55-1.21.94-1.884 1.066-.107.025-.213.04-.324.05-.938.057-1.452-.176-1.828-.697-.263-.362-.46-.862-.683-1.502zm-7.488 6.612c-.51-1.608-.706-3.044-.6-4.258l-.085-.115c.035-.016.07-.037.107-.057.634-.37 1.11-.993 1.54-1.56.17-.225.332-.442.476-.594.086-.095.176-.193.27-.3l.13-.143c.576-.632 1.08-1.124 1.577-1.337a1.26 1.26 0 0 1 .427-.11l-.033.086-.676 1.752-1.827 4.766-1.03 2.667c-.096-.267-.19-.534-.275-.797zm22.214 9.764c-.61-.91-1.547-1.444-2.414-1.932-.386-.22-.786-.447-1.143-.7-.505-.354-.74-.81-.725-1.38.03-.918.744-1.972 1.727-2.567.228-.14.457-.26.683-.378.19-.09.375-.18.564-.263 1.786 2.38 3.118 4.85 3.86 7.187 1.012 3.213.79 5.756-.633 7.176-.012.012-.023.03-.04.04-.807.785-1.954 1.183-3.41 1.183-.54 0-1.11-.06-1.698-.17.22-.188.448-.372.684-.57 1.495-1.213 3.18-2.592 3.212-5.143 0-.1.002-.193 0-.295-.037-.925-.29-1.63-.67-2.188zM68.59 36.74c-1.624-1.033-3.253-1.854-4.822-2.403l.304-.783c1.64.586 3.327 1.423 4.994 2.49-.152.238-.312.476-.476.697z"/></svg>