<svg xmlns="http://www.w3.org/2000/svg" fill="#fff" viewBox="0 0 100 100"><path d="M39 7.3c-.7-.8-1.9-1.3-3.1-.6C25.4 12 14.7 18 9.4 29 3.9 40.5 3.7 54.9 7.6 66.8c3.6 10.9 12 19.8 22.3 24.6 11.3 5.2 25.7 4.5 37.3.9 23.9-7.5 33-39.2 24.5-60.9C84 11.3 59.3.1 39 7.3zm28.4 6.1c6.3 2.8 11.9 7.3 16 13-5 2.6-9 6.6-7.5 12.8 1.2 5 1.2 10.1 1.2 15.3 0 6-2.4 9.6-6.8 12.5-1.3-3.6.1-8.9-.5-12.5-.9-5.4-7-7.3-11.2-9.3-1-.5-2-1-2.9-1.5.2-1.9.4-3.7.6-5.6.7.1 1.3 0 2-.1 1.6-.4 2.6-1.5 2.9-3 .8-4-2.9-9.9-5.2-13.5.5-.7 1-1.5 1.6-2.1 1.2-1.3 3.1-1.6 4.7-2.2 2-.7 3.7-2.1 5.1-3.8zM12.5 65.5c-1.2-3.1-1.9-6.3-2.2-9.6 1.9 3.4 4.1 5.8 5.2 9.8.7 2.4.9 5 1 7.6-1.6-2.5-3-5-4-7.8zm.6-17.8V34c0-.3 0-.5-.1-.7l.3-.9c.9-2.5 2.2-4.7 3.8-6.7.3 0 .6 0 1-.1 5.1-1.5 10.3-2.4 15.6-2.1 1.2.1 2.3.3 3.4.6-.1.7-.3 1.4-.4 2-.8 4.1-1.7 6.7-4.5 9.8-3.2 3.6-6.8 6.7-9.9 10.4-.8 1-1.1 2.6 0 3.5 2.9 2.6 5.6 5.4 8.6 7.8 1 .8 4.3 2.7 3.5 4.2-.7 1.3-1.8 1.8-3.1 2.5-3.6 2.2-7 4.7-10.1 7.4-.3-4.7-1.2-9.3-3.4-13.7-1.8-3.7-4.6-5.7-4.7-10.3zm28.1 41.7c1.9-4.9 17.6-4.7 19.6-.4-6.6 1.5-13.3 1.6-19.6.4zm24.7-2c-.1 0-.1 0-.2.1-3-9.4-26.6-9.4-29.4.6-5.7-1.9-10.9-5-15.2-9.2.1-.1.1-.2.2-.4C24 75.9 27.1 73 30 71c2.4-1.6 6.4-2.9 8-5.4 2-3.1 2.7-5.6-.1-8.5-3-3.2-6.7-6.2-10.2-9.2 3.9-4 8.9-7.7 11.6-12.5 1.9-3.4 2.6-8.1 2.9-11.9.5-6.2-10.3-5.5-18.1-4.2 4.1-3 8.7-5.4 13.1-7.7.5.7 1.4 1.2 2.5.7 7.4-2.8 15.1-2.8 22.3-.8-1.5 1-3.2 1.4-5 2.3-2.9 1.4-4.7 3.9-6.4 6.6-.5.9-.5 1.7-.1 2.4.1.2.2.4.3.5 2 3 3.5 6.1 4.7 9.6.1.4.2.6.3.8-.3-.2-.7-.3-1.3-.2-1 .1-1.7.5-2.6.9-4.1 1.8-5 8.7-1.8 11.6 2.2 2 4.7 3.1 7.4 4.4 4.2 2 7.5 3.2 7.5 8.5 0 5-.9 9.3 2.5 13.4.7.9 2.1.9 3 .4 6.9-3.7 10.8-8.3 11.4-16.3.4-4.7 0-9.6-.5-14.2-.2-1.7-1.7-5.3-1-6.8.9-2 3.4-3.5 5.5-4.5l.6 1.2c9.4 19.1 0 48-20.6 55.3z"/></svg>