<svg xmlns="http://www.w3.org/2000/svg" viewBox="0 0 100 125" stroke-width="2" stroke="#27B8E8"><path d="M30.674 80.102c-.424-.057-.763-.506-.706-.927l3.363-20.728L18.326 43.59c-.396-.394-.142-1.21.424-1.32l20.968-3.26 9.58-18.732c.254-.505 1.16-.505 1.413 0l9.58 18.733 20.94 3.26c.566.11.85.926.453 1.32L66.648 58.446l3.363 20.728c.086.59-.62 1.096-1.157.843l-18.85-9.578-18.878 9.578c-.14.055-.31.084-.45.084zm1.16-2.22l17.803-9.043c.226-.085.51-.085.707 0l17.832 9.043-3.166-19.576c-.057-.253.057-.534.226-.702L79.394 43.59 59.64 40.528a.885.885 0 0 1-.593-.45l-9.043-17.666-9.072 17.667a.895.895 0 0 1-.565.448L20.585 43.59l14.158 14.015c.198.168.282.45.254.702l-3.164 19.576z"/></svg>