<svg xmlns="http://www.w3.org/2000/svg" xmlns:xlink="http://www.w3.org/1999/xlink" version="1.1" x="0px" y="0px" viewBox="0 0 100 125" enable-background="new 0 0 100 100" xml:space="preserve" stroke-width="2" stroke="#27B8E8"><g><path d="M30.674,80.102c-0.424-0.057-0.763-0.506-0.706-0.927l3.363-20.728L18.325,43.589c-0.396-0.393-0.142-1.208,0.424-1.32   l20.969-3.258l9.58-18.733c0.254-0.505,1.159-0.505,1.413,0l9.58,18.733l20.94,3.258c0.565,0.112,0.849,0.927,0.452,1.32   L66.648,58.447l3.363,20.728c0.085,0.59-0.622,1.096-1.158,0.843l-18.85-9.578l-18.878,9.578   C30.985,80.073,30.815,80.102,30.674,80.102L30.674,80.102z M31.833,77.883l17.804-9.044c0.226-0.084,0.509-0.084,0.707,0   l17.832,9.044L65.01,58.307c-0.057-0.253,0.057-0.534,0.226-0.702l14.158-14.015l-19.753-3.062   c-0.255-0.056-0.48-0.225-0.594-0.449l-9.043-17.667l-9.072,17.667c-0.113,0.225-0.339,0.393-0.565,0.449l-19.782,3.062   l14.158,14.015c0.198,0.168,0.282,0.449,0.254,0.702L31.833,77.883L31.833,77.883z"/></g></svg>
