<svg xmlns="http://www.w3.org/2000/svg" viewBox="0 0 100 125" stroke-width="2" stroke="#000"><path d="M30.674 80.102c-.424-.057-.763-.506-.706-.927l3.363-20.728-15-14.857c-.396-.394-.142-1.21.424-1.32l20.97-3.26 9.58-18.732c.253-.505 1.16-.505 1.412 0l9.58 18.733 20.94 3.26c.567.11.85.93.454 1.32L66.648 58.45l3.363 20.728c.09.59-.62 1.096-1.153.843l-18.85-9.58-18.878 9.58c-.14.054-.31.083-.45.083zm1.16-2.22l17.803-9.043a1.01 1.01 0 0 1 .707 0l17.832 9.04-3.166-19.577c-.057-.253.057-.534.226-.702l14.158-14.01-19.754-3.062a.885.885 0 0 1-.593-.45l-9.043-17.666-9.072 17.667a.895.895 0 0 1-.565.444L20.585 43.59l14.158 14.015c.198.168.282.45.254.702l-3.164 19.576z"/></svg>